<svg width="419" height="384" viewBox="0 0 419 384" fill="none" xmlns="http://www.w3.org/2000/svg">
<g clip-path="url(#clip0_10_1552)">
<path d="M397.073 357.822C397.073 372.279 308.187 384 198.537 384C88.8868 384 0 372.279 0 357.822C0 347.588 44.5555 338.721 109.49 334.42C136.267 332.641 166.521 331.645 198.537 331.645C211.698 331.645 224.558 331.814 236.995 332.135C328.239 334.499 397.073 345.1 397.073 357.822Z" fill="#3F3D56"/>
<path opacity="0.1" d="M172.919 363.171C215.01 363.171 249.132 359.516 249.132 355.008C249.132 350.5 215.01 346.845 172.919 346.845C130.828 346.845 96.7066 350.5 96.7066 355.008C96.7066 359.516 130.828 363.171 172.919 363.171Z" fill="black"/>
<path d="M172.599 360.919C212.391 360.919 244.649 330.674 244.649 293.364C244.649 256.055 212.391 225.809 172.599 225.809C132.807 225.809 100.549 256.055 100.549 293.364C100.549 330.674 132.807 360.919 172.599 360.919Z" fill="#3F3D56"/>
<path d="M195.335 333.334H150.504V369.363H195.335V333.334Z" fill="#DBA1FF"/>
<path d="M253.935 342.06L251.373 354.445L268.025 356.697L278.912 351.067L278.272 342.06H253.935Z" fill="#575A89"/>
<path d="M170.037 109.559C170.037 109.559 168.756 122.507 165.554 123.07C162.352 123.633 172.599 146.151 172.599 146.151H187.97L200.138 143.336L194.374 130.951C194.374 130.951 186.689 121.944 192.453 114.625C198.217 107.307 170.037 109.559 170.037 109.559Z" fill="#A0616A"/>
<path opacity="0.1" d="M170.037 109.559C170.037 109.559 168.756 122.507 165.554 123.07C162.352 123.633 172.599 146.151 172.599 146.151H187.97L200.138 143.336L194.374 130.951C194.374 130.951 186.689 121.944 192.453 114.625C198.217 107.307 170.037 109.559 170.037 109.559Z" fill="black"/>
<path d="M138.015 208.639C138.015 208.639 121.364 236.787 134.813 242.417C148.262 248.046 151.464 247.483 151.464 249.172C151.464 250.861 148.903 250.298 150.183 253.113C151.464 255.927 147.622 267.187 151.464 273.942C155.307 280.698 154.026 285.764 154.026 285.764C154.026 285.764 154.026 286.327 155.307 288.579C156.588 290.831 157.228 292.52 156.588 293.646C155.947 294.771 152.105 302.09 155.947 303.779C159.79 305.468 179.644 306.594 181.565 303.779C183.486 300.964 179.644 299.275 181.565 297.586C183.486 295.897 184.767 295.334 183.486 294.208C182.206 293.083 180.925 279.009 180.925 279.009C180.925 279.009 184.127 262.683 182.846 260.431C181.565 258.179 179.644 255.927 180.925 254.239C182.206 252.55 183.486 253.113 184.127 250.861C184.767 248.609 186.048 243.542 186.048 243.542L193.093 242.979L209.744 245.794C209.744 245.794 228.317 263.809 248.811 269.438C248.811 269.438 254.575 274.505 256.497 274.505C258.418 274.505 258.418 274.505 257.778 275.631C257.137 276.757 255.216 276.757 256.497 277.883C257.778 279.009 259.699 277.32 258.418 279.009C257.137 280.698 255.856 280.698 257.137 281.823C258.418 282.949 256.497 289.142 256.497 289.705C256.497 290.268 250.733 343.186 252.654 344.312C254.575 345.438 281.474 348.815 283.395 344.312C285.317 339.808 282.114 334.178 282.114 334.178C282.114 334.178 291.721 266.624 289.159 262.12C286.597 257.616 277.631 237.35 229.598 224.402C229.598 224.402 216.149 222.15 216.149 220.461C216.149 218.772 214.868 208.076 212.306 207.513C209.744 206.95 195.014 206.387 195.014 206.387L176.442 211.454L150.824 207.513L138.015 208.639Z" fill="#2F2E41"/>
<path d="M160.431 303.216L157.228 313.349C157.228 313.349 154.667 329.675 157.869 333.615C160.384 336.711 164.875 340.501 173.204 341.166C175.538 341.354 177.875 340.836 179.829 339.698C181.783 338.56 183.237 336.87 183.949 334.907C184.045 334.672 184.105 334.427 184.127 334.178C184.127 333.052 182.206 319.541 182.206 319.541L179.003 305.468L178.363 301.527L160.431 303.216Z" fill="#2F2E41"/>
<path d="M253.935 351.63C253.935 351.63 250.733 348.815 250.092 351.63C249.452 354.445 246.89 366.267 251.373 366.83C255.856 367.393 298.766 373.022 303.249 370.77C307.732 368.519 316.058 365.141 310.934 363.452C305.811 361.763 291.08 356.697 291.08 356.697C291.08 356.697 282.755 347.126 281.474 346.563C280.193 346 273.148 347.126 269.946 349.378C266.744 351.63 253.935 351.63 253.935 351.63Z" fill="#2F2E41"/>
<path d="M185.408 121.381C196.373 121.381 205.261 113.568 205.261 103.929C205.261 94.291 196.373 86.4777 185.408 86.4777C174.443 86.4777 165.554 94.291 165.554 103.929C165.554 113.568 174.443 121.381 185.408 121.381Z" fill="#A0616A"/>
<path d="M183.486 143.336L175.801 136.018L167.282 121.381C167.282 121.381 161.071 119.692 159.79 122.507C158.509 125.322 135.453 134.329 135.453 134.329C135.453 134.329 141.217 181.617 138.656 186.121C136.094 190.625 131.611 208.639 135.453 210.328C139.296 212.017 157.228 210.328 162.992 212.58C168.756 214.832 185.408 214.832 189.891 212.017C194.374 209.202 195.655 206.95 200.138 208.639C203.954 210.077 212.877 160.922 215.445 146.274C215.662 145.044 215.482 143.785 214.927 142.64C214.371 141.495 213.462 140.509 212.302 139.795C206.556 136.252 196.206 130.146 194.374 130.951C191.812 132.077 183.486 143.336 183.486 143.336Z" fill="#575A89"/>
<path d="M211.025 141.084C212.529 141.415 213.882 142.142 214.902 143.168C215.922 144.194 216.561 145.47 216.732 146.824L221.913 187.81C221.913 187.81 209.104 212.017 202.7 195.691C196.295 179.365 211.025 141.084 211.025 141.084Z" fill="#575A89"/>
<path d="M209.744 191.75L223.834 188.373C223.834 188.373 226.396 204.136 228.958 204.136C231.519 204.136 219.992 213.143 214.228 212.017C208.464 210.891 200.138 206.95 199.497 204.136C198.857 201.321 205.261 189.499 205.261 189.499L209.744 191.75Z" fill="#575A89"/>
<path d="M170.42 111.458C171.77 108.841 171.536 105.789 172.652 103.088C173.25 101.643 174.219 100.338 175.486 99.2756C176.752 98.2136 178.281 97.4234 179.952 96.9666C181.623 96.5098 183.392 96.3988 185.12 96.6424C186.848 96.8859 188.489 97.4774 189.914 98.3705C191.35 99.2703 192.789 100.535 194.541 100.363C196.429 100.178 198.112 98.3272 199.847 99.0054C201.77 99.7572 201.251 102.787 203.199 103.486C204.225 103.855 205.436 103.288 206.028 102.464C206.545 101.599 206.827 100.64 206.851 99.6629C207.12 97.2618 207.363 94.7207 206.179 92.5443C205.68 91.8067 205.246 91.037 204.88 90.2419C204.672 89.4994 204.589 88.7343 204.633 87.9707C204.622 85.1485 204.387 82.2048 202.772 79.7661C200.979 77.0599 197.664 75.3294 194.207 74.5743C190.749 73.8193 187.127 73.935 183.577 74.1992C177.708 74.6359 171.588 75.572 166.965 78.7789C166.336 79.1824 165.795 79.6819 165.368 80.2535C164.962 80.9326 164.675 81.6617 164.517 82.4161C163.518 85.9943 162.019 89.4503 160.055 92.7054C159.11 94.0853 158.338 95.551 157.752 97.077C157.262 98.6276 157.295 100.395 158.321 101.727C159.157 102.813 160.493 103.391 161.542 104.278C162.582 105.157 163.069 106.847 164.221 107.513C165.227 108.094 166.431 107.684 167.457 108.3C168.774 109.09 168.869 110.824 170.42 111.458Z" fill="#2F2E41"/>
<path d="M186.689 151.781L188.61 148.403C188.61 148.403 216.789 155.721 222.553 162.477C222.553 162.477 236.643 154.595 244.328 155.721L252.014 156.847L228.317 175.425L198.217 173.173L186.689 151.781Z" fill="#F2F2F2"/>
<path d="M185.408 148.403L159.15 180.491L196.936 196.817C196.936 196.817 200.468 198.506 203.185 196.817L228.317 186.684L252.014 156.847L228.317 167.543C228.317 167.543 225.755 163.04 220.632 165.292L185.408 148.403Z" fill="#DBA1FF"/>
<path d="M225.755 205.261L230.879 193.439C230.879 193.439 242.407 180.491 236.003 174.299C229.598 168.106 222.553 192.313 222.553 192.313L225.755 205.261Z" fill="#A0616A"/>
<path d="M166.641 203.375L177.821 195.408C177.821 195.408 195.183 189.291 193.178 181.11C191.172 172.929 171.262 190.762 171.262 190.762L166.641 203.375Z" fill="#A0616A"/>
<path opacity="0.1" d="M138.976 146.432H138.335C138.335 146.432 128.408 136.018 126.487 150.092C124.566 164.166 118.161 210.891 134.813 212.58C151.464 214.269 163.312 205.543 163.312 205.543C163.312 205.543 175.481 189.217 170.998 189.217C168.829 189.217 162.929 188.361 157.549 188.654C151.808 188.967 146.651 190.389 146.981 188.936C147.622 186.121 156.908 150.373 138.976 146.432Z" fill="black"/>
<path d="M138.015 135.455L135.453 134.329C135.453 134.329 125.206 136.018 123.285 150.092C121.364 164.166 114.959 210.891 131.611 212.58C148.262 214.269 170.678 210.328 170.678 210.328C170.678 210.328 175.161 188.936 170.678 188.936C166.194 188.936 143.139 191.751 143.779 188.936C144.419 186.121 155.947 139.396 138.015 135.455Z" fill="#575A89"/>
<path d="M216.469 198.788L223.531 189.273L227.997 204.98L216.469 209.484V198.788Z" fill="#575A89"/>
<path d="M71.392 63.115C80.942 63.115 88.6839 56.3098 88.6839 47.9152C88.6839 39.5206 80.942 32.7154 71.392 32.7154C61.8419 32.7154 54.1001 39.5206 54.1001 47.9152C54.1001 56.3098 61.8419 63.115 71.392 63.115Z" fill="#F2F2F2"/>
<path d="M91.8861 161.069H50.8979V197.099H91.8861V161.069Z" fill="#F2F2F2"/>
<path d="M238.244 0L248.619 15.7949L258.992 31.5897H238.244H217.496L227.87 15.7949L238.244 0Z" fill="#F2F2F2"/>
<path d="M419 94.7056C418.752 101.444 416.885 106.846 413.399 110.909C409.913 114.974 405.771 117.006 400.974 117.006C397.066 117.006 393.642 115.018 390.7 111.04C387.757 107.062 386.285 100.944 386.286 92.6841C386.286 90.8584 386.335 89.1195 386.434 87.4675C386.533 85.816 386.656 84.251 386.805 82.7727L389.401 61.3195H372.265C369.298 88.4457 366.862 104.584 364.958 109.736C363.054 114.887 359.827 117.463 355.278 117.463C353.224 117.418 351.264 116.697 349.788 115.441C348.932 114.775 348.255 113.949 347.806 113.024C347.357 112.1 347.147 111.099 347.192 110.094C347.192 108.095 348.984 105.302 352.57 101.715C356.155 98.1289 358.146 94.8577 358.541 91.9017L362.992 61.3195H355.797C353.768 61.3302 351.772 61.766 349.974 62.591C348.318 63.2593 346.878 64.2788 345.782 65.5579L342.592 69.7312H339.996C342.419 63.1239 345.398 58.1573 348.935 54.8314C352.47 51.5058 356.538 49.843 361.138 49.843H417.813V61.3195H398.674C398.081 66.5361 397.623 71.7526 397.302 76.9691C396.98 82.1857 396.819 87.424 396.82 92.6841C396.82 96.2491 397.759 99.14 399.639 101.357C401.518 103.574 403.867 104.682 406.686 104.682C408.416 104.682 410.234 104.063 412.138 102.824C413.043 102.266 413.799 101.543 414.356 100.705C414.913 99.8665 415.257 98.9322 415.365 97.9659C415.514 97.0101 415.625 96.2602 415.699 95.7162C415.773 95.1732 415.81 94.8363 415.81 94.7055L419 94.7056Z" fill="#DBA1FF"/>
<path opacity="0.1" d="M419 94.7056C418.752 101.444 416.885 106.846 413.399 110.909C409.913 114.974 405.771 117.006 400.974 117.006C397.066 117.006 393.642 115.018 390.7 111.04C387.757 107.062 386.285 100.944 386.286 92.6841C386.286 90.8584 386.335 89.1195 386.434 87.4675C386.533 85.816 386.656 84.251 386.805 82.7727L389.401 61.3195H372.265C369.298 88.4457 366.862 104.584 364.958 109.736C363.054 114.887 359.827 117.463 355.278 117.463C353.224 117.418 351.264 116.697 349.788 115.441C348.932 114.775 348.255 113.949 347.806 113.024C347.357 112.1 347.147 111.099 347.192 110.094C347.192 108.095 348.984 105.302 352.57 101.715C356.155 98.1289 358.146 94.8577 358.541 91.9017L362.992 61.3195H355.797C353.768 61.3302 351.772 61.766 349.974 62.591C348.318 63.2593 346.878 64.2788 345.782 65.5579L342.592 69.7312H339.996C342.419 63.1239 345.398 58.1573 348.935 54.8314C352.47 51.5058 356.538 49.843 361.138 49.843H417.813V61.3195H398.674C398.081 66.5361 397.623 71.7526 397.302 76.9691C396.98 82.1857 396.819 87.424 396.82 92.6841C396.82 96.2491 397.759 99.14 399.639 101.357C401.518 103.574 403.867 104.682 406.686 104.682C408.416 104.682 410.234 104.063 412.138 102.824C413.043 102.266 413.799 101.543 414.356 100.705C414.913 99.8665 415.257 98.9322 415.365 97.9659C415.514 97.0101 415.625 96.2602 415.699 95.7162C415.773 95.1732 415.81 94.8363 415.81 94.7055L419 94.7056Z" fill="black"/>
<path d="M419 92.6682C418.752 99.407 416.885 104.808 413.399 108.872C409.913 112.936 405.771 114.969 400.974 114.969C397.066 114.969 393.642 112.98 390.7 109.003C387.757 105.025 386.285 98.9064 386.286 90.6468C386.286 88.8211 386.335 87.0822 386.434 85.4302C386.533 83.7787 386.656 82.2137 386.805 80.7354L389.401 59.2822H372.265C369.298 86.4083 366.862 102.547 364.958 107.698C363.054 112.85 359.827 115.425 355.278 115.426C353.224 115.381 351.264 114.66 349.788 113.404C348.932 112.737 348.255 111.912 347.806 110.987C347.357 110.062 347.147 109.062 347.192 108.057C347.192 106.058 348.984 103.265 352.57 99.678C356.155 96.0916 358.146 92.8204 358.541 89.8644L362.992 59.2822H355.797C353.768 59.2929 351.772 59.7287 349.974 60.5537C348.318 61.222 346.878 62.2415 345.782 63.5206L342.592 67.6939H339.996C342.419 61.0866 345.398 56.12 348.935 52.7941C352.47 49.4685 356.538 47.8057 361.138 47.8057H417.813V59.2822H398.674C398.081 64.4988 397.623 69.7153 397.302 74.9319C396.98 80.1484 396.819 85.3868 396.82 90.6468C396.82 94.2118 397.759 97.1027 399.639 99.3194C401.518 101.537 403.867 102.645 406.686 102.645C408.416 102.645 410.234 102.025 412.138 100.786C413.043 100.229 413.799 99.5061 414.356 98.6677C414.913 97.8292 415.257 96.8949 415.365 95.9286C415.514 94.9729 415.625 94.223 415.699 93.679C415.773 93.1359 415.81 92.799 415.81 92.6682H419Z" fill="#DBA1FF"/>
</g>
<defs>
<clipPath id="clip0_10_1552">
<rect width="419" height="384" fill="white"/>
</clipPath>
</defs>
</svg>
