<svg width="35" height="35" viewBox="0 0 35 35" fill="none" xmlns="http://www.w3.org/2000/svg">
<path d="M29.1076 23.084L23.0555 15.2272C22.7627 14.8437 22.6041 14.3746 22.6042 13.8921V5.69917C23.0903 5.52794 23.5001 5.1902 23.7611 4.74576C24.022 4.30132 24.1173 3.77885 24.03 3.27092C23.9426 2.76297 23.6784 2.30233 23.2839 1.97057C22.8895 1.63882 22.3904 1.45736 21.875 1.45834H13.125C12.6096 1.45736 12.1105 1.63882 11.7161 1.97057C11.3216 2.30233 11.0574 2.76297 10.97 3.27092C10.8827 3.77885 10.978 4.30132 11.2389 4.74576C11.4999 5.1902 11.9097 5.52794 12.3958 5.69917V13.8921C12.3951 14.3749 12.2354 14.8441 11.9415 15.2272L5.88947 23.084C5.14926 24.0454 4.69319 25.1951 4.57293 26.4025C4.45268 27.61 4.67306 28.827 5.20909 29.9156C5.74512 31.0042 6.57537 31.9209 7.60578 32.5618C8.63609 33.2027 9.82543 33.5421 11.0388 33.5417H23.9611C25.1743 33.5416 26.3632 33.2017 27.3932 32.5606C28.4231 31.9196 29.2529 31.0028 29.7886 29.9143C30.3243 28.8258 30.5444 27.609 30.424 26.4018C30.3037 25.1946 29.8476 24.0453 29.1076 23.084ZM13.125 2.91667H21.875C22.0684 2.91667 22.2539 2.99349 22.3906 3.13024C22.5273 3.26699 22.6042 3.45245 22.6042 3.64584C22.6042 3.83922 22.5273 4.02469 22.3906 4.16143C22.2539 4.29818 22.0684 4.37501 21.875 4.37501H21.1458C20.9524 4.37501 20.7669 4.45182 20.6302 4.58857C20.4935 4.72532 20.4167 4.91078 20.4167 5.10417C20.4167 5.29756 20.4935 5.48303 20.6302 5.61977C20.7669 5.75651 20.9524 5.83334 21.1458 5.83334V13.8921C21.1479 14.6958 21.4139 15.4766 21.9027 16.1146L22.4131 16.7767H12.5869L13.0973 16.1146C13.4405 15.6638 13.6746 15.1398 13.7812 14.5833H15.3125C15.5059 14.5833 15.6914 14.5065 15.8281 14.3698C15.9648 14.233 16.0417 14.0475 16.0417 13.8542C16.0417 13.6608 15.9648 13.4753 15.8281 13.3386C15.6914 13.2019 15.5059 13.125 15.3125 13.125H13.8542V11.6667H15.3125C15.5059 11.6667 15.6914 11.5898 15.8281 11.4531C15.9648 11.3164 16.0417 11.1309 16.0417 10.9375C16.0417 10.7441 15.9648 10.5586 15.8281 10.4219C15.6914 10.2852 15.5059 10.2083 15.3125 10.2083H13.8542V8.75H15.3125C15.5059 8.75 15.6914 8.67314 15.8281 8.53643C15.9648 8.39971 16.0417 8.21421 16.0417 8.02083C16.0417 7.82746 15.9648 7.64196 15.8281 7.50524C15.6914 7.36852 15.5059 7.29167 15.3125 7.29167H13.8542V5.83334H17.5C17.6934 5.83334 17.8789 5.75651 18.0156 5.61977C18.1523 5.48303 18.2292 5.29756 18.2292 5.10417C18.2292 4.91078 18.1523 4.72532 18.0156 4.58857C17.8789 4.45182 17.6934 4.37501 17.5 4.37501H13.125C12.9316 4.37501 12.7461 4.29818 12.6094 4.16143C12.4727 4.02469 12.3958 3.83922 12.3958 3.64584C12.3958 3.45245 12.4727 3.26699 12.6094 3.13024C12.7461 2.99349 12.9316 2.91667 13.125 2.91667ZM28.5644 29.0938C28.1679 29.9835 27.5222 30.7393 26.7053 31.2699C25.8883 31.8005 24.9352 32.083 23.9611 32.0833H11.0388C10.0981 32.0833 9.17611 31.8197 8.37746 31.3224C7.5788 30.8253 6.93529 30.1144 6.51992 29.2703C6.10454 28.4261 5.93386 27.4826 6.02721 26.5464C6.12057 25.6103 6.47422 24.719 7.04811 23.9735L11.4639 18.2372H23.536L27.9519 23.9735C28.5064 24.6924 28.8561 25.5478 28.9639 26.4492C29.0718 27.3506 28.9337 28.2645 28.5644 29.0938Z" fill="#E7E7E7"/>
<path d="M22.6042 24.0625C22.0273 24.0625 21.4634 24.2336 20.9837 24.554C20.5041 24.8745 20.1303 25.3301 19.9095 25.863C19.6887 26.396 19.631 26.9824 19.7436 27.5482C19.8561 28.114 20.1339 28.6336 20.5418 29.0415C20.9497 29.4494 21.4694 29.7272 22.0351 29.8398C22.601 29.9523 23.1874 29.8946 23.7203 29.6738C24.2533 29.4531 24.7088 29.0792 25.0293 28.5996C25.3498 28.1199 25.5208 27.556 25.5208 26.9792C25.5208 26.2056 25.2136 25.4637 24.6665 24.9168C24.1196 24.3698 23.3777 24.0625 22.6042 24.0625ZM22.6042 28.4375C22.3157 28.4375 22.0338 28.352 21.794 28.1917C21.5542 28.0315 21.3672 27.8037 21.2568 27.5373C21.1465 27.2708 21.1176 26.9776 21.1738 26.6946C21.2301 26.4118 21.369 26.1519 21.573 25.948C21.7769 25.744 22.0368 25.6051 22.3196 25.5488C22.6026 25.4926 22.8958 25.5215 23.1623 25.6318C23.4287 25.7422 23.6565 25.9292 23.8167 26.169C23.977 26.4088 24.0625 26.6907 24.0625 26.9792C24.0625 27.3659 23.9089 27.7368 23.6354 28.0104C23.3618 28.2839 22.9909 28.4375 22.6042 28.4375Z" fill="#E7E7E7"/>
<path d="M16.7708 19.6875C16.3382 19.6875 15.9152 19.8158 15.5555 20.0562C15.1957 20.2965 14.9154 20.6382 14.7499 21.0378C14.5843 21.4376 14.541 21.8774 14.6253 22.3018C14.7098 22.7261 14.9181 23.1159 15.224 23.4218C15.5299 23.7277 15.9197 23.9361 16.344 24.0205C16.7684 24.1049 17.2082 24.0616 17.608 23.896C18.0076 23.7304 18.3493 23.4501 18.5897 23.0903C18.8301 22.7306 18.9583 22.3076 18.9583 21.875C18.9583 21.2949 18.7278 20.7384 18.3176 20.3282C17.9074 19.918 17.351 19.6875 16.7708 19.6875ZM16.7708 22.6042C16.6266 22.6042 16.4856 22.5614 16.3657 22.4813C16.2458 22.4012 16.1523 22.2873 16.0971 22.1541C16.0419 22.0208 16.0275 21.8742 16.0557 21.7327C16.0838 21.5913 16.1532 21.4613 16.2552 21.3594C16.3572 21.2574 16.4871 21.188 16.6286 21.1598C16.77 21.1317 16.9167 21.1461 17.0499 21.2013C17.1831 21.2565 17.297 21.35 17.3771 21.4699C17.4573 21.5898 17.5 21.7308 17.5 21.875C17.5 22.0684 17.4231 22.2539 17.2864 22.3906C17.1497 22.5273 16.9642 22.6042 16.7708 22.6042Z" fill="#E7E7E7"/>
<path d="M11.6667 24.0625C11.2341 24.0625 10.8111 24.1908 10.4514 24.4312C10.0916 24.6715 9.81126 25.0132 9.64573 25.4129C9.48014 25.8126 9.43683 26.2524 9.52119 26.6768C9.60563 27.1011 9.81395 27.4909 10.1199 27.7968C10.4258 28.1027 10.8156 28.3111 11.2399 28.3955C11.6643 28.4799 12.1041 28.4366 12.5038 28.271C12.9035 28.1054 13.2452 27.8251 13.4855 27.4653C13.7259 27.1056 13.8542 26.6826 13.8542 26.25C13.8542 25.6699 13.6237 25.1134 13.2135 24.7032C12.8032 24.293 12.2469 24.0625 11.6667 24.0625ZM11.6667 26.9792C11.5225 26.9792 11.3815 26.9364 11.2616 26.8563C11.1417 26.7762 11.0482 26.6623 10.993 26.5291C10.9378 26.3958 10.9234 26.2492 10.9515 26.1077C10.9797 25.9663 11.0491 25.8363 11.1511 25.7344C11.253 25.6324 11.383 25.563 11.5244 25.5348C11.6659 25.5067 11.8125 25.5211 11.9457 25.5763C12.079 25.6315 12.1929 25.725 12.273 25.8449C12.3531 25.9648 12.3959 26.1058 12.3959 26.25C12.3959 26.4434 12.319 26.6289 12.1823 26.7656C12.0456 26.9023 11.8601 26.9792 11.6667 26.9792Z" fill="#E7E7E7"/>
</svg>
