<svg width="64" height="59" viewBox="0 0 64 59" fill="none" xmlns="http://www.w3.org/2000/svg">
<g clip-path="url(#clip0_10_2031)">
<path d="M63.4301 30.36L58.1001 23.55C57.841 23.2462 57.519 23.0022 57.1565 22.8349C56.7939 22.6676 56.3994 22.581 56.0001 22.581C55.6008 22.581 55.2062 22.6676 54.8437 22.8349C54.4811 23.0022 54.1592 23.2462 53.9001 23.55L48.5701 30.36C48.3547 30.6358 48.1958 30.9513 48.1023 31.2885C48.0089 31.6257 47.9828 31.978 48.0255 32.3253C48.0682 32.6726 48.1789 33.008 48.3513 33.3125C48.5237 33.617 48.7543 33.8846 49.0301 34.1C49.3059 34.3154 49.6214 34.4743 49.9586 34.5677C50.2958 34.6612 50.6481 34.6873 50.9953 34.6446C51.3426 34.6019 51.6781 34.4912 51.9826 34.3188C52.2871 34.1464 52.5547 33.9158 52.7701 33.64L52.9601 33.39C52.0438 38.6997 49.3673 43.5466 45.3617 47.1505C41.356 50.7543 36.2541 52.9053 30.8774 53.2573C25.5007 53.6093 20.162 52.1417 15.7207 49.0908C11.2794 46.04 7.99389 41.5833 6.39318 36.4384C4.79247 31.2934 4.96964 25.7595 6.89618 20.7274C8.82273 15.6954 12.3865 11.4581 17.0139 8.69754C21.6413 5.93703 27.063 4.81396 32.4061 5.50915C37.7493 6.20433 42.7031 8.67732 46.4701 12.53C46.9738 12.9907 47.6349 13.241 48.3174 13.2295C49 13.2179 49.6522 12.9453 50.14 12.4677C50.6278 11.9902 50.9141 11.3439 50.9402 10.6618C50.9663 9.9796 50.73 9.31337 50.2801 8.79999C45.6222 4.03881 39.4833 1.00356 32.8721 0.192946C26.2609 -0.617672 19.5706 0.844554 13.9004 4.33938C8.23025 7.8342 3.91742 13.1538 1.67054 19.424C-0.576338 25.6943 -0.623614 32.5424 1.53648 38.8431C3.69657 45.1438 7.93555 50.5224 13.557 54.0952C19.1784 57.668 25.8478 59.2224 32.4696 58.5032C39.0913 57.7839 45.2715 54.8337 49.9947 50.1373C54.7179 45.4408 57.7032 39.2775 58.4601 32.66L59.2301 33.66C59.665 34.2169 60.3034 34.5783 61.0048 34.6646C61.7062 34.7508 62.4131 34.5549 62.9701 34.12C63.527 33.685 63.8884 33.0466 63.9747 32.3453C64.0609 31.6439 63.865 30.9369 63.4301 30.38V30.36Z" fill="#F2F2F2"/>
<path d="M29.3301 10.67C28.6255 10.6727 27.9504 10.9538 27.4522 11.4521C26.9539 11.9503 26.6728 12.6254 26.6701 13.33V29.33C26.6672 29.5395 26.6941 29.7482 26.7501 29.95C26.7901 30.1466 26.861 30.3356 26.9601 30.51C27.0289 30.6853 27.127 30.8476 27.2501 30.99C27.2501 30.99 27.3101 31.07 27.3301 31.09C27.442 31.2218 27.5696 31.3394 27.7101 31.44L27.8201 31.52L32.0001 34.67L38.4001 39.47C38.8595 39.8202 39.4226 40.0067 40.0001 40C40.5588 39.998 41.1028 39.8207 41.5554 39.4932C42.008 39.1657 42.3465 38.7044 42.5232 38.1744C42.6999 37.6444 42.7058 37.0723 42.5402 36.5387C42.3746 36.0051 42.0458 35.5369 41.6001 35.2L40.7501 34.56L37.3301 32L33.7901 29.33L32.0001 28V13.33C31.9975 12.6236 31.715 11.9471 31.2146 11.4485C30.7142 10.95 30.0365 10.67 29.3301 10.67Z" fill="#F2F2F2"/>
</g>
<defs>
<clipPath id="clip0_10_2031">
<rect width="64" height="58.67" fill="white"/>
</clipPath>
</defs>
</svg>
