<svg width="429" height="293" viewBox="0 0 429 293" fill="none" xmlns="http://www.w3.org/2000/svg">
<g clip-path="url(#clip0_3_232)">
<path d="M247.22 14.2604C250.9 21.3454 243.103 23.3523 234.171 27.1498C225.239 30.9473 218.554 35.0974 214.875 28.0124C211.195 20.9273 208.209 6.86474 220.845 1.4925C233.916 -4.06481 243.541 7.17531 247.22 14.2604Z" fill="#2F2E41"/>
<path d="M228.996 28.1939C235.637 28.1939 241.021 23.323 241.021 17.3146C241.021 11.3061 235.637 6.43523 228.996 6.43523C222.356 6.43523 216.972 11.3061 216.972 17.3146C216.972 23.323 222.356 28.1939 228.996 28.1939Z" fill="#FFB8B8"/>
<path d="M288.568 65.5622C288.152 65.0705 287.735 64.5877 287.315 64.1182C286.771 63.5069 286.224 62.9148 285.674 62.3419C279.442 55.835 272.813 51.7377 265.514 51.2992H265.504L265.396 51.2903L250.851 64.1182L245.906 68.4768L246.014 68.716L248.682 74.7269H295.432C293.325 71.5639 291.034 68.5047 288.568 65.5622Z" fill="#2F2E41"/>
<path d="M215.921 21.6946L220.225 19.8645L219.626 14.2464L222.504 18.8958L224.561 18.0211L224.211 14.7439L225.89 17.4559L241.177 10.9567C239.741 8.19228 237.151 6.05711 233.975 5.02092C230.799 3.98472 227.299 4.13238 224.243 5.43139L222.028 6.37332C218.972 7.67234 216.612 10.0163 215.467 12.8896C214.322 15.7629 214.485 18.9301 215.921 21.6946Z" fill="#2F2E41"/>
<path d="M315.543 219.172H64.4708C62.3292 219.17 60.2759 218.399 58.7615 217.029C57.2471 215.659 56.3953 213.801 56.3929 211.864V75.3665C56.3946 73.9469 57.0186 72.5859 58.1281 71.5821C59.2375 70.5782 60.7418 70.0136 62.3108 70.0119H317.601C319.197 70.0136 320.727 70.588 321.856 71.6092C322.985 72.6304 323.62 74.0149 323.621 75.4591V211.864C323.619 213.801 322.767 215.659 321.253 217.029C319.738 218.399 317.685 219.17 315.543 219.172Z" fill="#F2F2F2"/>
<path d="M72.304 211.864H307.71C309.788 211.864 311.78 211.117 313.249 209.788C314.718 208.459 315.543 206.656 315.543 204.776V88.9234C315.543 87.0438 314.718 85.2411 313.249 83.912C311.78 82.5829 309.788 81.8362 307.71 81.8362H72.304C70.2265 81.8362 68.2341 82.5829 66.7651 83.912C65.2961 85.2411 64.4708 87.0438 64.4708 88.9234V204.776C64.4708 206.656 65.2961 208.459 66.7651 209.788C68.2341 211.117 70.2265 211.864 72.304 211.864Z" fill="white"/>
<path d="M323.509 74.9484H56.2795V71.2275C56.2826 69.2833 57.1379 67.4196 58.6578 66.0453C60.1777 64.671 62.2381 63.8983 64.3869 63.8967H315.401C317.55 63.8983 319.611 64.671 321.131 66.0453C322.65 67.4196 323.506 69.2833 323.509 71.2275V74.9484Z" fill="#DBA1FF"/>
<path d="M71.0134 71.3309C72.1716 71.3309 73.1105 70.4815 73.1105 69.4336C73.1105 68.3857 72.1716 67.5362 71.0134 67.5362C69.8552 67.5362 68.9164 68.3857 68.9164 69.4336C68.9164 70.4815 69.8552 71.3309 71.0134 71.3309Z" fill="white"/>
<path d="M78.9733 71.3309C80.1314 71.3309 81.0703 70.4815 81.0703 69.4336C81.0703 68.3857 80.1314 67.5362 78.9733 67.5362C77.8151 67.5362 76.8762 68.3857 76.8762 69.4336C76.8762 70.4815 77.8151 71.3309 78.9733 71.3309Z" fill="white"/>
<path d="M86.9332 71.3309C88.0913 71.3309 89.0302 70.4815 89.0302 69.4336C89.0302 68.3857 88.0913 67.5362 86.9332 67.5362C85.775 67.5362 84.8361 68.3857 84.8361 69.4336C84.8361 70.4815 85.775 71.3309 86.9332 71.3309Z" fill="white"/>
<path d="M197.352 186.739H176.301C175.068 186.738 173.885 186.294 173.013 185.505C172.142 184.716 171.651 183.646 171.65 182.531V163.484C171.651 162.368 172.142 161.299 173.013 160.51C173.885 159.721 175.068 159.277 176.301 159.276H197.352C198.585 159.277 199.768 159.721 200.64 160.51C201.511 161.299 202.002 162.368 202.003 163.484V182.531C202.002 183.646 201.511 184.716 200.64 185.505C199.768 186.294 198.585 186.738 197.352 186.739ZM176.301 160.162C175.327 160.163 174.394 160.513 173.705 161.136C173.017 161.759 172.63 162.603 172.629 163.484V182.531C172.63 183.412 173.017 184.256 173.705 184.879C174.394 185.502 175.327 185.852 176.301 185.853H197.352C198.326 185.852 199.259 185.502 199.948 184.879C200.636 184.256 201.023 183.412 201.024 182.531V163.484C201.023 162.603 200.636 161.759 199.948 161.136C199.259 160.513 198.326 160.163 197.352 160.162H176.301Z" fill="#CCCCCC"/>
<path d="M193.191 181.423H180.462C180.073 181.423 179.699 181.283 179.424 181.034C179.149 180.785 178.994 180.447 178.993 180.095V165.92C178.994 165.568 179.149 165.23 179.424 164.981C179.699 164.732 180.073 164.592 180.462 164.591H189.685C190.02 164.592 190.344 164.695 190.605 164.884L194.111 167.433C194.283 167.557 194.421 167.715 194.516 167.894C194.611 168.074 194.66 168.27 194.66 168.469V180.095C194.659 180.447 194.504 180.785 194.229 181.034C193.954 181.283 193.58 181.423 193.191 181.423ZM180.462 165.477C180.332 165.477 180.208 165.524 180.116 165.607C180.024 165.69 179.973 165.803 179.972 165.92V180.095C179.973 180.212 180.024 180.325 180.116 180.408C180.208 180.491 180.332 180.537 180.462 180.538H193.191C193.321 180.537 193.445 180.491 193.537 180.408C193.629 180.325 193.68 180.212 193.681 180.095V168.469C193.681 168.403 193.664 168.337 193.633 168.277C193.601 168.218 193.555 168.165 193.498 168.124L189.992 165.575C189.905 165.512 189.797 165.477 189.685 165.477H180.462Z" fill="#CCCCCC"/>
<path d="M190.743 170.793H182.91C182.78 170.793 182.656 170.746 182.564 170.663C182.472 170.58 182.42 170.467 182.42 170.35C182.42 170.232 182.472 170.12 182.564 170.036C182.656 169.953 182.78 169.907 182.91 169.907H190.743C190.873 169.907 190.998 169.953 191.089 170.036C191.181 170.12 191.233 170.232 191.233 170.35C191.233 170.467 191.181 170.58 191.089 170.663C190.998 170.746 190.873 170.793 190.743 170.793Z" fill="#CCCCCC"/>
<path d="M190.743 173.45H182.91C182.78 173.45 182.656 173.404 182.564 173.321C182.472 173.238 182.42 173.125 182.42 173.007C182.42 172.89 182.472 172.777 182.564 172.694C182.656 172.611 182.78 172.564 182.91 172.564H190.743C190.873 172.564 190.998 172.611 191.089 172.694C191.181 172.777 191.233 172.89 191.233 173.007C191.233 173.125 191.181 173.238 191.089 173.321C190.998 173.404 190.873 173.45 190.743 173.45Z" fill="#CCCCCC"/>
<path d="M190.743 176.108H182.91C182.78 176.108 182.656 176.061 182.564 175.978C182.472 175.895 182.42 175.783 182.42 175.665C182.42 175.548 182.472 175.435 182.564 175.352C182.656 175.269 182.78 175.222 182.91 175.222H190.743C190.873 175.222 190.998 175.269 191.089 175.352C191.181 175.435 191.233 175.548 191.233 175.665C191.233 175.783 191.181 175.895 191.089 175.978C190.998 176.061 190.873 176.108 190.743 176.108Z" fill="#CCCCCC"/>
<path d="M247.289 186.739H226.237C225.004 186.738 223.822 186.294 222.95 185.505C222.078 184.716 221.588 183.646 221.586 182.531V163.484C221.588 162.368 222.078 161.299 222.95 160.51C223.822 159.721 225.004 159.277 226.237 159.276H247.289C248.522 159.277 249.704 159.721 250.576 160.51C251.448 161.299 251.939 162.368 251.94 163.484V182.531C251.939 183.646 251.448 184.716 250.576 185.505C249.704 186.294 248.522 186.738 247.289 186.739ZM226.237 160.162C225.264 160.163 224.33 160.513 223.642 161.136C222.954 161.759 222.567 162.603 222.565 163.484V182.531C222.567 183.412 222.954 184.256 223.642 184.879C224.33 185.502 225.264 185.852 226.237 185.853H247.289C248.262 185.852 249.196 185.502 249.884 184.879C250.572 184.256 250.96 183.412 250.961 182.531V163.484C250.96 162.603 250.572 161.759 249.884 161.136C249.196 160.513 248.262 160.163 247.289 160.162H226.237Z" fill="#CCCCCC"/>
<path d="M243.617 177.88H229.909C229.52 177.879 229.146 177.739 228.871 177.49C228.596 177.241 228.441 176.903 228.44 176.551V169.464C228.441 169.111 228.596 168.774 228.871 168.525C229.146 168.275 229.52 168.135 229.909 168.135H243.617C244.007 168.135 244.38 168.275 244.655 168.525C244.931 168.774 245.085 169.111 245.086 169.464V176.551C245.085 176.903 244.931 177.241 244.655 177.49C244.38 177.739 244.007 177.879 243.617 177.88ZM229.909 169.021C229.779 169.021 229.655 169.068 229.563 169.151C229.471 169.234 229.42 169.346 229.419 169.464V176.551C229.42 176.668 229.471 176.781 229.563 176.864C229.655 176.947 229.779 176.994 229.909 176.994H243.617C243.747 176.994 243.871 176.947 243.963 176.864C244.055 176.781 244.107 176.668 244.107 176.551V169.464C244.107 169.346 244.055 169.234 243.963 169.151C243.871 169.068 243.747 169.021 243.617 169.021H229.909Z" fill="#CCCCCC"/>
<path d="M236.763 174.176C236.488 174.176 236.218 174.107 235.985 173.975L228.67 169.839C228.56 169.777 228.482 169.678 228.453 169.563C228.424 169.449 228.447 169.329 228.515 169.229C228.584 169.13 228.694 169.059 228.82 169.033C228.947 169.006 229.079 169.026 229.189 169.088L236.504 173.224C236.582 173.268 236.672 173.291 236.763 173.291C236.855 173.291 236.945 173.268 237.023 173.224L244.337 169.088C244.447 169.026 244.58 169.006 244.706 169.033C244.832 169.059 244.942 169.13 245.011 169.229C245.079 169.329 245.102 169.449 245.073 169.563C245.044 169.678 244.966 169.777 244.856 169.839L237.542 173.975C237.308 174.107 237.038 174.176 236.763 174.176Z" fill="#CCCCCC"/>
<path d="M147.416 186.739H126.364C125.131 186.738 123.949 186.294 123.077 185.505C122.205 184.716 121.715 183.646 121.713 182.531V163.484C121.715 162.368 122.205 161.299 123.077 160.51C123.949 159.721 125.131 159.277 126.364 159.276H147.416C148.649 159.277 149.831 159.721 150.703 160.51C151.575 161.299 152.065 162.368 152.067 163.484V182.531C152.065 183.646 151.575 184.716 150.703 185.505C149.831 186.294 148.649 186.738 147.416 186.739ZM126.364 160.162C125.391 160.163 124.457 160.513 123.769 161.136C123.081 161.759 122.693 162.603 122.692 163.484V182.531C122.693 183.412 123.081 184.256 123.769 184.879C124.457 185.502 125.391 185.852 126.364 185.853H147.416C148.389 185.852 149.323 185.502 150.011 184.879C150.699 184.256 151.087 183.412 151.088 182.531V163.484C151.087 162.603 150.699 161.759 150.011 161.136C149.323 160.513 148.389 160.163 147.416 160.162H126.364Z" fill="#CCCCCC"/>
<path d="M143.744 177.88H130.036C129.647 177.879 129.273 177.739 128.998 177.49C128.723 177.241 128.568 176.903 128.567 176.551V169.464C128.568 169.111 128.723 168.774 128.998 168.525C129.273 168.275 129.647 168.135 130.036 168.135H143.744C144.133 168.135 144.507 168.275 144.782 168.525C145.057 168.774 145.212 169.111 145.213 169.464V176.551C145.212 176.903 145.057 177.241 144.782 177.49C144.507 177.739 144.133 177.879 143.744 177.88ZM130.036 169.021C129.906 169.021 129.782 169.068 129.69 169.151C129.598 169.234 129.546 169.346 129.546 169.464V176.551C129.546 176.668 129.598 176.781 129.69 176.864C129.782 176.947 129.906 176.994 130.036 176.994H143.744C143.874 176.994 143.998 176.947 144.09 176.864C144.182 176.781 144.233 176.668 144.234 176.551V169.464C144.233 169.346 144.182 169.234 144.09 169.151C143.998 169.068 143.874 169.021 143.744 169.021H130.036Z" fill="#CCCCCC"/>
<path d="M141.571 177.88H131.719C131.547 177.88 131.378 177.839 131.229 177.761C131.081 177.684 130.957 177.572 130.871 177.437C130.785 177.302 130.74 177.149 130.74 176.994C130.74 176.838 130.785 176.686 130.871 176.551L133.839 171.9C133.925 171.765 134.048 171.654 134.197 171.576C134.346 171.498 134.515 171.457 134.687 171.457C134.859 171.457 135.028 171.498 135.176 171.576C135.325 171.654 135.449 171.765 135.535 171.9L137.451 174.904L138.562 173.164C138.648 173.029 138.771 172.917 138.92 172.839C139.069 172.762 139.238 172.721 139.41 172.721C139.582 172.721 139.751 172.762 139.899 172.839C140.048 172.917 140.172 173.029 140.258 173.164L142.419 176.551C142.505 176.686 142.551 176.838 142.551 176.994C142.551 177.15 142.505 177.302 142.419 177.437C142.333 177.572 142.21 177.683 142.061 177.761C141.912 177.839 141.743 177.88 141.571 177.88H141.571ZM141.571 176.994L139.41 173.606L137.876 176.011C137.833 176.079 137.771 176.134 137.696 176.173C137.622 176.212 137.537 176.233 137.452 176.233C137.366 176.233 137.281 176.212 137.207 176.173C137.132 176.134 137.07 176.079 137.027 176.011L134.687 172.343L131.719 176.994H141.571Z" fill="#CCCCCC"/>
<path d="M142.275 171.678C142.816 171.678 143.254 171.282 143.254 170.793C143.254 170.303 142.816 169.907 142.275 169.907C141.734 169.907 141.296 170.303 141.296 170.793C141.296 171.282 141.734 171.678 142.275 171.678Z" fill="#CCCCCC"/>
<path d="M376.397 287.099L370.395 287.098L367.539 266.152L376.398 266.152L376.397 287.099Z" fill="#FFB8B8"/>
<path d="M377.927 292.363L358.574 292.362V292.14C358.574 291.245 358.769 290.359 359.148 289.532C359.526 288.705 360.081 287.954 360.781 287.321C361.48 286.688 362.311 286.186 363.225 285.844C364.138 285.501 365.118 285.325 366.107 285.325H366.108L377.928 285.326L377.927 292.363Z" fill="#2F2E41"/>
<path d="M400.876 287.099L394.873 287.098L392.018 266.152L400.877 266.152L400.876 287.099Z" fill="#FFB8B8"/>
<path d="M402.406 292.363L383.053 292.362V292.14C383.053 291.245 383.248 290.359 383.626 289.532C384.005 288.705 384.56 287.954 385.259 287.321C385.959 286.688 386.789 286.186 387.703 285.844C388.617 285.501 389.597 285.325 390.586 285.325H390.586L402.407 285.326L402.406 292.363Z" fill="#2F2E41"/>
<path d="M399.076 278.018L393.517 276.488C393.103 276.375 392.735 276.153 392.459 275.851C392.184 275.549 392.013 275.18 391.968 274.79L386.785 230.351C386.781 230.297 386.754 230.247 386.711 230.21C386.668 230.173 386.61 230.153 386.551 230.153C386.491 230.148 386.432 230.164 386.385 230.198C386.338 230.231 386.308 230.28 386.301 230.334L377.62 273.389C377.567 273.65 377.458 273.899 377.297 274.121C377.136 274.343 376.928 274.534 376.685 274.683C376.442 274.831 376.168 274.935 375.88 274.986C375.592 275.038 375.296 275.037 375.008 274.983L367.904 273.659C367.383 273.56 366.919 273.295 366.597 272.911C366.274 272.528 366.116 272.052 366.15 271.572L371.431 201.004L407.237 197.509L401.916 276.233C401.882 276.739 401.636 277.214 401.228 277.562C400.82 277.91 400.281 278.104 399.721 278.105C399.503 278.105 399.285 278.076 399.076 278.018Z" fill="#2F2E41"/>
<path d="M399.042 139.551C405.683 139.551 411.067 134.68 411.067 128.671C411.067 122.663 405.683 117.792 399.042 117.792C392.401 117.792 387.018 122.663 387.018 128.671C387.018 134.68 392.401 139.551 399.042 139.551Z" fill="#FFB8B8"/>
<path d="M371.376 201.419L379.139 157.189C379.552 154.838 380.514 152.593 381.96 150.603C383.407 148.614 385.305 146.927 387.528 145.653C389.751 144.379 392.249 143.548 394.855 143.215C397.461 142.883 400.115 143.056 402.641 143.724C407.058 144.88 410.84 147.484 413.248 151.027C415.656 154.571 416.518 158.799 415.665 162.887L407.542 202.386L371.376 201.419Z" fill="#DBA1FF"/>
<path d="M402.362 209.332C402.962 208.973 403.469 208.5 403.845 207.945C404.222 207.39 404.459 206.767 404.541 206.12C404.622 205.473 404.546 204.818 404.317 204.2C404.089 203.583 403.713 203.018 403.217 202.546L411.244 188.482L402.204 189.355L395.968 202.577C395.147 203.383 394.681 204.434 394.659 205.53C394.637 206.626 395.06 207.691 395.848 208.524C396.636 209.357 397.735 209.899 398.935 210.048C400.136 210.197 401.355 209.942 402.362 209.332V209.332Z" fill="#FFB8B8"/>
<path d="M404.081 200.065C403.637 200.009 403.222 199.831 402.893 199.556L399.822 196.988C399.49 196.709 399.261 196.345 399.165 195.945C399.069 195.544 399.112 195.127 399.287 194.749L405.425 181.586L404.554 155.576C404.679 154.74 404.986 153.934 405.455 153.205C405.925 152.476 406.548 151.838 407.29 151.327C408.033 150.816 408.879 150.443 409.781 150.228C410.683 150.013 411.622 149.961 412.546 150.075C413.47 150.189 414.36 150.467 415.166 150.892C415.971 151.318 416.676 151.883 417.24 152.555C417.804 153.227 418.216 153.993 418.452 154.809C418.689 155.625 418.745 156.475 418.618 157.311L420.107 173.662C420.56 178.624 419.005 183.566 415.731 187.569L406.159 199.277C405.975 199.502 405.741 199.69 405.471 199.827C405.202 199.965 404.903 200.05 404.595 200.076C404.424 200.091 404.251 200.087 404.081 200.065Z" fill="#DBA1FF"/>
<path d="M329.797 122.744C329.928 123.384 330.213 123.991 330.631 124.521C331.049 125.051 331.591 125.491 332.217 125.812C332.844 126.132 333.541 126.324 334.258 126.374C334.976 126.424 335.697 126.332 336.37 126.102L347.555 138.274L350.191 130.402L339.166 120.05C338.666 119.052 337.778 118.254 336.671 117.809C335.563 117.363 334.314 117.3 333.159 117.632C332.004 117.964 331.024 118.668 330.405 119.61C329.785 120.552 329.569 121.667 329.797 122.744Z" fill="#FFB8B8"/>
<path d="M338.559 127.789C338.789 127.441 339.132 127.165 339.541 126.998L343.351 125.44C343.764 125.273 344.224 125.224 344.669 125.3C345.114 125.377 345.522 125.575 345.838 125.868L356.843 136.114L383.655 145.53C384.458 145.96 385.158 146.529 385.717 147.205C386.277 147.88 386.683 148.649 386.914 149.466C387.144 150.284 387.195 151.135 387.062 151.97C386.929 152.805 386.615 153.609 386.139 154.334C385.662 155.06 385.032 155.693 384.285 156.198C383.538 156.703 382.688 157.07 381.784 157.278C380.88 157.486 379.94 157.53 379.017 157.409C378.094 157.287 377.206 157.003 376.405 156.571L359.183 151.436C353.956 149.879 349.533 146.656 346.735 142.368L338.551 129.828C338.393 129.587 338.294 129.319 338.259 129.04C338.224 128.762 338.254 128.48 338.347 128.213C338.399 128.065 338.47 127.923 338.559 127.789Z" fill="#DBA1FF"/>
<path opacity="0.1" d="M408.795 166.395L408.306 180.57L399.287 194.749L406.818 178.948L408.795 166.395Z" fill="black"/>
<path d="M397.665 130.716C396.909 130.805 396.144 130.643 395.511 130.26C394.878 129.876 394.42 129.299 394.223 128.633C394.032 127.867 393.615 127.163 393.015 126.595C392.416 126.028 391.657 125.618 390.82 125.411C388.614 124.955 385.918 125.895 384.302 124.383C383.956 124.037 383.705 123.623 383.571 123.173C383.437 122.723 383.423 122.251 383.531 121.795C383.828 120.325 384.99 119.215 386.254 118.328C388.915 116.468 392.134 115.379 395.49 115.204C397.228 115.159 398.966 115.237 400.69 115.438C402.495 115.542 404.28 115.837 406.009 116.318C407.978 116.99 409.728 118.101 411.097 119.547C412.467 120.993 413.411 122.729 413.843 124.592C414.238 126.462 414.177 128.387 413.665 130.233C413.153 132.079 412.201 133.802 410.877 135.281C409.292 137.067 407.248 138.475 404.924 139.382C404.37 139.619 403.736 139.648 403.158 139.463C401.711 138.942 401.947 137.32 402.607 136.237C403.314 135.079 404.401 133.958 403.833 132.548C403.548 131.895 403.001 131.362 402.302 131.057C400.862 130.393 399.252 130.55 397.705 130.712L397.665 130.716Z" fill="#2F2E41"/>
<path d="M325.779 136.86H176.948C174.807 136.858 172.753 136.087 171.239 134.717C169.725 133.346 168.873 131.489 168.87 129.551V100.759C168.873 98.8215 169.725 96.9638 171.239 95.5936C172.753 94.2234 174.807 93.4527 176.948 93.4505H325.779C327.921 93.4528 329.974 94.2235 331.488 95.5937C333.003 96.9638 333.854 98.8215 333.857 100.759V129.551C333.854 131.489 333.003 133.346 331.488 134.717C329.974 136.087 327.921 136.857 325.779 136.86Z" fill="white"/>
<path d="M325.779 137.081H176.948C174.742 137.079 172.626 136.285 171.066 134.873C169.506 133.462 168.628 131.548 168.626 129.551V100.759C168.628 98.7629 169.506 96.8488 171.066 95.4371C172.626 94.0255 174.742 93.2314 176.948 93.2291H325.779C327.985 93.2314 330.101 94.0255 331.661 95.4371C333.221 96.8488 334.099 98.7629 334.102 100.759V129.551C334.099 131.548 333.221 133.462 331.661 134.873C330.101 136.285 327.985 137.079 325.779 137.081ZM176.948 94.115C175.001 94.117 173.135 94.8177 171.758 96.0633C170.381 97.3089 169.607 98.9977 169.605 100.759V129.551C169.607 131.313 170.381 133.002 171.758 134.247C173.135 135.493 175.001 136.193 176.948 136.195H325.779C327.726 136.193 329.592 135.493 330.969 134.247C332.346 133.002 333.12 131.313 333.122 129.551V100.759C333.12 98.9977 332.346 97.3089 330.969 96.0633C329.592 94.8177 327.726 94.117 325.779 94.115H176.948Z" fill="#3F3D56"/>
<path d="M307.665 129.773H195.063C192.921 129.77 190.868 129 189.353 127.629C187.839 126.259 186.987 124.402 186.985 122.464V107.404C186.987 105.466 187.839 103.608 189.353 102.238C190.868 100.868 192.921 100.097 195.063 100.095H307.665C309.806 100.097 311.86 100.868 313.374 102.238C314.888 103.608 315.74 105.466 315.743 107.404V122.464C315.74 124.402 314.888 126.259 313.374 127.629C311.86 129 309.806 129.77 307.665 129.773Z" fill="#F2F2F2"/>
<path d="M219.294 121.655C224.629 121.655 228.954 117.742 228.954 112.915C228.954 108.088 224.629 104.174 219.294 104.174C213.959 104.174 209.634 108.088 209.634 112.915C209.634 117.742 213.959 121.655 219.294 121.655Z" fill="#FF6584"/>
<path d="M300.667 128.891L287.031 118.543L273.631 108.375C273.277 108.106 272.83 107.96 272.369 107.961C271.907 107.961 271.461 108.11 271.108 108.379L257.751 118.594L254.488 121.09L249.569 117.357L234.619 106.012C234.265 105.744 233.818 105.597 233.357 105.598C232.895 105.599 232.449 105.747 232.096 106.017L217.195 117.413L202.059 128.989C201.982 129.048 201.927 129.126 201.901 129.214C201.876 129.302 201.88 129.395 201.915 129.48C201.95 129.565 202.012 129.639 202.095 129.691C202.177 129.743 202.275 129.77 202.376 129.77L233.408 129.716L243.231 129.699L243.135 129.773L272.415 129.722L300.354 129.673C300.454 129.673 300.552 129.645 300.634 129.592C300.716 129.54 300.779 129.466 300.813 129.381C300.847 129.296 300.852 129.203 300.825 129.115C300.799 129.027 300.744 128.949 300.667 128.891Z" fill="#3F3D56"/>
<path d="M428.51 293H334.512C334.382 293 334.258 292.953 334.166 292.87C334.074 292.787 334.023 292.675 334.023 292.557C334.023 292.44 334.074 292.327 334.166 292.244C334.258 292.161 334.382 292.114 334.512 292.114H428.51C428.64 292.114 428.765 292.161 428.857 292.244C428.948 292.327 429 292.44 429 292.557C429 292.675 428.948 292.787 428.857 292.87C428.765 292.953 428.64 293 428.51 293Z" fill="#CCCCCC"/>
<path d="M295.73 58.4307C295.339 57.8558 294.823 57.359 294.213 56.9706C293.602 56.5822 292.911 56.3103 292.181 56.1716C291.913 56.1207 291.642 56.0896 291.368 56.0786L254.067 25.9048C253.335 25.2234 252.357 24.8009 251.311 24.7132C251.105 24.6918 250.897 24.6859 250.689 24.6955C249.829 24.7309 248.998 24.9924 248.299 25.448C247.6 25.9037 247.063 26.5337 246.754 27.2612C246.444 27.9886 246.376 28.7818 246.556 29.5439C246.737 30.306 247.159 31.004 247.772 31.5524L262.052 42.8166L285.503 61.3098C285.522 61.6581 285.58 62.0039 285.674 62.3419C285.955 63.3212 286.558 64.2002 287.404 64.8624C288.249 65.5245 289.297 65.9385 290.409 66.0494C291.422 66.1566 292.449 66.003 293.371 65.6065C294.101 65.2972 294.749 64.8484 295.27 64.2909C295.324 64.2333 295.373 64.1802 295.422 64.1182C296.106 63.311 296.503 62.3342 296.558 61.318C296.613 60.3018 296.324 59.2946 295.73 58.4307H295.73Z" fill="#FFB8B8"/>
<path d="M231.929 87.5104L231.581 74.7268L231.288 64.1182L231.087 56.6943L230.69 42.2231C230.612 41.4483 230.286 40.7109 229.752 40.101C229.218 39.4911 228.499 39.035 227.684 38.7884C226.868 38.5418 225.991 38.5153 225.159 38.7123C224.327 38.9093 223.577 39.3212 222.999 39.8976C222.863 40.0293 222.74 40.1716 222.632 40.3229C222.029 41.1039 221.758 42.0554 221.868 43.0027L222.74 64.1182L223.175 74.7268L223.733 88.259C223.572 88.4578 223.427 88.6665 223.298 88.8836C222.95 89.4809 222.739 90.136 222.68 90.8091C222.62 91.4822 222.712 92.1593 222.95 92.7993C223.199 93.4704 223.602 94.0862 224.133 94.6061C224.664 95.126 225.31 95.5383 226.03 95.8158C226.75 96.0933 227.526 96.2296 228.308 96.2158C229.091 96.2021 229.861 96.0386 230.568 95.736C231.389 95.3846 232.103 94.8555 232.644 94.1955C233.186 93.5355 233.54 92.7649 233.675 91.9519C233.809 91.1388 233.72 90.3082 233.416 89.5336C233.111 88.759 232.601 88.0641 231.929 87.5104H231.929Z" fill="#FFB8B8"/>
<path d="M265.514 51.2992L262.052 42.8167L256.452 29.0763C256.048 28.0766 255.4 27.172 254.557 26.4297C253.713 25.6875 252.696 25.1265 251.58 24.7886C251.492 24.762 251.399 24.7354 251.311 24.7132C250.231 24.4164 249.092 24.3348 247.973 24.474C246.854 24.6131 245.781 24.9698 244.829 25.5194L225.966 36.3451C224.238 37.3343 223.004 38.8923 222.522 40.69C222.041 42.4878 222.35 44.3844 223.386 45.9793C225.745 49.6699 228.315 53.2464 231.087 56.6943C233.285 59.4007 237.378 59.6886 238.088 64.1181H251.997L266.077 52.6812L265.514 51.2992Z" fill="#CCCCCC"/>
<path d="M49.5276 154.968C55.7929 154.968 60.8718 150.373 60.8718 144.704C60.8718 139.036 55.7929 134.44 49.5276 134.44C43.2623 134.44 38.1833 139.036 38.1833 144.704C38.1833 150.373 43.2623 154.968 49.5276 154.968Z" fill="#A0616A"/>
<path d="M77.3779 137.639C77.4896 137.72 77.598 137.805 77.7029 137.895C78.2241 138.339 78.6356 138.878 78.9105 139.476C79.1855 140.074 79.3176 140.718 79.2984 141.366C79.2791 142.013 79.1088 142.65 78.7987 143.234C78.4885 143.817 78.0455 144.335 77.4987 144.754C77.3713 144.85 77.2383 144.941 77.1003 145.025L77.8681 168.477C77.8899 169.245 77.6376 169.999 77.1486 170.626C76.6596 171.254 75.9599 171.722 75.1534 171.962L75.1066 171.971L54.0604 173.999C53.4883 174.054 52.9097 174.006 52.3581 173.858C51.8066 173.709 51.293 173.463 50.847 173.134C50.401 172.805 50.0315 172.4 49.7597 171.941C49.488 171.482 49.3194 170.979 49.2637 170.461C49.208 169.943 49.2663 169.42 49.4353 168.922C49.6043 168.424 49.8805 167.962 50.2481 167.561C50.6157 167.161 51.0674 166.83 51.577 166.588C52.0866 166.347 52.6441 166.199 53.2173 166.153L68.22 164.958L70.8145 144.648C70.6448 144.512 70.4859 144.365 70.3389 144.209C69.5254 143.338 69.0987 142.225 69.1417 141.085C69.1848 139.945 69.6944 138.861 70.5717 138.042C71.449 137.223 72.6313 136.728 73.889 136.654C75.1468 136.579 76.3902 136.931 77.3779 137.639H77.3779Z" fill="#A0616A"/>
<path d="M68.2114 287.552H73.8743L76.5679 267.791H68.2104L68.2114 287.552Z" fill="#A0616A"/>
<path d="M66.7672 285.88L77.9188 285.879H77.9192C78.8525 285.879 79.7766 286.045 80.6388 286.369C81.5011 286.692 82.2845 287.165 82.9444 287.762C83.6044 288.359 84.1278 289.068 84.485 289.848C84.8421 290.628 85.0259 291.465 85.0259 292.309V292.518L66.7676 292.519L66.7672 285.88Z" fill="#2F2E41"/>
<path d="M11.929 280.469L16.7943 283.09L30.2836 267.357L23.1025 263.489L11.929 280.469Z" fill="#A0616A"/>
<path d="M11.6337 278.363L21.2155 283.525L21.2159 283.525C22.0178 283.957 22.7178 284.527 23.2759 285.204C23.834 285.881 24.2393 286.651 24.4687 287.469C24.6981 288.287 24.7471 289.139 24.6128 289.974C24.4785 290.81 24.1637 291.614 23.6862 292.339L23.568 292.519L7.87988 284.067L11.6337 278.363Z" fill="#2F2E41"/>
<path d="M75.2103 280.572H68.8695C68.3561 280.573 67.8606 280.402 67.4788 280.091C67.0971 279.78 66.8562 279.353 66.8028 278.891L60.4103 224.524C60.3942 224.387 60.3287 224.259 60.224 224.159C60.1194 224.059 59.9813 223.993 59.8311 223.972C59.6809 223.95 59.527 223.973 59.393 224.038C59.259 224.104 59.1525 224.207 59.0898 224.332L47.5577 247.436L27.1407 277.558C26.8765 277.944 26.4673 278.231 25.9882 278.367C25.5091 278.502 24.9921 278.477 24.5318 278.296L16.3754 275.049C16.1057 274.941 15.8643 274.783 15.6673 274.585C15.4703 274.387 15.322 274.153 15.2325 273.899C15.1429 273.645 15.114 273.377 15.1478 273.112C15.1815 272.847 15.2771 272.592 15.4282 272.363L34.197 243.929L39.9533 219.972C38.1428 209.582 45.9041 194.136 45.9828 193.981L46.0212 193.906L67.3997 186.345L67.5069 186.464C75.938 211.497 81.0755 238.437 77.2821 278.85C77.2353 279.318 76.9972 279.755 76.6141 280.073C76.2311 280.392 75.7306 280.57 75.2103 280.572Z" fill="#2F2E41"/>
<path d="M45.1599 196.437L45.0604 196.248C45.0128 196.157 40.2591 187.086 36.5946 177.391C35.8904 175.516 35.6241 173.529 35.8128 171.556C36.0015 169.583 36.6409 167.668 37.6906 165.93C38.7539 164.174 40.2087 162.638 41.9626 161.418C43.7166 160.197 45.7316 159.32 47.8799 158.841C51.6095 158.032 55.5361 158.462 58.9443 160.053C62.3526 161.645 65.0156 164.291 66.4484 167.509C69.3551 174.086 68.4287 181.105 67.5569 186.626L67.5395 186.736L67.4283 186.785L45.1599 196.437Z" fill="#3F3D56"/>
<path d="M63.2822 138.906H45.2689V131.802C49.2226 130.381 53.0915 129.172 55.4302 131.802C57.5127 131.802 59.5098 132.551 60.9824 133.883C62.4549 135.215 63.2822 137.022 63.2822 138.906V138.906Z" fill="#2F2E41"/>
<path d="M44.2715 130.548C33.5028 130.548 30.4887 142.761 30.4887 149.651C30.4887 153.493 32.4093 154.868 35.4273 155.333L36.4931 150.19L38.9895 155.554C39.8372 155.558 40.7278 155.543 41.6511 155.527L42.4976 153.951L44.385 155.499C51.9444 155.509 58.0542 156.506 58.0542 149.651C58.0542 142.761 55.4108 130.548 44.2715 130.548Z" fill="#2F2E41"/>
<path d="M94.4878 293H0.489574C0.359731 293 0.235206 292.953 0.143393 292.87C0.0515796 292.787 0 292.675 0 292.557C0 292.44 0.0515796 292.327 0.143393 292.244C0.235206 292.161 0.359731 292.114 0.489574 292.114H94.4878C94.6177 292.114 94.7422 292.161 94.834 292.244C94.9258 292.327 94.9774 292.44 94.9774 292.557C94.9774 292.675 94.9258 292.787 94.834 292.87C94.7422 292.953 94.6177 293 94.4878 293Z" fill="#CCCCCC"/>
<path d="M96.2553 147.269H75.2036C73.9705 147.268 72.7884 146.824 71.9164 146.035C71.0445 145.246 70.554 144.177 70.5526 143.061V124.014C70.554 122.899 71.0445 121.829 71.9164 121.04C72.7884 120.251 73.9705 119.807 75.2036 119.806H96.2553C97.4884 119.807 98.6705 120.251 99.5425 121.04C100.414 121.829 100.905 122.899 100.906 124.014V143.061C100.905 144.177 100.414 145.246 99.5425 146.035C98.6705 146.824 97.4884 147.268 96.2553 147.269Z" fill="white"/>
<path d="M96.2553 147.269H75.2036C73.9705 147.268 72.7884 146.824 71.9164 146.035C71.0445 145.246 70.554 144.177 70.5526 143.061V124.014C70.554 122.899 71.0445 121.829 71.9164 121.04C72.7884 120.251 73.9705 119.807 75.2036 119.806H96.2553C97.4884 119.807 98.6705 120.251 99.5425 121.04C100.414 121.829 100.905 122.899 100.906 124.014V143.061C100.905 144.177 100.414 145.246 99.5425 146.035C98.6705 146.824 97.4884 147.268 96.2553 147.269ZM75.2036 120.692C74.2301 120.693 73.2968 121.043 72.6084 121.666C71.9201 122.289 71.5329 123.133 71.5318 124.014V143.061C71.5329 143.942 71.9201 144.786 72.6084 145.409C73.2968 146.032 74.2301 146.382 75.2036 146.383H96.2553C97.2288 146.382 98.1621 146.032 98.8505 145.409C99.5388 144.786 99.926 143.942 99.9271 143.061V124.014C99.926 123.133 99.5388 122.289 98.8505 121.666C98.1621 121.043 97.2288 120.693 96.2553 120.692H75.2036Z" fill="#3F3D56"/>
<path d="M92.5835 139.517H78.8754C78.486 139.517 78.1127 139.377 77.8373 139.128C77.562 138.879 77.4071 138.541 77.4067 138.189V128.887C77.4071 128.534 77.562 128.197 77.8373 127.947C78.1127 127.698 78.486 127.558 78.8754 127.558H82.7344C82.9854 127.557 83.2324 127.615 83.4515 127.725C83.6706 127.836 83.8545 127.996 83.9853 128.19L85.0615 129.773H92.5835C92.9729 129.773 93.3462 129.913 93.6216 130.162C93.8969 130.411 94.0518 130.749 94.0522 131.101V138.189C94.0518 138.541 93.8969 138.879 93.6216 139.128C93.3462 139.377 92.9729 139.517 92.5835 139.517Z" fill="#DBA1FF"/>
<path d="M92.1376 144.217C92.2061 144.33 92.2694 144.447 92.3274 144.567C92.6172 145.159 92.7654 145.8 92.7623 146.448C92.7592 147.096 92.6048 147.736 92.3094 148.326C92.0139 148.916 91.5839 149.443 91.0477 149.872C90.5114 150.301 89.881 150.623 89.1977 150.816C89.0387 150.861 88.8772 150.898 88.714 150.927L79.3634 172.811C79.0543 173.526 78.4985 174.132 77.7786 174.539C77.0586 174.946 76.2129 175.132 75.3669 175.069L75.3199 175.061L55.0531 169.541C54.5021 169.391 53.9894 169.144 53.5447 168.813C53.0999 168.483 52.7319 168.076 52.4619 167.616C52.1919 167.156 52.0253 166.653 51.9716 166.134C51.9179 165.616 51.9783 165.093 52.1492 164.596C52.3202 164.099 52.5982 163.637 52.9674 163.238C53.3367 162.839 53.7896 162.509 54.3003 162.269C54.8109 162.029 55.369 161.883 55.9424 161.839C56.5158 161.795 57.0932 161.855 57.6411 162.014L71.9809 166.179L83.0826 148.372C82.9845 148.187 82.9009 147.996 82.8323 147.801C82.4563 146.712 82.5407 145.536 83.0691 144.501C83.5976 143.466 84.5325 142.645 85.6922 142.198C86.8519 141.752 88.1536 141.711 89.3447 142.084C90.5358 142.457 91.5312 143.217 92.1376 144.217H92.1376Z" fill="#A0616A"/>
</g>
<defs>
<clipPath id="clip0_3_232">
<rect width="429" height="293" fill="white"/>
</clipPath>
</defs>
</svg>
