<svg width="708" height="400" viewBox="0 0 708 400" fill="none" xmlns="http://www.w3.org/2000/svg">
<g clip-path="url(#clip0_4_2)">
<path d="M44.8451 334.068L42.6367 345.665C42.4703 346.551 42.2964 347.454 42.1073 348.348C40.2615 347.948 38.3477 348.06 36.556 348.673C37.9775 350.799 39.2514 353.029 40.3678 355.346C38.9762 359.835 36.9342 363.983 33.5157 366.983C31.2325 368.942 28.5056 370.253 25.5978 370.788C22.6901 371.323 19.6996 371.065 16.9148 370.039L17.0131 369.579C13.3375 362.115 15.3341 352.702 19.9022 345.807C22.2321 342.406 24.9927 339.351 28.1081 336.727C31.1938 334.036 34.5291 331.621 37.8342 329.239C38.5765 328.704 39.4541 328.414 40.355 328.404C41.2558 328.395 42.139 328.666 42.8915 329.185C43.6441 329.703 44.2319 330.444 44.5799 331.314C44.9279 332.184 45.0202 333.143 44.8451 334.068Z" fill="#E4E4E4"/>
<path d="M17.7013 397.943C16.7718 390.856 15.8158 383.678 16.4677 376.515C17.0471 370.153 18.9008 363.94 22.6762 358.845C24.6801 356.146 27.1184 353.833 29.8815 352.011C30.6023 351.536 31.2648 352.731 30.5479 353.204C25.7671 356.366 22.0693 361.036 19.9876 366.54C17.6884 372.661 17.3193 379.334 17.7187 385.835C17.9584 389.767 18.4659 393.672 18.9779 397.575C19.0191 397.751 18.9943 397.938 18.9086 398.096C18.8228 398.254 18.6826 398.372 18.5166 398.425C18.3477 398.473 18.1677 398.449 18.0156 398.358C17.8635 398.268 17.7516 398.118 17.7043 397.942L17.7013 397.943Z" fill="#F2F2F2"/>
<path d="M25.6783 42.4574C58.0763 41.8678 90.4778 41.7831 122.883 42.2033C155.283 42.6261 187.672 43.556 220.051 44.9931C238.22 45.7996 256.382 46.7658 274.536 47.8916C275.994 47.9819 275.989 45.6068 274.536 45.5168C242.189 43.5133 209.82 42.0143 177.426 41.0195C145.037 40.0275 112.639 39.5427 80.2311 39.5651C62.0459 39.5778 43.8616 39.7503 25.6783 40.0826C24.2199 40.1092 24.2153 42.4841 25.6783 42.4575V42.4574Z" fill="#E6E6E6"/>
<path d="M251.462 27.5665L265.629 26.4629C267.076 26.3502 267.088 23.9744 265.629 24.0881L251.462 25.1917C250.015 25.3044 250.003 27.6802 251.462 27.5665Z" fill="#E6E6E6"/>
<path d="M251.462 41.8156L265.629 40.712C267.076 40.5993 267.088 38.2235 265.629 38.3372L251.462 39.4408C250.015 39.5535 250.003 41.9293 251.462 41.8156Z" fill="#E6E6E6"/>
<path d="M250.396 35.3084L270.538 37.2237C271.992 37.3619 271.983 34.9862 270.538 34.8488L250.396 32.9335C248.943 32.7953 248.952 35.171 250.396 35.3084Z" fill="#E6E6E6"/>
<path d="M34.0623 24.3727C33.0772 24.3664 32.112 24.6636 31.2872 25.2275C30.4623 25.7913 29.8143 26.5968 29.4238 27.5436C28.987 28.4702 28.8522 29.521 29.0399 30.5354C29.2277 31.5498 29.7277 32.4719 30.4634 33.1607C31.1551 33.7767 31.9847 34.199 32.8747 34.3883C33.7647 34.5775 34.686 34.5275 35.5524 34.2428C36.4386 33.9189 37.207 33.3154 37.752 32.5155C38.2969 31.7156 38.5915 30.7585 38.5953 29.776C38.6349 28.6861 38.3528 27.6098 37.7874 26.6935C37.2219 25.7773 36.4006 25.0655 35.4351 24.6551C35.145 24.5726 34.8355 24.6135 34.5741 24.7688C34.3127 24.9242 34.1205 25.1814 34.0396 25.4844C33.968 25.7878 34.0103 26.1083 34.1577 26.38C34.3051 26.6517 34.5464 26.854 34.8319 26.9451C35.0296 27.025 34.6513 26.8434 34.8359 26.9486C34.9118 26.9919 34.9891 27.031 35.0637 27.0772C35.127 27.1165 35.1877 27.1595 35.2493 27.2016C35.4611 27.3463 35.146 27.0954 35.2813 27.2255C35.3987 27.3383 35.515 27.4483 35.6217 27.5728C35.6621 27.6198 35.8201 27.7506 35.6973 27.6592C35.6033 27.5892 35.661 27.6057 35.6972 27.6619C35.7247 27.7045 35.7538 27.746 35.7809 27.7889C35.8694 27.929 35.9498 28.0745 36.0217 28.2245C36.0384 28.2593 36.0536 28.2948 36.0706 28.3294C36.1024 28.3941 36.1484 28.4111 36.0737 28.33C36.0024 28.2525 36.0478 28.2578 36.0733 28.3324C36.0901 28.3814 36.1084 28.4298 36.1248 28.479C36.178 28.6392 36.2226 28.8023 36.2585 28.9677C36.2751 29.0441 36.2885 29.121 36.3028 29.1979C36.3535 29.4706 36.2954 29.0284 36.3077 29.2309C36.3179 29.4 36.3298 29.5673 36.327 29.7371C36.3257 29.8148 36.3225 29.8924 36.3173 29.97C36.3147 30.0086 36.3106 30.0472 36.3082 30.0858C36.2964 30.2722 36.296 30.0178 36.3209 30.0003C36.2691 30.1585 36.2347 30.3224 36.2184 30.4888C36.1981 30.5626 36.1739 30.6348 36.1513 30.7078C36.0724 30.9626 36.2255 30.5689 36.1413 30.7431C36.0721 30.8926 35.9947 31.0379 35.9096 31.1782C35.8726 31.237 35.7332 31.3697 35.8472 31.2773C35.9709 31.1771 35.7823 31.3497 35.7421 31.3941C35.6904 31.4512 35.6368 31.5062 35.5812 31.5593C35.5456 31.5957 35.5081 31.6298 35.4687 31.6617C35.4615 31.6579 35.6583 31.5241 35.5522 31.5949C35.4174 31.6849 35.2898 31.7812 35.1477 31.8595C35.1312 31.8686 34.9496 31.9567 34.9503 31.9598C34.9425 31.9278 35.1838 31.8709 35.0181 31.9269C34.9834 31.9387 34.9492 31.9529 34.9146 31.9651C34.7638 32.0182 34.6098 32.0612 34.4537 32.0936C34.418 32.101 34.3802 32.1048 34.345 32.1144C34.2277 32.1461 34.4571 32.0957 34.464 32.0999C34.3773 32.096 34.2905 32.104 34.2058 32.1238C34.0448 32.1335 33.8835 32.1334 33.7225 32.1238C33.6853 32.1215 33.6481 32.1176 33.6109 32.1154C33.5244 32.1101 33.461 32.0449 33.576 32.1157C33.6648 32.1703 33.6574 32.1305 33.5788 32.1153C33.542 32.1081 33.5051 32.1022 33.4683 32.0949C33.309 32.0637 33.1514 32.0233 32.9964 31.9739C32.9129 31.9473 32.8312 31.9164 32.7488 31.8863C32.713 31.8754 32.6781 31.8613 32.6445 31.8442C32.644 31.8344 32.8566 31.9506 32.7444 31.8872C32.6026 31.8073 32.4561 31.7403 32.3177 31.6529C32.2439 31.6063 32.173 31.5556 32.1012 31.5057C32.0696 31.4858 32.0396 31.4633 32.0114 31.4384C32.0138 31.4284 32.1873 31.5966 32.0962 31.5058C31.981 31.3909 31.8578 31.288 31.7487 31.1657C31.7237 31.1377 31.7001 31.1084 31.6753 31.0804L31.6512 31.0516C31.5897 30.9729 31.5886 30.9733 31.6478 31.0527C31.7079 31.0712 31.7052 31.1403 31.6481 31.0506C31.6278 31.0186 31.6062 30.9876 31.5859 30.9556C31.4937 30.8182 31.4152 30.6713 31.3514 30.5173C31.3569 30.5128 31.4497 30.803 31.3787 30.584C31.3653 30.5426 31.3503 30.5019 31.3371 30.4604C31.3111 30.3782 31.2881 30.295 31.2683 30.2109C31.2487 30.1276 31.2386 30.0417 31.2189 29.9587C31.1855 29.8188 31.2383 30.069 31.2323 30.0628C31.2134 30.0432 31.2215 29.922 31.22 29.8929C31.211 29.7066 31.2313 29.5258 31.2344 29.3406C31.2369 29.1971 31.2231 29.4524 31.2202 29.4449C31.2209 29.4019 31.2282 29.3593 31.2418 29.3188C31.2623 29.2211 31.2814 29.1235 31.3065 29.0269C31.3353 28.9163 31.3685 28.8071 31.406 28.6992C31.42 28.6588 31.437 28.6191 31.4501 28.5784C31.4978 28.4292 31.3555 28.7584 31.434 28.624C31.5419 28.439 31.6223 28.2388 31.7369 28.0561C31.7641 28.0128 31.9292 27.7716 31.8415 27.8934C31.7543 28.0147 31.9312 27.7847 31.9647 27.7457C32.1039 27.5835 32.2675 27.4504 32.4116 27.2951C32.4969 27.2031 32.3521 27.3403 32.3435 27.3467C32.3881 27.3133 32.4318 27.2787 32.477 27.2461C32.5558 27.1893 32.6365 27.1356 32.7191 27.085C32.8122 27.0278 32.9174 26.9853 33.0076 26.9249C33.1142 26.8535 32.9261 26.9562 32.9227 26.9584C32.9714 26.9331 33.0223 26.9128 33.0747 26.8978C33.1626 26.8652 33.5446 26.6926 33.6248 26.7466C33.6211 26.7441 33.3347 26.7707 33.5662 26.7551C33.621 26.7514 33.6755 26.7459 33.7303 26.7435C33.8411 26.7387 33.9516 26.7416 34.0624 26.7476C34.3626 26.7455 34.65 26.6198 34.8624 26.3975C35.0747 26.1753 35.1948 25.8745 35.1968 25.5602C35.1904 25.2474 35.0688 24.9492 34.8574 24.728C34.6461 24.5067 34.3612 24.3795 34.0624 24.3728L34.0623 24.3727Z" fill="#E6E6E6"/>
<path d="M49.9447 24.3727C48.9595 24.3664 47.9944 24.6636 47.1695 25.2275C46.3447 25.7913 45.6966 26.5968 45.3062 27.5436C44.8694 28.4702 44.7345 29.521 44.9223 30.5354C45.11 31.5498 45.61 32.4719 46.3458 33.1607C47.0375 33.7767 47.8671 34.199 48.7571 34.3883C49.6471 34.5775 50.5683 34.5275 51.4348 34.2428C52.321 33.9189 53.0894 33.3154 53.6343 32.5155C54.1793 31.7156 54.4739 30.7585 54.4777 29.776C54.5173 28.6861 54.2352 27.6098 53.6697 26.6935C53.1043 25.7773 52.283 25.0655 51.3175 24.6551C51.0274 24.5726 50.7179 24.6135 50.4565 24.7688C50.1951 24.9242 50.0029 25.1814 49.9219 25.4844C49.8504 25.7878 49.8927 26.1083 50.0401 26.38C50.1874 26.6517 50.4288 26.854 50.7143 26.9451C50.912 27.025 50.5337 26.8434 50.7183 26.9486C50.7942 26.9919 50.8715 27.031 50.9461 27.0772C51.0094 27.1165 51.0701 27.1595 51.1317 27.2016C51.3435 27.3463 51.0284 27.0954 51.1637 27.2255C51.2811 27.3383 51.3974 27.4483 51.5041 27.5728C51.5444 27.6198 51.7025 27.7506 51.5797 27.6592C51.4857 27.5892 51.5434 27.6057 51.5796 27.6619C51.6071 27.7045 51.6362 27.746 51.6633 27.7889C51.7518 27.929 51.8322 28.0745 51.9041 28.2245C51.9208 28.2593 51.936 28.2948 51.953 28.3294C51.9847 28.3941 52.0308 28.4111 51.9561 28.33C51.8847 28.2525 51.9302 28.2578 51.9557 28.3324C51.9725 28.3814 51.9908 28.4298 52.0071 28.479C52.0603 28.6392 52.105 28.8023 52.1409 28.9677C52.1575 29.0441 52.1709 29.121 52.1852 29.1979C52.2359 29.4706 52.1778 29.0284 52.1901 29.2309C52.2003 29.4 52.2122 29.5673 52.2094 29.7371C52.2081 29.8148 52.2049 29.8924 52.1997 29.97C52.1971 30.0086 52.193 30.0472 52.1905 30.0858C52.1788 30.2722 52.1784 30.0178 52.2033 30.0003C52.1515 30.1585 52.1171 30.3224 52.1008 30.4888C52.0805 30.5626 52.0563 30.6348 52.0337 30.7078C51.9548 30.9626 52.1078 30.5689 52.0237 30.7431C51.9545 30.8926 51.8771 31.0379 51.7919 31.1782C51.755 31.237 51.6156 31.3697 51.7296 31.2773C51.8533 31.1771 51.6647 31.3497 51.6245 31.3941C51.5728 31.4512 51.5192 31.5062 51.4636 31.5593C51.428 31.5957 51.3905 31.6298 51.3511 31.6617C51.3439 31.6579 51.5406 31.5241 51.4346 31.5949C51.2998 31.6849 51.1722 31.7812 51.0301 31.8595C51.0136 31.8686 50.8319 31.9567 50.8327 31.9598C50.8249 31.9278 51.0662 31.8709 50.9005 31.9269C50.8657 31.9387 50.8316 31.9529 50.797 31.9651C50.6461 32.0182 50.4922 32.0612 50.3361 32.0936C50.3004 32.101 50.2626 32.1048 50.2274 32.1144C50.1101 32.1461 50.3395 32.0957 50.3463 32.0999C50.2597 32.096 50.1729 32.104 50.0882 32.1238C49.9272 32.1335 49.7659 32.1334 49.6049 32.1238C49.5676 32.1215 49.5305 32.1176 49.4933 32.1154C49.4068 32.1101 49.3434 32.0449 49.4584 32.1157C49.5472 32.1703 49.5398 32.1305 49.4612 32.1153C49.4244 32.1081 49.3874 32.1022 49.3507 32.0949C49.1914 32.0637 49.0338 32.0233 48.8787 31.9739C48.7953 31.9473 48.7135 31.9164 48.6312 31.8863C48.5954 31.8754 48.5604 31.8613 48.5269 31.8442C48.5264 31.8344 48.739 31.9506 48.6267 31.8872C48.485 31.8073 48.3385 31.7403 48.2001 31.6529C48.1263 31.6063 48.0553 31.5556 47.9836 31.5057C47.952 31.4858 47.922 31.4633 47.8938 31.4384C47.8961 31.4284 48.0696 31.5966 47.9786 31.5058C47.8634 31.3909 47.7402 31.288 47.6311 31.1657C47.6061 31.1377 47.5825 31.1084 47.5576 31.0804L47.5336 31.0516C47.4721 30.9729 47.4709 30.9733 47.5302 31.0527C47.5903 31.0712 47.5875 31.1403 47.5305 31.0506C47.5102 31.0186 47.4886 30.9876 47.4683 30.9556C47.3761 30.8182 47.2976 30.6713 47.2338 30.5173C47.2393 30.5128 47.3321 30.803 47.2611 30.584C47.2477 30.5426 47.2327 30.5019 47.2195 30.4604C47.1935 30.3782 47.1705 30.295 47.1507 30.2109C47.1311 30.1276 47.121 30.0417 47.1013 29.9587C47.0679 29.8188 47.1207 30.069 47.1147 30.0628C47.0958 30.0432 47.1038 29.922 47.1024 29.8929C47.0934 29.7066 47.1136 29.5258 47.1168 29.3406C47.1193 29.1971 47.1055 29.4524 47.1026 29.4449C47.1033 29.4019 47.1106 29.3593 47.1241 29.3188C47.1447 29.2211 47.1638 29.1235 47.1889 29.0269C47.2177 28.9163 47.2508 28.8071 47.2883 28.6992C47.3024 28.6588 47.3194 28.6191 47.3325 28.5784C47.3802 28.4292 47.2379 28.7584 47.3164 28.624C47.4243 28.439 47.5047 28.2388 47.6193 28.0561C47.6464 28.0128 47.8115 27.7716 47.7239 27.8934C47.6367 28.0147 47.8136 27.7847 47.8471 27.7457C47.9863 27.5835 48.1499 27.4504 48.294 27.2951C48.3793 27.2031 48.2344 27.3403 48.2259 27.3467C48.2705 27.3133 48.3142 27.2787 48.3594 27.2461C48.4382 27.1893 48.5189 27.1356 48.6015 27.085C48.6945 27.0278 48.7998 26.9853 48.89 26.9249C48.9965 26.8535 48.8085 26.9562 48.8051 26.9584C48.8538 26.9331 48.9047 26.9128 48.9571 26.8978C49.0449 26.8652 49.427 26.6926 49.5071 26.7466C49.5035 26.7441 49.217 26.7707 49.4486 26.7551C49.5033 26.7514 49.5578 26.7459 49.6127 26.7435C49.7235 26.7387 49.834 26.7416 49.9447 26.7476C50.245 26.7455 50.5324 26.6198 50.7448 26.3975C50.9571 26.1753 51.0772 25.8745 51.0792 25.5602C51.0728 25.2474 50.9512 24.9492 50.7398 24.728C50.5284 24.5067 50.2436 24.3795 49.9447 24.3728L49.9447 24.3727Z" fill="#E6E6E6"/>
<path d="M65.8271 24.3727C64.8419 24.3664 63.8768 24.6636 63.0519 25.2275C62.2271 25.7913 61.579 26.5968 61.1886 27.5436C60.7518 28.4702 60.6169 29.521 60.8047 30.5354C60.9924 31.5498 61.4924 32.4719 62.2282 33.1607C62.9199 33.7767 63.7495 34.199 64.6395 34.3883C65.5294 34.5775 66.4507 34.5275 67.3172 34.2428C68.2034 33.9189 68.9718 33.3154 69.5167 32.5155C70.0617 31.7156 70.3563 30.7585 70.3601 29.776C70.3997 28.6861 70.1176 27.6098 69.5521 26.6935C68.9867 25.7773 68.1654 25.0655 67.1999 24.6551C66.9098 24.5726 66.6003 24.6135 66.3389 24.7688C66.0775 24.9242 65.8853 25.1814 65.8043 25.4844C65.7328 25.7878 65.7751 26.1083 65.9224 26.38C66.0698 26.6517 66.3111 26.854 66.5967 26.9451C66.7944 27.025 66.4161 26.8434 66.6007 26.9486C66.6766 26.9919 66.7539 27.031 66.8284 27.0772C66.8918 27.1165 66.9525 27.1595 67.0141 27.2016C67.2259 27.3463 66.9107 27.0954 67.0461 27.2255C67.1635 27.3383 67.2798 27.4483 67.3865 27.5728C67.4268 27.6198 67.5849 27.7506 67.4621 27.6592C67.3681 27.5892 67.4258 27.6057 67.462 27.6619C67.4895 27.7045 67.5186 27.746 67.5457 27.7889C67.6342 27.929 67.7146 28.0745 67.7865 28.2245C67.8032 28.2593 67.8184 28.2948 67.8354 28.3294C67.8671 28.3941 67.9132 28.4111 67.8385 28.33C67.7671 28.2525 67.8126 28.2578 67.8381 28.3324C67.8549 28.3814 67.8732 28.4298 67.8895 28.479C67.9427 28.6392 67.9874 28.8023 68.0233 28.9677C68.0399 29.0441 68.0533 29.121 68.0676 29.1979C68.1182 29.4706 68.0602 29.0284 68.0724 29.2309C68.0827 29.4 68.0946 29.5673 68.0918 29.7371C68.0905 29.8148 68.0873 29.8924 68.0821 29.97C68.0795 30.0086 68.0754 30.0472 68.0729 30.0858C68.0612 30.2722 68.0608 30.0178 68.0857 30.0003C68.0339 30.1585 67.9994 30.3224 67.9832 30.4888C67.9629 30.5626 67.9387 30.6348 67.9161 30.7078C67.8372 30.9626 67.9902 30.5689 67.9061 30.7431C67.8369 30.8926 67.7595 31.0379 67.6743 31.1782C67.6374 31.237 67.498 31.3697 67.612 31.2773C67.7356 31.1771 67.5471 31.3497 67.5069 31.3941C67.4552 31.4512 67.4016 31.5062 67.346 31.5593C67.3104 31.5957 67.2729 31.6298 67.2335 31.6617C67.2263 31.6579 67.423 31.5241 67.317 31.5949C67.1822 31.6849 67.0546 31.7812 66.9125 31.8595C66.8959 31.8686 66.7143 31.9567 66.7151 31.9598C66.7073 31.9278 66.9486 31.8709 66.7829 31.9269C66.7481 31.9387 66.714 31.9529 66.6793 31.9651C66.5285 32.0182 66.3746 32.0612 66.2185 32.0936C66.1828 32.101 66.145 32.1048 66.1098 32.1144C65.9925 32.1461 66.2218 32.0957 66.2287 32.0999C66.1421 32.096 66.0552 32.104 65.9706 32.1238C65.8096 32.1335 65.6482 32.1334 65.4873 32.1238C65.45 32.1215 65.4129 32.1176 65.3757 32.1154C65.2892 32.1101 65.2258 32.0449 65.3408 32.1157C65.4296 32.1703 65.4222 32.1305 65.3435 32.1153C65.3068 32.1081 65.2698 32.1022 65.2331 32.0949C65.0737 32.0637 64.9162 32.0233 64.7611 31.9739C64.6777 31.9473 64.5959 31.9164 64.5136 31.8863C64.4777 31.8754 64.4428 31.8613 64.4092 31.8442C64.4087 31.8344 64.6214 31.9506 64.5091 31.8872C64.3674 31.8073 64.2209 31.7403 64.0825 31.6529C64.0087 31.6063 63.9377 31.5556 63.8659 31.5057C63.8344 31.4858 63.8043 31.4633 63.7762 31.4384C63.7785 31.4284 63.952 31.5966 63.861 31.5058C63.7458 31.3909 63.6226 31.288 63.5135 31.1657C63.4885 31.1377 63.4649 31.1084 63.44 31.0804L63.416 31.0516C63.3545 30.9729 63.3533 30.9733 63.4125 31.0527C63.4727 31.0712 63.4699 31.1403 63.4129 31.0506C63.3926 31.0186 63.3709 30.9876 63.3507 30.9556C63.2585 30.8182 63.18 30.6713 63.1162 30.5173C63.1217 30.5128 63.2144 30.803 63.1435 30.584C63.1301 30.5426 63.115 30.5019 63.1019 30.4604C63.0759 30.3782 63.0529 30.295 63.0331 30.2109C63.0135 30.1276 63.0034 30.0417 62.9836 29.9587C62.9503 29.8188 63.0031 30.069 62.9971 30.0628C62.9782 30.0432 62.9862 29.922 62.9848 29.8929C62.9757 29.7066 62.996 29.5258 62.9992 29.3406C63.0017 29.1971 62.9879 29.4524 62.985 29.4449C62.9857 29.4019 62.993 29.3593 63.0065 29.3188C63.0271 29.2211 63.0462 29.1235 63.0713 29.0269C63.1001 28.9163 63.1332 28.8071 63.1707 28.6992C63.1847 28.6588 63.2018 28.6191 63.2149 28.5784C63.2626 28.4292 63.1203 28.7584 63.1988 28.624C63.3067 28.439 63.3871 28.2388 63.5017 28.0561C63.5288 28.0128 63.6939 27.7716 63.6063 27.8934C63.519 28.0147 63.696 27.7847 63.7295 27.7457C63.8687 27.5835 64.0323 27.4504 64.1764 27.2951C64.2616 27.2031 64.1168 27.3403 64.1083 27.3467C64.1529 27.3133 64.1966 27.2787 64.2418 27.2461C64.3205 27.1893 64.4012 27.1356 64.4839 27.085C64.5769 27.0278 64.6822 26.9853 64.7724 26.9249C64.8789 26.8535 64.6909 26.9562 64.6875 26.9584C64.7362 26.9331 64.7871 26.9128 64.8395 26.8978C64.9273 26.8652 65.3094 26.6926 65.3895 26.7466C65.3859 26.7441 65.0994 26.7707 65.331 26.7551C65.3857 26.7514 65.4402 26.7459 65.495 26.7435C65.6059 26.7387 65.7164 26.7416 65.8271 26.7476C66.1274 26.7455 66.4148 26.6198 66.6271 26.3975C66.8395 26.1753 66.9596 25.8745 66.9616 25.5602C66.9552 25.2474 66.8336 24.9492 66.6222 24.728C66.4108 24.5067 66.126 24.3795 65.8271 24.3728L65.8271 24.3727Z" fill="#E6E6E6"/>
<path d="M295.27 287.356H17.0213C13.5029 287.352 10.1296 285.888 7.64162 283.284C5.15364 280.679 3.75415 277.149 3.75019 273.466V13.8908C3.75414 10.208 5.15361 6.6772 7.64157 4.07307C10.1295 1.46894 13.5028 0.00412973 17.0213 0H295.27C298.788 0.00412973 302.161 1.46894 304.649 4.07307C307.137 6.6772 308.537 10.208 308.541 13.8908V273.466C308.537 277.149 307.137 280.679 304.649 283.284C302.161 285.888 298.788 287.352 295.27 287.356ZM17.0213 1.58323C13.9039 1.58694 10.9151 2.88482 8.71071 5.19213C6.50633 7.49943 5.26635 10.6277 5.2628 13.8908V273.466C5.26643 276.729 6.50645 279.857 8.71083 282.164C10.9152 284.472 13.9039 285.769 17.0213 285.773H295.27C298.387 285.769 301.376 284.472 303.58 282.164C305.784 279.857 307.025 276.729 307.028 273.466V13.8908C307.025 10.6277 305.785 7.49943 303.58 5.19213C301.376 2.88482 298.387 1.58695 295.27 1.58323H17.0213Z" fill="#E6E6E6"/>
<path d="M16.5603 176.614L114.41 176.303L211.761 175.993L266.677 175.818C266.971 175.807 267.25 175.677 267.454 175.456C267.659 175.234 267.773 174.938 267.773 174.63C267.773 174.322 267.659 174.026 267.454 173.805C267.25 173.583 266.971 173.454 266.677 173.443L168.827 173.754L71.4762 174.064L16.5603 174.239C16.2663 174.25 15.9876 174.38 15.7832 174.601C15.5788 174.823 15.4645 175.119 15.4645 175.427C15.4645 175.735 15.5788 176.031 15.7832 176.252C15.9876 176.474 16.2663 176.603 16.5603 176.614Z" fill="#E6E6E6"/>
<path d="M65.9241 174.689L66.5291 137.295C66.5539 135.766 64.285 135.766 64.2602 137.295L63.6552 174.689C63.6304 176.218 65.8994 176.218 65.9241 174.689Z" fill="#E6E6E6"/>
<path d="M112.69 175.093L114.165 128.092L114.586 114.663C114.634 113.134 112.365 113.136 112.317 114.663L110.843 161.664L110.421 175.093C110.374 176.622 112.642 176.62 112.69 175.093Z" fill="#E6E6E6"/>
<path d="M159.33 92.3825C158.441 109.03 156.795 158.134 155.906 174.782C155.824 176.309 158.094 176.304 158.175 174.782C159.064 158.134 160.71 109.03 161.599 92.3825C161.681 90.8555 159.412 90.8604 159.33 92.3825Z" fill="#E6E6E6"/>
<path d="M205.746 158.077L205.468 174.078C205.441 175.607 207.71 175.607 207.737 174.078C208.065 155.18 208.908 155.796 209 150.462C209.027 148.933 206.758 148.933 206.732 150.462C206.732 150.462 206.075 139.179 205.746 158.077Z" fill="#E6E6E6"/>
<path d="M251.209 116.042L251.466 160.933L251.539 173.788C251.549 174.095 251.673 174.387 251.885 174.601C252.096 174.815 252.379 174.935 252.674 174.935C252.968 174.935 253.251 174.815 253.462 174.601C253.674 174.387 253.798 174.095 253.808 173.788L253.551 128.896L253.478 116.042C253.468 115.734 253.344 115.442 253.132 115.228C252.92 115.014 252.638 114.895 252.343 114.895C252.049 114.895 251.766 115.014 251.555 115.228C251.343 115.442 251.219 115.734 251.209 116.042Z" fill="#E6E6E6"/>
<path d="M16.7428 175.278C14.8647 169.876 19.0983 164.681 23.4484 162.346C28.6601 159.549 34.6555 158.915 39.9224 156.219C47.7746 152.199 53.4938 144.984 58.5829 137.763C63.8209 130.33 68.6136 122.353 75.2694 116.178C78.7767 112.851 82.919 110.342 87.4222 108.816C93.0962 106.963 99.1138 106.836 104.977 107.583C117.092 109.126 128.322 114.363 140.012 117.692C151.033 120.831 163.176 122.595 173.993 117.715C179.489 115.236 183.983 111.077 188.811 107.478C193.482 103.959 198.706 101.321 204.245 99.6851C215.104 96.5245 226.963 97.3684 237.073 102.711C246.366 107.56 253.724 115.688 257.848 125.662C262.641 137.646 262.017 151.038 260.452 163.652C260.047 166.912 259.565 170.162 259.078 173.41C258.854 174.905 261.04 175.549 261.266 174.041C263.216 161.034 265.16 147.615 262.734 134.527C260.636 123.098 254.632 112.861 245.845 105.73C237.02 98.5809 226.05 94.9572 214.903 95.5096C209.062 95.7934 203.312 97.132 197.906 99.4664C192.295 101.896 187.543 105.497 182.717 109.285C177.754 113.181 172.639 116.403 166.478 117.674C160.502 118.906 154.285 118.444 148.336 117.28C136.059 114.88 124.616 109.376 112.444 106.556C101.166 103.944 88.9962 103.683 78.8973 110.351C71.129 115.481 65.6398 123.444 60.3718 131.134C55.15 138.757 49.8622 146.907 42.2265 152.114C37.5687 155.291 32.3327 156.463 27.1221 158.249C21.8981 160.04 16.883 163.061 14.7529 168.663C13.8349 170.97 13.7644 173.551 14.5549 175.909C15.0503 177.334 17.2438 176.719 16.7428 175.278V175.278Z" fill="#E6E6E6"/>
<path d="M65.1714 132.125L65.1685 132.126L65.1744 132.125H65.1714Z" fill="#E6E6E6"/>
<path d="M69.1054 129.94C68.581 128.968 67.7445 128.222 66.7443 127.835C65.7441 127.447 64.6451 127.443 63.6425 127.824C63.1441 128.014 62.6873 128.307 62.299 128.686C61.9107 129.064 61.5988 129.52 61.3819 130.027C61.3384 130.135 61.3131 130.248 61.2776 130.358C61.2284 130.442 61.1693 130.517 61.1253 130.604C60.6551 131.584 60.5263 132.706 60.7612 133.776C60.9961 134.845 61.58 135.795 62.4122 136.463C63.2445 137.13 64.273 137.473 65.3207 137.432C66.3684 137.391 67.3696 136.969 68.152 136.238C68.9742 135.46 69.5172 134.411 69.6907 133.265C69.8642 132.119 69.6576 130.946 69.1054 129.94ZM66.2638 131.957C66.2731 132.017 66.2697 132.072 66.2638 131.957V131.957ZM65.9749 131.269C65.9638 131.256 65.9652 131.257 65.9749 131.269V131.269ZM64.7018 131.805C64.6848 131.778 64.6831 131.773 64.7018 131.805V131.805ZM65.0036 132.073C65.0754 132.099 65.047 132.093 65.0036 132.073V132.073ZM65.1383 132.14L65.1682 132.126C65.1609 132.127 65.1536 132.125 65.1471 132.121L65.1479 132.121L65.1713 132.124L65.1757 132.122L65.1622 132.119C65.1739 132.119 65.1753 132.12 65.176 132.122C65.311 132.057 65.2196 132.089 65.1414 132.114L65.1362 132.113C65.0873 132.087 65.0348 132.069 64.9806 132.06C64.9756 132.058 64.9697 132.055 64.9655 132.052C64.922 132.02 64.7025 131.84 64.9062 132.029C64.8618 131.988 64.818 131.947 64.7764 131.903C64.7518 131.877 64.7295 131.848 64.7098 131.818C64.6831 131.77 64.6572 131.721 64.6321 131.672L64.6283 131.646C64.625 131.624 64.6225 131.615 64.6197 131.602C64.621 131.588 64.6231 131.574 64.6251 131.56C64.6403 131.517 64.65 131.472 64.6539 131.427L64.6627 131.415C64.6953 131.368 64.7238 131.312 64.7549 131.263C64.5905 131.524 64.8192 131.234 64.8363 131.197C64.8392 131.191 64.8341 131.194 64.8354 131.19C64.842 131.186 64.84 131.189 64.848 131.184C64.899 131.152 64.9473 131.117 64.999 131.087C65.0606 131.052 65.3034 130.979 65.0516 131.055C65.1088 131.038 65.1637 131.016 65.2215 131C65.232 130.997 65.3167 130.985 65.3624 130.976C65.4025 130.975 65.4414 130.974 65.4455 130.974C65.4643 130.974 65.4831 130.977 65.502 130.978C65.4602 130.983 65.6454 131.025 65.7003 131.034C65.7083 131.041 65.7123 131.045 65.7231 131.053C65.7696 131.089 65.8262 131.12 65.8752 131.154C65.6558 131.005 65.8781 131.165 65.92 131.209C65.9451 131.235 65.9682 131.263 65.9918 131.291C66.0134 131.317 66.0329 131.345 66.0502 131.375C66.0862 131.444 66.1244 131.514 66.1622 131.582L66.1727 131.599C66.1725 131.601 66.1724 131.603 66.1724 131.606C66.1921 131.716 66.2212 131.824 66.2593 131.929C66.2611 131.937 66.2626 131.946 66.2635 131.955C66.2671 132.016 66.2719 132.076 66.272 132.136L66.2715 132.149C66.0968 132.053 65.9029 132.003 65.7059 132.001C65.5089 132 65.3143 132.047 65.1383 132.14H65.1383Z" fill="#E6E6E6"/>
<path d="M65.1787 132.123C65.183 132.124 65.1789 132.124 65.1779 132.125L65.1787 132.123Z" fill="#E6E6E6"/>
<path d="M65.1777 132.123L65.1788 132.123L65.1777 132.123Z" fill="#E6E6E6"/>
<path d="M65.178 132.124L65.1745 132.125C65.1789 132.125 65.1773 132.125 65.178 132.124Z" fill="#E6E6E6"/>
<path d="M65.176 132.122L65.178 132.123L65.176 132.122Z" fill="#E6E6E6"/>
<path d="M113.575 109.959L113.572 109.961L113.578 109.959H113.575Z" fill="#E6E6E6"/>
<path d="M117.509 107.775C116.985 106.803 116.148 106.057 115.148 105.669C114.148 105.282 113.049 105.278 112.046 105.659C111.548 105.849 111.091 106.142 110.702 106.521C110.314 106.899 110.002 107.355 109.785 107.862C109.742 107.969 109.717 108.083 109.681 108.193C109.632 108.276 109.573 108.351 109.529 108.438C109.059 109.419 108.93 110.541 109.165 111.61C109.4 112.68 109.983 113.63 110.816 114.298C111.648 114.965 112.676 115.308 113.724 115.267C114.772 115.226 115.773 114.804 116.555 114.073C117.378 113.295 117.921 112.246 118.094 111.1C118.268 109.954 118.061 108.781 117.509 107.775ZM114.667 109.792C114.677 109.852 114.673 109.907 114.667 109.792V109.792ZM114.378 109.104C114.367 109.091 114.369 109.092 114.378 109.104V109.104ZM113.105 109.64C113.088 109.613 113.087 109.608 113.105 109.64V109.64ZM113.407 109.908C113.479 109.933 113.45 109.928 113.407 109.908V109.908ZM113.542 109.975L113.572 109.961C113.564 109.961 113.557 109.96 113.55 109.956L113.551 109.956L113.575 109.959L113.579 109.957L113.566 109.954C113.577 109.953 113.579 109.955 113.579 109.957C113.714 109.892 113.623 109.923 113.545 109.949L113.54 109.947C113.491 109.922 113.438 109.904 113.384 109.895C113.379 109.892 113.373 109.89 113.369 109.887C113.325 109.855 113.106 109.675 113.31 109.863C113.265 109.822 113.221 109.782 113.18 109.738C113.155 109.712 113.133 109.683 113.113 109.652C113.086 109.604 113.061 109.556 113.035 109.507L113.032 109.481C113.028 109.459 113.026 109.45 113.023 109.437C113.024 109.423 113.027 109.409 113.029 109.394C113.044 109.352 113.053 109.307 113.057 109.262L113.066 109.25C113.099 109.202 113.127 109.147 113.158 109.097C112.994 109.359 113.223 109.069 113.24 109.032C113.243 109.026 113.238 109.029 113.239 109.025C113.245 109.021 113.243 109.023 113.251 109.019C113.302 108.987 113.351 108.952 113.402 108.922C113.464 108.886 113.707 108.814 113.455 108.889C113.512 108.872 113.567 108.851 113.625 108.835C113.635 108.832 113.72 108.82 113.766 108.811C113.806 108.81 113.845 108.809 113.849 108.809C113.868 108.809 113.887 108.812 113.905 108.812C113.864 108.818 114.049 108.86 114.104 108.869C114.112 108.875 114.116 108.88 114.127 108.888C114.173 108.924 114.23 108.955 114.279 108.988C114.059 108.84 114.282 109 114.323 109.044C114.349 109.07 114.372 109.098 114.395 109.126C114.417 109.152 114.436 109.18 114.454 109.21C114.49 109.279 114.528 109.348 114.566 109.416L114.576 109.434C114.576 109.436 114.576 109.438 114.576 109.441C114.596 109.551 114.625 109.659 114.663 109.763C114.665 109.772 114.666 109.781 114.667 109.79C114.67 109.85 114.675 109.911 114.675 109.971L114.675 109.983C114.5 109.888 114.306 109.838 114.109 109.836C113.912 109.835 113.718 109.882 113.542 109.975Z" fill="#E6E6E6"/>
<path d="M113.581 109.959L113.578 109.96C113.582 109.96 113.581 109.959 113.581 109.959Z" fill="#E6E6E6"/>
<path d="M113.579 109.957L113.581 109.958L113.579 109.957Z" fill="#E6E6E6"/>
<path d="M113.582 109.958C113.586 109.959 113.582 109.959 113.581 109.959L113.582 109.958Z" fill="#E6E6E6"/>
<path d="M113.581 109.958L113.582 109.958L113.581 109.958Z" fill="#E6E6E6"/>
<path d="M160.47 121.04L160.472 121.041L160.47 121.04Z" fill="#E6E6E6"/>
<path d="M164.4 85.6096C163.875 84.6376 163.039 83.8917 162.039 83.5042C161.038 83.1168 159.939 83.1129 158.937 83.4934C158.438 83.6838 157.982 83.9769 157.593 84.3553C157.205 84.7337 156.893 85.1898 156.676 85.6966C156.633 85.8043 156.607 85.9175 156.572 86.0279C156.523 86.1111 156.464 86.1862 156.42 86.2732C155.949 87.254 155.821 88.3758 156.056 89.4452C156.29 90.5147 156.874 91.465 157.707 92.1323C158.539 92.7997 159.567 93.1424 160.615 93.1015C161.663 93.0605 162.664 92.6384 163.446 91.9079C164.269 91.1299 164.812 90.0807 164.985 88.9349C165.158 87.789 164.952 86.6156 164.4 85.6096ZM161.558 87.6264C161.567 87.6863 161.564 87.7414 161.558 87.6264V87.6264ZM161.269 86.9389C161.258 86.9255 161.26 86.927 161.269 86.9389V86.9389ZM159.996 87.4747C159.979 87.4473 159.977 87.4427 159.996 87.4747V87.4747ZM160.298 87.7425C160.37 87.7682 160.341 87.7628 160.298 87.7425V87.7425ZM160.433 87.8098L160.463 87.7954C160.455 87.7961 160.448 87.7946 160.441 87.7911L160.442 87.7909L160.466 87.7939L160.47 87.7918L160.456 87.7886C160.468 87.7881 160.47 87.7898 160.47 87.7917C160.605 87.727 160.514 87.7582 160.436 87.7835L160.43 87.7823C160.382 87.7563 160.329 87.7387 160.275 87.73C160.27 87.7271 160.264 87.725 160.26 87.7218C160.216 87.6894 159.997 87.5099 160.2 87.6981C160.156 87.6572 160.112 87.6169 160.071 87.5727C160.046 87.5463 160.024 87.5176 160.004 87.4871C159.977 87.4391 159.951 87.3907 159.926 87.3419L159.923 87.3156C159.919 87.2937 159.917 87.2846 159.914 87.2715C159.915 87.2579 159.917 87.2433 159.919 87.2291C159.935 87.1864 159.944 87.1418 159.948 87.0964L159.957 87.0848C159.99 87.0372 160.018 86.9817 160.049 86.9322C159.885 87.1936 160.113 86.9034 160.131 86.8666C160.133 86.8603 160.128 86.8638 160.13 86.8594C160.136 86.8555 160.134 86.8582 160.142 86.8533C160.193 86.8219 160.242 86.7868 160.293 86.7568C160.355 86.7211 160.598 86.649 160.346 86.7243C160.403 86.7072 160.458 86.6856 160.516 86.6698C160.526 86.6669 160.611 86.6545 160.657 86.6459C160.697 86.6448 160.736 86.6436 160.74 86.6436C160.759 86.6439 160.777 86.6463 160.796 86.6472C160.754 86.653 160.94 86.6949 160.995 86.7037C161.003 86.7103 161.007 86.7145 161.017 86.7227C161.064 86.7583 161.12 86.7899 161.17 86.8231C160.95 86.6747 161.172 86.8349 161.214 86.8787C161.239 86.905 161.262 86.933 161.286 86.9605C161.308 86.9868 161.327 87.0149 161.344 87.0444C161.38 87.1134 161.419 87.1833 161.457 87.2511L161.467 87.2686C161.467 87.2708 161.467 87.2731 161.467 87.2753C161.486 87.3854 161.515 87.4934 161.554 87.5981C161.555 87.6069 161.557 87.6159 161.558 87.6249C161.561 87.6852 161.566 87.7453 161.566 87.806L161.566 87.8182C161.391 87.7229 161.197 87.6724 161 87.6709C160.803 87.6694 160.609 87.717 160.433 87.8098Z" fill="#E6E6E6"/>
<path d="M160.466 121.042L160.463 121.044L160.469 121.042H160.466Z" fill="#E6E6E6"/>
<path d="M160.472 121.04L160.473 121.041L160.472 121.04Z" fill="#E6E6E6"/>
<path d="M160.472 121.042L160.469 121.042C160.473 121.043 160.472 121.042 160.472 121.042Z" fill="#E6E6E6"/>
<path d="M160.473 121.04C160.477 121.042 160.473 121.042 160.472 121.042L160.473 121.04Z" fill="#E6E6E6"/>
<path d="M212.047 146.564C211.523 145.592 210.686 144.846 209.686 144.459C208.686 144.071 207.587 144.067 206.584 144.448C206.086 144.638 205.629 144.931 205.24 145.31C204.852 145.688 204.54 146.144 204.323 146.651C204.28 146.759 204.255 146.872 204.219 146.982C204.17 147.065 204.111 147.141 204.067 147.228C203.597 148.208 203.468 149.33 203.703 150.4C203.938 151.469 204.521 152.419 205.354 153.087C206.186 153.754 207.215 154.097 208.262 154.056C209.31 154.015 210.311 153.593 211.093 152.862C211.916 152.084 212.459 151.035 212.632 149.889C212.806 148.743 212.599 147.57 212.047 146.564ZM209.205 148.581C209.215 148.641 209.211 148.696 209.205 148.581V148.581ZM208.916 147.893C208.905 147.88 208.907 147.881 208.916 147.893V147.893ZM207.643 148.429C207.626 148.402 207.625 148.397 207.643 148.429V148.429ZM207.945 148.697C208.017 148.723 207.989 148.717 207.945 148.697V148.697ZM208.08 148.764L208.11 148.75C208.102 148.751 208.095 148.749 208.089 148.745L208.089 148.745L208.113 148.748L208.117 148.746L208.104 148.743C208.115 148.743 208.117 148.744 208.117 148.746C208.252 148.681 208.161 148.713 208.083 148.738L208.078 148.737C208.029 148.711 207.976 148.693 207.922 148.684C207.917 148.681 207.911 148.679 207.907 148.676C207.863 148.644 207.644 148.464 207.848 148.653C207.803 148.612 207.759 148.571 207.718 148.527C207.693 148.501 207.671 148.472 207.651 148.441C207.625 148.393 207.599 148.345 207.574 148.296L207.57 148.27C207.566 148.248 207.564 148.239 207.561 148.226C207.562 148.212 207.565 148.198 207.567 148.184C207.582 148.141 207.591 148.096 207.595 148.051L207.604 148.039C207.637 147.992 207.665 147.936 207.696 147.887C207.532 148.148 207.761 147.858 207.778 147.821C207.781 147.815 207.776 147.818 207.777 147.814C207.783 147.81 207.781 147.813 207.789 147.808C207.84 147.776 207.889 147.741 207.94 147.711C208.002 147.675 208.245 147.603 207.993 147.679C208.05 147.662 208.105 147.64 208.163 147.624C208.173 147.621 208.258 147.609 208.304 147.6C208.344 147.599 208.383 147.598 208.387 147.598C208.406 147.598 208.425 147.601 208.443 147.602C208.402 147.607 208.587 147.649 208.642 147.658C208.65 147.665 208.654 147.669 208.665 147.677C208.711 147.713 208.768 147.744 208.817 147.777C208.597 147.629 208.82 147.789 208.861 147.833C208.887 147.859 208.91 147.887 208.933 147.915C208.955 147.941 208.974 147.969 208.992 147.999C209.028 148.068 209.066 148.138 209.104 148.206L209.114 148.223C209.114 148.225 209.114 148.227 209.114 148.23C209.134 148.34 209.163 148.448 209.201 148.552C209.203 148.561 209.204 148.57 209.205 148.579C209.209 148.64 209.213 148.7 209.213 148.76L209.213 148.773C209.038 148.677 208.844 148.627 208.647 148.625C208.45 148.624 208.256 148.671 208.08 148.764Z" fill="#E6E6E6"/>
<path d="M208.113 96.5019L208.11 96.5035L208.116 96.5019H208.113Z" fill="#E6E6E6"/>
<path d="M208.119 96.5001L208.12 96.5005L208.119 96.5001Z" fill="#E6E6E6"/>
<path d="M208.119 96.5016L208.116 96.5021C208.12 96.5026 208.119 96.5018 208.119 96.5016Z" fill="#E6E6E6"/>
<path d="M208.12 96.5004C208.125 96.5017 208.12 96.5015 208.119 96.5019L208.12 96.5004Z" fill="#E6E6E6"/>
<path d="M208.118 96.4995L208.119 96.5005L208.118 96.4995Z" fill="#E6E6E6"/>
<path d="M252.741 112.332L252.742 112.333L252.741 112.332Z" fill="#E6E6E6"/>
<path d="M256.669 110.15C256.144 109.178 255.308 108.432 254.308 108.044C253.308 107.657 252.209 107.653 251.206 108.033C250.708 108.224 250.251 108.517 249.862 108.895C249.474 109.274 249.162 109.73 248.945 110.237C248.902 110.344 248.876 110.458 248.841 110.568C248.792 110.651 248.733 110.726 248.689 110.813C248.219 111.794 248.09 112.916 248.325 113.985C248.56 115.055 249.143 116.005 249.976 116.672C250.808 117.34 251.836 117.682 252.884 117.642C253.932 117.601 254.933 117.178 255.715 116.448C256.538 115.67 257.081 114.621 257.254 113.475C257.428 112.329 257.221 111.156 256.669 110.15ZM253.827 112.166C253.837 112.226 253.833 112.281 253.827 112.166V112.166ZM253.538 111.479C253.527 111.466 253.529 111.467 253.538 111.479V111.479ZM252.265 112.015C252.248 111.987 252.247 111.983 252.265 112.015V112.015ZM252.567 112.283C252.639 112.308 252.61 112.303 252.567 112.283V112.283ZM252.702 112.35L252.732 112.335C252.724 112.336 252.717 112.335 252.71 112.331L252.711 112.331L252.735 112.334L252.739 112.332L252.726 112.329C252.737 112.328 252.739 112.33 252.739 112.332C252.874 112.267 252.783 112.298 252.705 112.324L252.7 112.322C252.651 112.296 252.598 112.279 252.544 112.27C252.539 112.267 252.533 112.265 252.529 112.262C252.485 112.23 252.266 112.05 252.47 112.238C252.425 112.197 252.381 112.157 252.34 112.113C252.315 112.086 252.293 112.058 252.273 112.027C252.246 111.979 252.221 111.931 252.195 111.882L252.192 111.856C252.188 111.834 252.186 111.825 252.183 111.812C252.184 111.798 252.186 111.783 252.189 111.769C252.204 111.726 252.213 111.682 252.217 111.636L252.226 111.625C252.259 111.577 252.287 111.522 252.318 111.472C252.154 111.734 252.383 111.443 252.4 111.407C252.403 111.4 252.398 111.404 252.399 111.399C252.405 111.396 252.403 111.398 252.411 111.393C252.462 111.362 252.511 111.327 252.562 111.297C252.624 111.261 252.867 111.189 252.615 111.264C252.672 111.247 252.727 111.226 252.785 111.21C252.795 111.207 252.88 111.195 252.926 111.186C252.966 111.185 253.005 111.184 253.009 111.184C253.028 111.184 253.047 111.186 253.065 111.187C253.024 111.193 253.209 111.235 253.264 111.244C253.272 111.25 253.276 111.255 253.287 111.263C253.333 111.298 253.39 111.33 253.439 111.363C253.219 111.215 253.442 111.375 253.483 111.419C253.508 111.445 253.532 111.473 253.555 111.501C253.577 111.527 253.596 111.555 253.614 111.585C253.65 111.654 253.688 111.723 253.726 111.791L253.736 111.809C253.736 111.811 253.736 111.813 253.736 111.815C253.755 111.925 253.785 112.033 253.823 112.138C253.825 112.147 253.826 112.156 253.827 112.165C253.83 112.225 253.835 112.285 253.835 112.346L253.835 112.358C253.66 112.263 253.466 112.212 253.269 112.211C253.072 112.21 252.878 112.257 252.702 112.35Z" fill="#E6E6E6"/>
<path d="M252.735 112.334L252.732 112.336L252.738 112.334H252.735Z" fill="#E6E6E6"/>
<path d="M252.739 112.332L252.741 112.333L252.739 112.332Z" fill="#E6E6E6"/>
<path d="M252.742 112.333C252.746 112.334 252.742 112.334 252.741 112.334L252.742 112.333Z" fill="#E6E6E6"/>
<path d="M252.741 112.334L252.738 112.334C252.742 112.335 252.741 112.334 252.741 112.334Z" fill="#E6E6E6"/>
<path d="M240.507 148.612L205.341 150.658C205.143 150.67 204.948 150.601 204.797 150.467C204.645 150.333 204.549 150.142 204.528 149.936C204.506 149.729 204.561 149.522 204.681 149.357C204.802 149.191 204.978 149.08 205.174 149.047L241.117 142.925L240.507 148.612Z" fill="#3F3D56"/>
<path d="M285.198 230.558L298.449 207.222L308.244 212.064C308.244 212.064 291.367 234.128 290.829 234.762C291.059 235.835 290.973 236.955 290.582 237.975C290.19 238.995 289.513 239.867 288.638 240.475C287.763 241.083 286.732 241.398 285.682 241.38C284.632 241.361 283.612 241.01 282.757 240.372C281.903 239.733 281.253 238.838 280.895 237.805C280.536 236.772 280.486 235.649 280.75 234.585C281.015 233.522 281.582 232.567 282.376 231.848C283.17 231.129 284.154 230.679 285.198 230.558Z" fill="#FFB6B6"/>
<path d="M290.71 176.351L312.18 188.076C313.521 189.087 314.647 190.381 315.484 191.874C316.32 193.367 316.85 195.026 317.04 196.745C317.229 198.465 317.074 200.207 316.583 201.86C316.093 203.513 315.278 205.04 314.192 206.345L299.391 224.116L292.943 214.971L297.913 204.094L288.289 201.438L290.71 176.351Z" fill="#DBA1FF"/>
<path d="M229.527 148.994L227.109 176.022L216.277 176.041C216.277 176.041 222.492 148.535 222.718 147.721C222.071 146.855 221.69 145.804 221.626 144.707C221.562 143.61 221.817 142.518 222.359 141.577C222.9 140.635 223.702 139.887 224.658 139.433C225.614 138.979 226.68 138.839 227.714 139.032C228.748 139.225 229.701 139.743 230.448 140.515C231.195 141.288 231.7 142.28 231.896 143.36C232.093 144.439 231.972 145.556 231.549 146.562C231.126 147.568 230.421 148.416 229.527 148.994V148.994Z" fill="#FFB6B6"/>
<path d="M251.089 204.266L226.158 199.48C215.659 198.159 211.351 190.929 213.245 183.876L219.341 161.18L228.912 166.551L228.875 178.607L242.271 176.69L251.089 204.266Z" fill="#DBA1FF"/>
<path d="M240.884 391.052H234.028L230.767 363.375H240.885L240.884 391.052Z" fill="#FFB6B6"/>
<path d="M241.125 398.537L220.044 398.536V398.257C220.045 395.98 220.909 393.795 222.448 392.185C223.987 390.574 226.074 389.669 228.25 389.669H228.25L232.101 386.612L239.285 389.67L241.126 389.67L241.125 398.537Z" fill="#2F2E41"/>
<path d="M289.389 391.052H296.244L299.505 363.375H289.388L289.389 391.052Z" fill="#FFB6B6"/>
<path d="M289.148 398.537L310.228 398.536V398.257C310.228 395.98 309.364 393.795 307.825 392.185C306.286 390.574 304.199 389.669 302.023 389.669H302.023L298.172 386.612L290.988 389.67L289.147 389.67L289.148 398.537Z" fill="#2F2E41"/>
<path d="M230.466 343.037C230.567 341.458 231.372 332.724 231.372 332.724L233.3 314.202L236.699 265.105L239.728 252.2L254.722 258.314L266.889 252.209L281.35 257.047L292.61 261.467C292.61 261.467 292.63 263.359 292.716 265.645C292.832 268.637 293.034 272.305 293.516 273.258C294.321 274.944 294.119 283.99 294.119 283.99C294.119 283.99 294.919 302.396 295.927 304.414C296.934 306.432 297.137 310.635 296.833 311.478C296.529 312.32 297.84 334.424 297.84 334.424C297.84 334.424 301.206 373.541 299.094 379.439C296.983 385.337 289.005 381.473 289.005 381.473C289.005 381.473 289.39 379.899 287.076 379.157C284.763 378.416 277.715 322.951 277.715 322.951C277.715 322.951 276.404 311.579 275.199 308.319C273.994 305.06 272.885 295.902 272.885 295.902C272.885 295.902 265.443 280.746 265.346 277.375C265.346 277.375 264.372 274.222 263.452 277.693C262.531 281.165 259.817 289.48 259.817 289.48L257.171 299.691L254.057 314.949L252.042 327.795C252.042 327.795 249.024 344.843 248.542 345.58C248.06 346.316 248.542 361.892 248.542 361.892C248.542 361.892 246.209 375.156 242.912 377.472C239.615 379.788 230.879 377.509 230.879 377.509C230.879 377.509 230.365 344.616 230.466 343.037Z" fill="#2F2E41"/>
<path d="M241.675 210.674L239.759 236.654L236.88 239.772C236.621 240.053 236.418 240.386 236.284 240.751C236.151 241.116 236.089 241.506 236.102 241.897C236.116 242.287 236.205 242.671 236.363 243.025C236.522 243.379 236.747 243.696 237.026 243.956L235.44 246.803L234.878 255.772C234.718 256.47 234.707 257.196 234.846 257.899C234.985 258.602 235.271 259.264 235.683 259.838C236.094 260.412 236.622 260.883 237.228 261.219C237.834 261.555 238.503 261.747 239.188 261.78L288.826 264.221C289.507 264.255 290.187 264.131 290.818 263.86C291.448 263.588 292.014 263.175 292.475 262.649C292.936 262.123 293.282 261.498 293.487 260.817C293.692 260.137 293.751 259.417 293.662 258.71L289.441 225.451V222.964L287.551 218.161L288.522 202.072L290.782 176.536L277.65 172.986L270.531 167.858L258.161 168.065L250.656 174.516L240.649 176.157L233.081 177.731L232.117 179.924L234.045 179.486L241.034 208.017L241.675 210.674Z" fill="#DBA1FF"/>
<path d="M264.069 164.377C272.117 164.377 278.64 157.549 278.64 149.126C278.64 140.703 272.117 133.875 264.069 133.875C256.022 133.875 249.498 140.703 249.498 149.126C249.498 157.549 256.022 164.377 264.069 164.377Z" fill="#FFB6B6"/>
<path d="M260.556 163.393L271.084 162.831C272.433 162.759 273.905 162.635 274.886 161.663C275.414 161.063 275.82 160.357 276.08 159.588C277.053 157.222 278.026 154.855 278.975 152.478C280.286 149.19 281.575 145.718 281.24 142.172C281.161 140.552 280.512 139.021 279.418 137.872C278.86 137.319 278.142 136.975 277.378 136.894C276.613 136.813 275.844 136.999 275.191 137.424C275.028 136.302 274.625 135.234 274.01 134.3C273.395 133.365 272.585 132.59 271.642 132.031C269.737 130.929 267.562 130.447 265.393 130.644C262.247 130.857 259.243 132.096 256.804 134.188C256.119 134.85 255.386 135.457 254.613 136.005C254.225 136.277 253.787 136.463 253.327 136.552C252.867 136.641 252.395 136.631 251.939 136.523C251.488 136.396 251.095 136.103 250.834 135.697C250.573 135.292 250.461 134.8 250.519 134.315C249.777 134.895 249.269 135.744 249.093 136.695C248.917 137.646 249.085 138.632 249.566 139.46C249.02 139.7 248.423 139.787 247.835 139.715C247.246 139.642 246.686 139.411 246.208 139.044C245.696 139.31 245.242 139.685 244.877 140.145C244.511 140.605 244.241 141.14 244.085 141.716C243.928 142.291 243.888 142.894 243.967 143.487C244.046 144.079 244.242 144.648 244.543 145.157C244.844 145.666 245.243 146.103 245.715 146.441C246.187 146.778 246.721 147.009 247.283 147.119C247.845 147.228 248.423 147.213 248.979 147.075C249.535 146.937 250.058 146.679 250.513 146.318C251.152 147.255 250.914 148.528 250.831 149.675C250.748 150.823 251.042 152.249 252.099 152.566C253.528 152.995 254.685 150.981 256.172 151.003C256.539 151.034 256.892 151.159 257.201 151.368C257.511 151.577 257.766 151.862 257.945 152.198C258.295 152.875 258.535 153.608 258.654 154.367L260.557 163.331" fill="#2F2E41"/>
<path d="M671.036 300.526C671.036 298.165 670.279 296.248 669.348 296.244H415.726C414.791 296.248 414.037 298.165 414.033 300.526V397.744C414.033 397.963 413.955 398.175 413.815 398.337C413.674 398.5 413.48 398.601 413.272 398.623C412.591 398.691 411.91 398.755 411.23 398.814C411.213 398.814 411.196 398.818 411.179 398.818C410.809 398.853 410.438 398.88 410.068 398.911H410.064C409.873 398.542 409.685 398.17 409.499 397.795C409.436 397.668 409.403 397.528 409.403 397.385V294.97C409.403 294.318 409.428 293.662 409.47 293.014C409.53 292.125 409.636 291.239 409.786 290.361C410.497 286.268 412.105 283.497 413.932 283.488H671.137C671.404 283.49 671.667 283.548 671.912 283.66C672.271 283.826 672.595 284.064 672.867 284.36C673.237 284.762 673.552 285.214 673.806 285.704C674.854 287.89 675.458 290.28 675.578 292.723C675.578 292.75 675.582 292.776 675.582 292.802C675.641 293.516 675.671 294.243 675.667 294.97L675.726 304.413L675.764 310.044L675.877 327.712L675.919 333.986L676.104 398.404C676.104 398.638 676.016 398.862 675.858 399.027C675.7 399.192 675.486 399.285 675.263 399.285H671.878C671.655 399.285 671.441 399.192 671.283 399.027C671.125 398.862 671.036 398.638 671.036 398.404V300.526Z" fill="#E6E6E6"/>
<path d="M602.119 239.305H574.791C574.404 239.306 574.033 239.467 573.76 239.754C573.487 240.04 573.334 240.428 573.335 240.833V286.019H603.578V240.833C603.579 240.632 603.541 240.434 603.468 240.248C603.394 240.063 603.287 239.894 603.151 239.753C603.016 239.611 602.855 239.498 602.678 239.421C602.5 239.345 602.311 239.305 602.119 239.305ZM588.547 264.98C587.692 264.975 586.874 264.618 586.269 263.986C585.665 263.353 585.324 262.496 585.32 261.602V256.39C585.32 255.494 585.66 254.635 586.265 254.002C586.87 253.368 587.691 253.012 588.547 253.012C589.402 253.012 590.223 253.368 590.828 254.002C591.434 254.635 591.774 255.494 591.774 256.39V261.602C591.77 262.496 591.428 263.353 590.824 263.986C590.22 264.618 589.401 264.975 588.547 264.98Z" fill="#CCCCCC"/>
<path d="M573.241 284.574V288.934C573.241 289.159 573.327 289.376 573.48 289.536C573.632 289.695 573.839 289.785 574.055 289.786H602.858C603.074 289.785 603.28 289.695 603.433 289.535C603.585 289.375 603.671 289.159 603.672 288.934V284.574H573.241Z" fill="#3F3D56"/>
<path d="M647.372 168.787H530.554C529.551 168.789 528.589 169.207 527.879 169.95C527.169 170.692 526.77 171.699 526.768 172.75V255.26C526.769 256.31 527.168 257.318 527.878 258.061C528.588 258.803 529.55 259.221 530.554 259.222H647.372C648.376 259.221 649.338 258.803 650.048 258.061C650.758 257.318 651.157 256.31 651.158 255.26V172.75C651.156 171.699 650.757 170.692 650.047 169.95C649.338 169.207 648.376 168.789 647.372 168.787Z" fill="#E6E6E6"/>
<path d="M646.397 171.649H531.53C530.993 171.651 530.478 171.875 530.098 172.273C529.719 172.671 529.506 173.211 529.505 173.773V254.238C529.506 254.799 529.72 255.338 530.1 255.735C530.479 256.132 530.994 256.356 531.53 256.357H646.397C646.934 256.356 647.448 256.132 647.828 255.735C648.207 255.338 648.421 254.799 648.422 254.238V173.773C648.422 173.211 648.208 172.671 647.829 172.273C647.449 171.875 646.934 171.651 646.397 171.649Z" fill="white"/>
<path d="M624.023 291.303H555.683C555.496 291.303 555.312 291.259 555.143 291.175C554.974 291.091 554.825 290.968 554.707 290.816C554.589 290.664 554.505 290.486 554.461 290.296C554.418 290.106 554.415 289.908 554.453 289.716L555.514 284.445C555.574 284.15 555.729 283.885 555.953 283.695C556.176 283.505 556.456 283.401 556.744 283.4H622.963C623.251 283.401 623.53 283.505 623.754 283.695C623.977 283.885 624.132 284.15 624.193 284.445L625.253 289.716C625.292 289.908 625.289 290.106 625.245 290.296C625.201 290.486 625.117 290.664 624.999 290.816C624.881 290.968 624.732 291.091 624.563 291.175C624.395 291.259 624.21 291.303 624.023 291.303Z" fill="#CCCCCC"/>
<path d="M558.965 284.349H557.598C557.394 284.349 557.229 284.522 557.229 284.735V285.284C557.229 285.498 557.394 285.671 557.598 285.671H558.965C559.168 285.671 559.334 285.498 559.334 285.284V284.735C559.334 284.522 559.168 284.349 558.965 284.349Z" fill="#E6E6E6"/>
<path d="M563.174 284.349H561.808C561.604 284.349 561.439 284.522 561.439 284.735V285.284C561.439 285.498 561.604 285.671 561.808 285.671H563.174C563.378 285.671 563.543 285.498 563.543 285.284V284.735C563.543 284.522 563.378 284.349 563.174 284.349Z" fill="#E6E6E6"/>
<path d="M567.384 284.349H566.017C565.813 284.349 565.648 284.522 565.648 284.735V285.284C565.648 285.498 565.813 285.671 566.017 285.671H567.384C567.588 285.671 567.753 285.498 567.753 285.284V284.735C567.753 284.522 567.588 284.349 567.384 284.349Z" fill="#E6E6E6"/>
<path d="M571.593 284.349H570.227C570.023 284.349 569.858 284.522 569.858 284.735V285.284C569.858 285.498 570.023 285.671 570.227 285.671H571.593C571.797 285.671 571.962 285.498 571.962 285.284V284.735C571.962 284.522 571.797 284.349 571.593 284.349Z" fill="#E6E6E6"/>
<path d="M575.803 284.349H574.436C574.233 284.349 574.067 284.522 574.067 284.735V285.284C574.067 285.498 574.233 285.671 574.436 285.671H575.803C576.007 285.671 576.172 285.498 576.172 285.284V284.735C576.172 284.522 576.007 284.349 575.803 284.349Z" fill="#E6E6E6"/>
<path d="M580.012 284.349H578.646C578.442 284.349 578.277 284.522 578.277 284.735V285.284C578.277 285.498 578.442 285.671 578.646 285.671H580.012C580.216 285.671 580.382 285.498 580.382 285.284V284.735C580.382 284.522 580.216 284.349 580.012 284.349Z" fill="#E6E6E6"/>
<path d="M584.222 284.349H582.856C582.652 284.349 582.486 284.522 582.486 284.735V285.284C582.486 285.498 582.652 285.671 582.856 285.671H584.222C584.426 285.671 584.591 285.498 584.591 285.284V284.735C584.591 284.522 584.426 284.349 584.222 284.349Z" fill="#E6E6E6"/>
<path d="M588.432 284.349H587.065C586.861 284.349 586.696 284.522 586.696 284.735V285.284C586.696 285.498 586.861 285.671 587.065 285.671H588.432C588.635 285.671 588.801 285.498 588.801 285.284V284.735C588.801 284.522 588.635 284.349 588.432 284.349Z" fill="#E6E6E6"/>
<path d="M592.641 284.349H591.275C591.071 284.349 590.906 284.522 590.906 284.735V285.284C590.906 285.498 591.071 285.671 591.275 285.671H592.641C592.845 285.671 593.01 285.498 593.01 285.284V284.735C593.01 284.522 592.845 284.349 592.641 284.349Z" fill="#E6E6E6"/>
<path d="M596.851 284.349H595.484C595.28 284.349 595.115 284.522 595.115 284.735V285.284C595.115 285.498 595.28 285.671 595.484 285.671H596.851C597.055 285.671 597.22 285.498 597.22 285.284V284.735C597.22 284.522 597.055 284.349 596.851 284.349Z" fill="#E6E6E6"/>
<path d="M601.06 284.349H599.694C599.49 284.349 599.325 284.522 599.325 284.735V285.284C599.325 285.498 599.49 285.671 599.694 285.671H601.06C601.264 285.671 601.429 285.498 601.429 285.284V284.735C601.429 284.522 601.264 284.349 601.06 284.349Z" fill="#E6E6E6"/>
<path d="M605.27 284.349H603.903C603.7 284.349 603.534 284.522 603.534 284.735V285.284C603.534 285.498 603.7 285.671 603.903 285.671H605.27C605.474 285.671 605.639 285.498 605.639 285.284V284.735C605.639 284.522 605.474 284.349 605.27 284.349Z" fill="#E6E6E6"/>
<path d="M609.479 284.349H608.113C607.909 284.349 607.744 284.522 607.744 284.735V285.284C607.744 285.498 607.909 285.671 608.113 285.671H609.479C609.683 285.671 609.849 285.498 609.849 285.284V284.735C609.849 284.522 609.683 284.349 609.479 284.349Z" fill="#E6E6E6"/>
<path d="M613.689 284.349H612.323C612.119 284.349 611.953 284.522 611.953 284.735V285.284C611.953 285.498 612.119 285.671 612.323 285.671H613.689C613.893 285.671 614.058 285.498 614.058 285.284V284.735C614.058 284.522 613.893 284.349 613.689 284.349Z" fill="#E6E6E6"/>
<path d="M617.899 284.349H616.532C616.328 284.349 616.163 284.522 616.163 284.735V285.284C616.163 285.498 616.328 285.671 616.532 285.671H617.899C618.102 285.671 618.268 285.498 618.268 285.284V284.735C618.268 284.522 618.102 284.349 617.899 284.349Z" fill="#E6E6E6"/>
<path d="M622.108 284.349H620.742C620.538 284.349 620.373 284.522 620.373 284.735V285.284C620.373 285.498 620.538 285.671 620.742 285.671H622.108C622.312 285.671 622.477 285.498 622.477 285.284V284.735C622.477 284.522 622.312 284.349 622.108 284.349Z" fill="#E6E6E6"/>
<path d="M558.915 286.552H557.548C557.345 286.552 557.179 286.725 557.179 286.939V287.487C557.179 287.701 557.345 287.874 557.548 287.874H558.915C559.119 287.874 559.284 287.701 559.284 287.487V286.939C559.284 286.725 559.119 286.552 558.915 286.552Z" fill="#E6E6E6"/>
<path d="M563.124 286.552H561.758C561.554 286.552 561.389 286.725 561.389 286.939V287.487C561.389 287.701 561.554 287.874 561.758 287.874H563.124C563.328 287.874 563.494 287.701 563.494 287.487V286.939C563.494 286.725 563.328 286.552 563.124 286.552Z" fill="#E6E6E6"/>
<path d="M567.334 286.552H565.968C565.764 286.552 565.598 286.725 565.598 286.939V287.487C565.598 287.701 565.764 287.874 565.968 287.874H567.334C567.538 287.874 567.703 287.701 567.703 287.487V286.939C567.703 286.725 567.538 286.552 567.334 286.552Z" fill="#E6E6E6"/>
<path d="M571.543 286.552H570.177C569.973 286.552 569.808 286.725 569.808 286.939V287.487C569.808 287.701 569.973 287.874 570.177 287.874H571.543C571.747 287.874 571.913 287.701 571.913 287.487V286.939C571.913 286.725 571.747 286.552 571.543 286.552Z" fill="#E6E6E6"/>
<path d="M575.753 286.552H574.387C574.183 286.552 574.017 286.725 574.017 286.939V287.487C574.017 287.701 574.183 287.874 574.387 287.874H575.753C575.957 287.874 576.122 287.701 576.122 287.487V286.939C576.122 286.725 575.957 286.552 575.753 286.552Z" fill="#E6E6E6"/>
<path d="M579.963 286.552H578.596C578.392 286.552 578.227 286.725 578.227 286.939V287.487C578.227 287.701 578.392 287.874 578.596 287.874H579.963C580.167 287.874 580.332 287.701 580.332 287.487V286.939C580.332 286.725 580.167 286.552 579.963 286.552Z" fill="#E6E6E6"/>
<path d="M584.172 286.552H582.806C582.602 286.552 582.437 286.725 582.437 286.939V287.487C582.437 287.701 582.602 287.874 582.806 287.874H584.172C584.376 287.874 584.541 287.701 584.541 287.487V286.939C584.541 286.725 584.376 286.552 584.172 286.552Z" fill="#E6E6E6"/>
<path d="M588.382 286.552H587.015C586.812 286.552 586.646 286.725 586.646 286.939V287.487C586.646 287.701 586.812 287.874 587.015 287.874H588.382C588.586 287.874 588.751 287.701 588.751 287.487V286.939C588.751 286.725 588.586 286.552 588.382 286.552Z" fill="#E6E6E6"/>
<path d="M592.591 286.552H591.225C591.021 286.552 590.856 286.725 590.856 286.939V287.487C590.856 287.701 591.021 287.874 591.225 287.874H592.591C592.795 287.874 592.961 287.701 592.961 287.487V286.939C592.961 286.725 592.795 286.552 592.591 286.552Z" fill="#E6E6E6"/>
<path d="M596.801 286.552H595.435C595.231 286.552 595.065 286.725 595.065 286.939V287.487C595.065 287.701 595.231 287.874 595.435 287.874H596.801C597.005 287.874 597.17 287.701 597.17 287.487V286.939C597.17 286.725 597.005 286.552 596.801 286.552Z" fill="#E6E6E6"/>
<path d="M601.01 286.552H599.644C599.44 286.552 599.275 286.725 599.275 286.939V287.487C599.275 287.701 599.44 287.874 599.644 287.874H601.01C601.214 287.874 601.38 287.701 601.38 287.487V286.939C601.38 286.725 601.214 286.552 601.01 286.552Z" fill="#E6E6E6"/>
<path d="M605.22 286.552H603.854C603.65 286.552 603.484 286.725 603.484 286.939V287.487C603.484 287.701 603.65 287.874 603.854 287.874H605.22C605.424 287.874 605.589 287.701 605.589 287.487V286.939C605.589 286.725 605.424 286.552 605.22 286.552Z" fill="#E6E6E6"/>
<path d="M609.43 286.552H608.063C607.859 286.552 607.694 286.725 607.694 286.939V287.487C607.694 287.701 607.859 287.874 608.063 287.874H609.43C609.634 287.874 609.799 287.701 609.799 287.487V286.939C609.799 286.725 609.634 286.552 609.43 286.552Z" fill="#E6E6E6"/>
<path d="M613.639 286.552H612.273C612.069 286.552 611.904 286.725 611.904 286.939V287.487C611.904 287.701 612.069 287.874 612.273 287.874H613.639C613.843 287.874 614.008 287.701 614.008 287.487V286.939C614.008 286.725 613.843 286.552 613.639 286.552Z" fill="#E6E6E6"/>
<path d="M617.849 286.552H616.482C616.279 286.552 616.113 286.725 616.113 286.939V287.487C616.113 287.701 616.279 287.874 616.482 287.874H617.849C618.053 287.874 618.218 287.701 618.218 287.487V286.939C618.218 286.725 618.053 286.552 617.849 286.552Z" fill="#E6E6E6"/>
<path d="M622.058 286.552H620.692C620.488 286.552 620.323 286.725 620.323 286.939V287.487C620.323 287.701 620.488 287.874 620.692 287.874H622.058C622.262 287.874 622.428 287.701 622.428 287.487V286.939C622.428 286.725 622.262 286.552 622.058 286.552Z" fill="#E6E6E6"/>
<path d="M593.854 289.196H577.754C577.55 289.196 577.385 289.369 577.385 289.582V290.131C577.385 290.345 577.55 290.518 577.754 290.518H593.854C594.058 290.518 594.223 290.345 594.223 290.131V289.582C594.223 289.369 594.058 289.196 593.854 289.196Z" fill="#E6E6E6"/>
<path d="M640.623 182.736H533.142C533.031 182.733 532.924 182.685 532.846 182.601C532.768 182.517 532.724 182.405 532.724 182.288C532.724 182.171 532.768 182.059 532.846 181.975C532.924 181.892 533.031 181.843 533.142 181.841H640.623C640.734 181.843 640.841 181.892 640.919 181.975C640.997 182.059 641.041 182.171 641.041 182.288C641.041 182.405 640.997 182.517 640.919 182.601C640.841 182.685 640.734 182.733 640.623 182.736Z" fill="#CACACA"/>
<path d="M540.459 179.557C541.842 179.557 542.964 178.357 542.964 176.876C542.964 175.396 541.842 174.196 540.459 174.196C539.075 174.196 537.954 175.396 537.954 176.876C537.954 178.357 539.075 179.557 540.459 179.557Z" fill="#CCCCCC"/>
<path d="M549.112 179.557C550.495 179.557 551.617 178.357 551.617 176.876C551.617 175.396 550.495 174.196 549.112 174.196C547.729 174.196 546.607 175.396 546.607 176.876C546.607 178.357 547.729 179.557 549.112 179.557Z" fill="#CCCCCC"/>
<path d="M557.765 179.557C559.149 179.557 560.27 178.357 560.27 176.876C560.27 175.396 559.149 174.196 557.765 174.196C556.382 174.196 555.26 175.396 555.26 176.876C555.26 178.357 556.382 179.557 557.765 179.557Z" fill="#CCCCCC"/>
<path d="M635.413 174.86H629.266C629.144 174.863 629.028 174.915 628.943 175.006C628.857 175.098 628.81 175.22 628.81 175.348C628.81 175.475 628.857 175.598 628.943 175.689C629.028 175.78 629.144 175.832 629.266 175.835H635.413C635.535 175.832 635.651 175.78 635.736 175.689C635.821 175.598 635.869 175.475 635.869 175.348C635.869 175.22 635.821 175.098 635.736 175.006C635.651 174.915 635.535 174.863 635.413 174.86H635.413Z" fill="#CCCCCC"/>
<path d="M635.413 176.689H629.266C629.144 176.692 629.028 176.744 628.943 176.835C628.858 176.926 628.81 177.049 628.81 177.176C628.81 177.304 628.858 177.426 628.943 177.517C629.028 177.608 629.144 177.661 629.266 177.663H635.413C635.535 177.661 635.651 177.608 635.736 177.517C635.821 177.426 635.869 177.304 635.869 177.176C635.869 177.049 635.821 176.926 635.736 176.835C635.651 176.744 635.535 176.692 635.413 176.689H635.413Z" fill="#CCCCCC"/>
<path d="M635.413 178.515H629.266C629.144 178.518 629.028 178.57 628.943 178.661C628.857 178.752 628.81 178.875 628.81 179.002C628.81 179.13 628.857 179.252 628.943 179.344C629.028 179.435 629.144 179.487 629.266 179.49H635.413C635.535 179.487 635.651 179.435 635.736 179.344C635.821 179.252 635.869 179.13 635.869 179.002C635.869 178.875 635.821 178.752 635.736 178.661C635.651 178.57 635.535 178.518 635.413 178.515H635.413Z" fill="#CCCCCC"/>
<path d="M595.561 207.109H582.13C581.122 207.109 580.304 207.965 580.304 209.021C580.304 210.077 581.122 210.933 582.13 210.933H595.561C596.569 210.933 597.387 210.077 597.387 209.021C597.387 207.965 596.569 207.109 595.561 207.109Z" fill="#DBA1FF"/>
<path d="M604.237 214.757H573.454C572.446 214.757 571.628 215.612 571.628 216.668C571.628 217.724 572.446 218.58 573.454 218.58H604.237C605.245 218.58 606.063 217.724 606.063 216.668C606.063 215.612 605.245 214.757 604.237 214.757Z" fill="#E6E6E6"/>
<path d="M604.237 222.404H573.454C572.446 222.404 571.628 223.26 571.628 224.316C571.628 225.371 572.446 226.227 573.454 226.227H604.237C605.245 226.227 606.063 225.371 606.063 224.316C606.063 223.26 605.245 222.404 604.237 222.404Z" fill="#E6E6E6"/>
<path d="M396.852 341.54L390.661 338.44L399.166 311.353L408.304 315.927L396.852 341.54Z" fill="#FFB6B6"/>
<path d="M438.36 337.173C437.91 337.468 437.46 337.758 437.005 338.049C436.1 338.63 435.186 339.201 434.272 339.762C433.812 340.043 433.349 340.324 432.889 340.6V340.614L432.862 340.619L432.853 340.624L432.153 340.805L431.148 338.025L430.684 336.745L430.029 334.931L428.828 331.613L422.507 314.144L432.334 311.607L432.703 313.182H432.707L432.889 313.963L436.323 328.538L437.023 331.518L437.046 331.608L437.469 333.389L437.833 334.931L438.237 336.654L438.36 337.173Z" fill="#FFB6B6"/>
<path d="M496.986 275.824C496.363 276.872 495.726 277.914 495.085 278.947C493.893 280.87 492.67 282.765 491.415 284.631C491.415 284.635 491.41 284.635 491.406 284.64C490.673 285.35 489.865 285.968 488.995 286.482C488.959 286.511 488.918 286.53 488.882 286.554C488.242 286.924 487.561 287.21 486.853 287.406C486.599 287.472 486.34 287.539 486.085 287.606C485.166 287.834 484.257 288.029 483.352 288.201C481.742 288.5 480.15 288.715 478.568 288.848C478.44 288.862 478.313 288.872 478.186 288.881C471.678 289.381 465.343 288.577 458.73 287.258C455.465 286.611 452.132 285.835 448.68 285.03C447.552 284.764 446.42 284.502 445.274 284.24C445.187 284.221 445.096 284.197 445.005 284.178C443.368 283.802 441.704 283.431 439.998 283.064C437.852 282.603 435.637 282.155 433.336 281.732L433.5 285.126C433.636 287.736 434.154 290.31 435.037 292.756C436.019 295.764 436.797 298.144 435.155 303.1L434.364 305.499C434.774 306.69 434.915 307.965 434.775 309.222C434.635 310.48 434.219 311.687 433.559 312.748L433.4 313L439.998 330.475L440.426 331.607H437.047L432.89 331.612H425.846L415.682 310.268L415.195 309.249V309.197L416.246 268.18C416.259 267.818 416.286 267.451 416.332 267.09C416.517 265.445 417.014 263.856 417.792 262.414C418.571 260.972 419.615 259.707 420.866 258.693C422.064 257.713 423.437 256.992 424.904 256.572C426.371 256.152 427.903 256.041 429.411 256.246L432.89 256.718L439.998 257.679L445.005 258.36L445.105 258.374L459.872 260.373L460.931 255.851L461.127 255.775L467.344 253.39L488.845 245.141L488.9 245.122L490.314 244.579L490.482 244.865C490.533 244.951 490.583 245.036 490.628 245.122C492.026 247.745 493.164 250.511 494.025 253.376C495.473 258.057 496.665 262.82 497.595 267.642C497.636 267.851 497.672 268.042 497.704 268.213L497.718 268.265C497.732 268.346 497.741 268.399 497.745 268.413C498.171 270.909 497.908 273.48 496.986 275.824Z" fill="#2F2E41"/>
<path d="M497.893 260.708C497.825 260.404 497.739 260.094 497.648 259.794C496.926 257.523 496.085 255.295 495.128 253.121C494.055 250.646 492.768 247.994 491.235 245.124C490.494 243.734 489.697 242.289 488.843 240.788C488.416 240.035 487.972 239.269 487.511 238.488C487.493 238.452 487.473 238.418 487.452 238.384L487.32 238.155L466.046 241.135L458.124 242.244L457.651 246.376L457.537 247.399C457.532 247.399 457.532 247.399 457.537 247.404L457.219 250.193V250.198L456.796 253.882L456.759 253.878L445.003 252.283L432.888 250.641L426.38 249.76C424.872 249.555 423.34 249.665 421.873 250.085C420.406 250.505 419.033 251.226 417.835 252.207C416.585 253.222 415.54 254.487 414.762 255.928C413.983 257.37 413.487 258.959 413.301 260.604C413.26 260.937 413.233 261.28 413.219 261.618L407.08 276.845C403.406 285.952 401.066 295.587 400.14 305.424L395.638 320.49L396.279 320.552L405.82 321.48L408.34 321.728L413.888 313.25C414.52 312.284 415.12 311.289 415.68 310.27C416.601 308.606 417.419 306.883 418.131 305.11L430.132 275.217C431.06 275.384 431.979 275.542 432.888 275.693C437.095 276.407 441.133 276.989 445.003 277.44C457.587 278.911 468.483 279.025 478.183 277.778C480.908 277.43 483.541 276.974 486.083 276.407C487.015 276.202 487.935 275.982 488.843 275.745C489.057 275.693 489.266 275.641 489.476 275.584C491.355 275.076 493.083 274.084 494.501 272.696C495.919 271.309 496.982 269.572 497.593 267.644C498.322 265.409 498.427 263.003 497.893 260.708Z" fill="#2F2E41"/>
<path d="M398.83 337.117L392.132 333.756L391.081 333.228L389.403 337.54L377.688 340.239C377.109 340.372 376.585 340.696 376.194 341.162C375.803 341.628 375.564 342.214 375.514 342.832C375.463 343.45 375.602 344.07 375.912 344.599C376.221 345.129 376.684 345.541 377.233 345.775L388.68 350.664L392.313 347.241L391.422 351.835L395.733 353.677L400.458 337.935L398.83 337.117Z" fill="#2F2E41"/>
<path d="M439.998 330.475L440.426 331.608H439.998V330.475Z" fill="#2F2E41"/>
<path d="M437.665 331.85L430.646 334.395L429.544 334.793L431.251 339.094L424.741 349.639C424.419 350.16 424.264 350.775 424.3 351.395C424.335 352.015 424.559 352.606 424.939 353.083C425.319 353.56 425.834 353.897 426.41 354.045C426.986 354.194 427.592 354.146 428.139 353.908L439.559 348.951L439.841 343.843L442.295 347.764L446.597 345.898L439.373 331.232L437.665 331.85Z" fill="#2F2E41"/>
<path d="M395.063 174.353C395.396 175.031 395.867 175.625 396.443 176.093C397.018 176.56 397.685 176.89 398.396 177.059C399.107 177.227 399.844 177.231 400.556 177.069C401.269 176.907 401.938 176.584 402.518 176.121L417.278 186.377L417.306 176.741L403.286 168.479C402.479 167.511 401.362 166.886 400.145 166.723C398.928 166.56 397.696 166.869 396.682 167.593C395.668 168.317 394.944 169.405 394.645 170.651C394.347 171.897 394.496 173.214 395.063 174.353V174.353Z" fill="#FFB6B6"/>
<path d="M406.09 178.806L412.976 170.606L441.015 188.029L478.184 184.466C480.022 184.29 481.873 184.54 483.608 185.197C485.343 185.854 486.918 186.903 488.222 188.269C489.526 189.636 490.527 191.285 491.153 193.102C491.779 194.918 492.016 196.857 491.846 198.78C491.535 202.252 489.921 205.454 487.357 207.683C484.794 209.911 481.491 210.984 478.172 210.667L436.311 206.611L406.09 178.806Z" fill="#CCCCCC"/>
<path d="M492.359 178.933L492.294 178.848C487.065 178.308 481.799 179.367 477.134 181.897C472.469 184.427 468.605 188.32 466.011 193.102L462.856 198.918C452.653 211.975 460.067 220.978 460.511 222.317L456.97 239.41L457.763 245.13L458.16 246.829L498.587 268.939C500.889 257.364 498.663 247.5 490.278 239.965L498.391 213.543C500.19 207.7 500.581 201.483 499.528 195.445C498.476 189.406 496.013 183.734 492.359 178.933Z" fill="#CCCCCC"/>
<path d="M460.214 307.299H447.246C446.533 307.298 445.844 307.028 445.305 306.539C444.767 306.049 444.415 305.372 444.315 304.633C443.514 298.466 443.514 292.214 444.315 286.047C444.414 285.316 444.758 284.647 445.287 284.158C445.815 283.67 446.492 283.394 447.196 283.382C451.276 281.467 455.67 281.468 460.258 283.381C460.686 283.387 461.107 283.491 461.491 283.685C461.876 283.88 462.216 284.16 462.486 284.506C462.768 284.866 462.97 285.288 463.077 285.74C463.184 286.192 463.194 286.663 463.105 287.12C462.063 292.546 462.063 298.134 463.105 303.56C463.194 304.016 463.184 304.488 463.077 304.94C462.97 305.392 462.768 305.814 462.486 306.174C462.211 306.526 461.864 306.81 461.471 307.005C461.078 307.199 460.649 307.3 460.214 307.299Z" fill="#DBA1FF"/>
<path d="M458.856 290.468H447.941C447.851 290.468 447.762 290.451 447.678 290.415C447.595 290.38 447.519 290.327 447.455 290.261C447.391 290.194 447.34 290.115 447.305 290.028C447.271 289.941 447.253 289.848 447.253 289.754C447.253 289.659 447.271 289.566 447.305 289.479C447.34 289.392 447.391 289.313 447.455 289.246C447.519 289.18 447.595 289.128 447.678 289.092C447.762 289.057 447.851 289.039 447.941 289.04H458.856C458.946 289.039 459.035 289.057 459.119 289.092C459.202 289.128 459.278 289.18 459.342 289.246C459.406 289.313 459.457 289.392 459.491 289.479C459.526 289.566 459.544 289.659 459.544 289.754C459.544 289.848 459.526 289.941 459.491 290.028C459.457 290.115 459.406 290.194 459.342 290.261C459.278 290.327 459.202 290.38 459.119 290.415C459.035 290.451 458.946 290.468 458.856 290.468Z" fill="white"/>
<path d="M458.856 296.18H447.941C447.851 296.18 447.762 296.163 447.678 296.127C447.595 296.092 447.519 296.039 447.455 295.973C447.391 295.906 447.34 295.827 447.305 295.74C447.271 295.653 447.253 295.56 447.253 295.466C447.253 295.371 447.271 295.278 447.305 295.191C447.34 295.104 447.391 295.025 447.455 294.959C447.519 294.892 447.595 294.84 447.678 294.804C447.762 294.769 447.851 294.751 447.941 294.752H458.856C458.946 294.751 459.035 294.769 459.119 294.804C459.202 294.84 459.278 294.892 459.342 294.959C459.406 295.025 459.457 295.104 459.491 295.191C459.526 295.278 459.544 295.371 459.544 295.466C459.544 295.56 459.526 295.653 459.491 295.74C459.457 295.827 459.406 295.906 459.342 295.973C459.278 296.039 459.202 296.092 459.119 296.127C459.035 296.163 458.946 296.18 458.856 296.18Z" fill="white"/>
<path d="M458.856 301.892H447.941C447.851 301.893 447.762 301.875 447.678 301.839C447.595 301.804 447.519 301.751 447.455 301.685C447.391 301.619 447.34 301.54 447.305 301.453C447.27 301.365 447.252 301.272 447.252 301.178C447.252 301.083 447.27 300.99 447.305 300.903C447.34 300.816 447.391 300.737 447.455 300.67C447.519 300.604 447.595 300.552 447.678 300.516C447.762 300.481 447.851 300.463 447.941 300.464H458.856C458.946 300.463 459.035 300.481 459.119 300.516C459.202 300.552 459.278 300.604 459.342 300.67C459.406 300.737 459.457 300.816 459.492 300.903C459.526 300.99 459.544 301.083 459.544 301.178C459.544 301.272 459.526 301.365 459.492 301.453C459.457 301.54 459.406 301.619 459.342 301.685C459.278 301.751 459.202 301.804 459.119 301.839C459.035 301.875 458.946 301.893 458.856 301.892Z" fill="white"/>
<path d="M397.44 179.057H384.473C383.76 179.056 383.07 178.787 382.532 178.297C381.994 177.807 381.642 177.131 381.542 176.392C380.741 170.224 380.741 163.972 381.542 157.805C381.641 157.074 381.985 156.405 382.513 155.917C383.041 155.428 383.718 155.153 384.423 155.14C388.503 153.226 392.897 153.226 397.485 155.14C397.912 155.146 398.333 155.249 398.718 155.444C399.103 155.638 399.443 155.918 399.713 156.264C399.995 156.625 400.197 157.046 400.304 157.498C400.411 157.95 400.42 158.422 400.331 158.878C399.29 164.304 399.29 169.892 400.331 175.318C400.42 175.775 400.411 176.246 400.304 176.698C400.197 177.15 399.995 177.572 399.713 177.932C399.438 178.284 399.091 178.568 398.698 178.763C398.305 178.957 397.875 179.058 397.44 179.057Z" fill="#DBA1FF"/>
<path d="M396.082 162.226H385.168C385.078 162.227 384.988 162.209 384.905 162.173C384.821 162.138 384.746 162.085 384.682 162.019C384.618 161.953 384.567 161.874 384.532 161.787C384.497 161.7 384.48 161.606 384.48 161.512C384.48 161.418 384.497 161.324 384.532 161.237C384.567 161.15 384.618 161.071 384.682 161.005C384.746 160.938 384.821 160.886 384.905 160.85C384.988 160.815 385.078 160.797 385.168 160.798H396.082C396.172 160.797 396.262 160.815 396.345 160.85C396.429 160.886 396.505 160.938 396.569 161.005C396.633 161.071 396.683 161.15 396.718 161.237C396.753 161.324 396.771 161.418 396.771 161.512C396.771 161.606 396.753 161.7 396.718 161.787C396.683 161.874 396.633 161.953 396.569 162.019C396.505 162.085 396.429 162.138 396.345 162.173C396.262 162.209 396.172 162.227 396.082 162.226Z" fill="white"/>
<path d="M396.082 167.938H385.168C385.078 167.939 384.988 167.921 384.905 167.885C384.821 167.85 384.746 167.797 384.682 167.731C384.618 167.665 384.567 167.586 384.532 167.499C384.497 167.412 384.48 167.318 384.48 167.224C384.48 167.13 384.497 167.036 384.532 166.949C384.567 166.862 384.618 166.783 384.682 166.717C384.746 166.65 384.821 166.598 384.905 166.563C384.988 166.527 385.078 166.509 385.168 166.51H396.082C396.172 166.509 396.262 166.527 396.345 166.563C396.429 166.598 396.505 166.65 396.569 166.717C396.633 166.783 396.683 166.862 396.718 166.949C396.753 167.036 396.771 167.13 396.771 167.224C396.771 167.318 396.753 167.412 396.718 167.499C396.683 167.586 396.633 167.665 396.569 167.731C396.505 167.797 396.429 167.85 396.345 167.885C396.262 167.921 396.172 167.939 396.082 167.938Z" fill="white"/>
<path d="M396.082 173.65H385.168C385.078 173.651 384.988 173.633 384.905 173.598C384.821 173.562 384.745 173.51 384.681 173.443C384.617 173.377 384.566 173.298 384.532 173.211C384.497 173.124 384.479 173.03 384.479 172.936C384.479 172.842 384.497 172.748 384.532 172.661C384.566 172.574 384.617 172.495 384.681 172.429C384.745 172.362 384.821 172.31 384.905 172.274C384.988 172.239 385.078 172.221 385.168 172.222H396.082C396.172 172.221 396.262 172.239 396.345 172.274C396.429 172.31 396.505 172.362 396.569 172.429C396.633 172.495 396.684 172.574 396.718 172.661C396.753 172.748 396.771 172.842 396.771 172.936C396.771 173.03 396.753 173.124 396.718 173.211C396.684 173.298 396.633 173.377 396.569 173.443C396.505 173.51 396.429 173.562 396.345 173.598C396.262 173.633 396.172 173.651 396.082 173.65Z" fill="white"/>
<path d="M169.793 213.888H156.825C156.112 213.887 155.423 213.618 154.884 213.128C154.346 212.638 153.994 211.962 153.894 211.223C153.094 205.055 153.094 198.803 153.894 192.636C153.993 191.906 154.338 191.236 154.866 190.748C155.394 190.259 156.071 189.984 156.776 189.971C160.856 188.057 165.249 188.057 169.838 189.971C170.265 189.977 170.686 190.08 171.071 190.275C171.456 190.469 171.795 190.749 172.066 191.095C172.348 191.456 172.549 191.877 172.656 192.329C172.763 192.781 172.773 193.253 172.684 193.709C171.642 199.135 171.642 204.724 172.684 210.149C172.773 210.606 172.763 211.077 172.656 211.529C172.549 211.981 172.348 212.403 172.066 212.763C171.79 213.116 171.444 213.399 171.051 213.594C170.657 213.788 170.228 213.889 169.793 213.888Z" fill="#DBA1FF"/>
<path d="M168.435 197.057H157.52C157.43 197.058 157.341 197.04 157.257 197.004C157.174 196.969 157.098 196.917 157.034 196.85C156.97 196.784 156.919 196.705 156.885 196.618C156.85 196.531 156.832 196.437 156.832 196.343C156.832 196.249 156.85 196.155 156.885 196.068C156.919 195.981 156.97 195.902 157.034 195.836C157.098 195.77 157.174 195.717 157.257 195.682C157.341 195.646 157.43 195.628 157.52 195.629H168.435C168.525 195.628 168.614 195.646 168.698 195.682C168.781 195.717 168.857 195.77 168.921 195.836C168.985 195.902 169.036 195.981 169.071 196.068C169.105 196.155 169.123 196.249 169.123 196.343C169.123 196.437 169.105 196.531 169.071 196.618C169.036 196.705 168.985 196.784 168.921 196.85C168.857 196.917 168.781 196.969 168.698 197.004C168.614 197.04 168.525 197.058 168.435 197.057Z" fill="white"/>
<path d="M168.435 202.769H157.52C157.43 202.77 157.341 202.752 157.257 202.717C157.174 202.681 157.098 202.629 157.034 202.562C156.97 202.496 156.919 202.417 156.885 202.33C156.85 202.243 156.832 202.149 156.832 202.055C156.832 201.961 156.85 201.867 156.885 201.78C156.919 201.693 156.97 201.614 157.034 201.548C157.098 201.482 157.174 201.429 157.257 201.394C157.341 201.358 157.43 201.34 157.52 201.341H168.435C168.525 201.34 168.614 201.358 168.698 201.394C168.781 201.429 168.857 201.482 168.921 201.548C168.985 201.614 169.036 201.693 169.071 201.78C169.105 201.867 169.123 201.961 169.123 202.055C169.123 202.149 169.105 202.243 169.071 202.33C169.036 202.417 168.985 202.496 168.921 202.562C168.857 202.629 168.781 202.681 168.698 202.717C168.614 202.752 168.525 202.77 168.435 202.769Z" fill="white"/>
<path d="M168.435 208.481H157.52C157.43 208.482 157.341 208.464 157.257 208.429C157.174 208.393 157.098 208.341 157.034 208.274C156.97 208.208 156.919 208.129 156.884 208.042C156.85 207.955 156.832 207.862 156.832 207.767C156.832 207.673 156.85 207.579 156.884 207.492C156.919 207.405 156.97 207.326 157.034 207.26C157.098 207.194 157.174 207.141 157.257 207.106C157.341 207.07 157.43 207.052 157.52 207.053H168.435C168.525 207.052 168.614 207.07 168.698 207.106C168.781 207.141 168.857 207.194 168.921 207.26C168.985 207.326 169.036 207.405 169.071 207.492C169.106 207.579 169.123 207.673 169.123 207.767C169.123 207.862 169.106 207.955 169.071 208.042C169.036 208.129 168.985 208.208 168.921 208.274C168.857 208.341 168.781 208.393 168.698 208.429C168.614 208.464 168.525 208.482 168.435 208.481Z" fill="white"/>
<path d="M464.013 289.948C464.641 289.56 465.179 289.033 465.591 288.403C466.003 287.774 466.278 287.058 466.396 286.305C466.515 285.552 466.475 284.782 466.278 284.047C466.081 283.313 465.733 282.632 465.258 282.054L474.163 266.024L464.972 266.566L457.924 281.705C457.049 282.605 456.519 283.81 456.435 285.091C456.352 286.372 456.72 287.641 457.471 288.657C458.221 289.673 459.302 290.366 460.508 290.604C461.714 290.842 462.961 290.608 464.013 289.948V289.948Z" fill="#FFB6B6"/>
<path d="M467.607 278.163L459.378 271.454L474.331 241.124L468.728 202.499C468.451 200.59 468.579 198.64 469.103 196.789C469.627 194.937 470.534 193.229 471.759 191.785C472.985 190.342 474.499 189.198 476.194 188.436C477.889 187.674 479.724 187.312 481.568 187.376C484.898 187.494 488.048 188.991 490.325 191.537C492.603 194.083 493.822 197.471 493.716 200.957L492.331 244.937L467.607 278.163Z" fill="#CCCCCC"/>
<path d="M69.8714 269.876C70.3897 269.331 70.7875 268.673 71.0367 267.949C71.286 267.226 71.3806 266.454 71.3139 265.688C71.2473 264.922 71.021 264.181 70.651 263.516C70.281 262.851 69.7763 262.28 69.1724 261.842L77.1756 220.234L68.3376 223.204L61.9314 263.449C61.2952 264.56 61.0703 265.876 61.2994 267.149C61.5284 268.421 62.1955 269.562 63.1742 270.354C64.1529 271.146 65.3752 271.535 66.6096 271.447C67.8439 271.359 69.0045 270.8 69.8714 269.876H69.8714Z" fill="#9E616A"/>
<path d="M81.6886 181.845L76.205 177.513C76.205 177.513 71.3676 177.154 70.5109 186.285C69.6541 195.416 67.8949 213.211 67.8949 213.211L59.5039 253.889L71.1194 256.558L80.1067 212.659L85.4983 199.622L81.6886 181.845Z" fill="#CCCCCC"/>
<path d="M72.6483 248.269L103.549 247.73L106.124 225.629H72.6483V248.269Z" fill="#9E616A"/>
<path d="M100.458 384.272H107.592L110.985 355.472L100.457 355.473L100.458 384.272Z" fill="#9E616A"/>
<path d="M55.7684 384.963L62.9018 384.91L66.1025 356.087L56.8249 358.314L55.7684 384.963Z" fill="#9E616A"/>
<path d="M78.0793 206.596L76.4631 210.994L76.786 215.393L108.42 226.861L106.851 207.611L103.295 203.212L78.0793 206.596Z" fill="#FFB6B6"/>
<path d="M91.6506 167.011C97.8905 167.011 102.949 161.717 102.949 155.185C102.949 148.654 97.8905 143.36 91.6506 143.36C85.4107 143.36 80.3522 148.654 80.3522 155.185C80.3522 161.717 85.4107 167.011 91.6506 167.011Z" fill="#9E616A"/>
<path d="M98.6891 380.588L109.966 379.884V384.941L120.687 392.691C121.216 393.074 121.615 393.623 121.825 394.26C122.035 394.897 122.045 395.587 121.853 396.23C121.662 396.873 121.279 397.435 120.76 397.835C120.242 398.234 119.615 398.449 118.972 398.449H105.547L103.233 393.447L102.329 398.449H97.2672L98.6891 380.588Z" fill="#2F2E41"/>
<path d="M53.3281 381.297L64.5997 380.51L64.6336 385.567L75.4061 393.238C75.9382 393.617 76.3407 394.164 76.5548 394.799C76.7689 395.435 76.7834 396.125 76.5962 396.769C76.409 397.414 76.0299 397.979 75.5142 398.382C74.9985 398.784 74.3733 399.004 73.7298 399.009L60.3049 399.107L57.9575 394.122L57.0874 399.131L52.0257 399.168L53.3281 381.297Z" fill="#2F2E41"/>
<path d="M53.5486 362.882L58.743 319.424L64.9231 273.604C60.3973 264.807 70.5881 237.488 70.5881 237.488L72.0266 237.56L104.586 243.989L104.579 243.957C111.238 262.968 113.444 272.36 113.079 292.605L111.767 365.382H112.179C112.862 365.382 113.517 365.666 114 366.172C114.483 366.677 114.754 367.363 114.754 368.078C114.754 368.792 114.483 369.478 114 369.983C113.517 370.489 112.862 370.773 112.179 370.773H99.3037C98.9652 370.773 98.6299 370.704 98.317 370.569C98.004 370.434 97.7196 370.235 97.4801 369.985C97.2405 369.735 97.0504 369.437 96.9207 369.11C96.791 368.783 96.7243 368.432 96.7243 368.078C96.7243 367.723 96.791 367.372 96.9207 367.045C97.0504 366.718 97.2405 366.42 97.4801 366.17C97.7196 365.92 98.004 365.721 98.317 365.586C98.6299 365.451 98.9652 365.382 99.3037 365.382H99.6357L87.8179 278.726L77.7982 315.111L66.4681 362.548C70.5881 361.47 69.9484 363.968 69.9484 365.382C69.9484 366.097 69.6771 366.783 69.1942 367.288C68.7113 367.794 68.0563 368.078 67.3734 368.078H54.4983C53.8995 368.078 53.3192 367.86 52.8575 367.461C52.3958 367.062 52.0816 366.507 51.9691 365.891C51.8566 365.275 51.9528 364.638 52.2411 364.089C52.5295 363.539 52.9919 363.113 53.5487 362.882H53.5486Z" fill="#2F2E41"/>
<path d="M68.053 238.903L69.083 228.122C69.19 227.682 69.4272 227.289 69.7608 226.999C70.0943 226.709 70.507 226.537 70.9397 226.508C71.3688 221.372 73.1745 199.216 73.2823 198.25L73.2866 198.209L74.1076 179.85C74.1374 179.184 74.4009 178.552 74.8476 178.075C75.2944 177.599 75.8931 177.312 76.5295 177.268L80.8662 176.971C80.9257 176.969 80.9821 176.943 81.0234 176.898C81.0648 176.853 81.088 176.794 81.088 176.731C81.088 176.23 81.1823 175.734 81.3656 175.271C81.5488 174.807 81.8175 174.387 82.1561 174.032C82.4948 173.678 82.8968 173.396 83.3393 173.205C83.7817 173.013 84.256 172.914 84.7349 172.914H97.5746C98.4062 172.914 99.2092 173.232 99.8327 173.809C100.456 174.385 100.857 175.179 100.961 176.043C100.967 176.102 100.994 176.157 101.036 176.197C101.079 176.236 101.135 176.258 101.192 176.256H101.193C102.652 176.225 104.074 176.742 105.2 177.713C106.325 178.685 107.081 180.047 107.33 181.552C109.085 192.242 112.603 216.504 110.864 229.992C110.258 234.688 111.563 230.969 111.792 234.898C111.815 235.277 111.766 235.658 111.648 236.018C111.53 236.377 111.345 236.709 111.105 236.994C111.598 237.182 112 237.565 112.224 238.061C112.449 238.558 112.477 239.126 112.304 239.644L112.529 239.586C112.463 239.86 112.346 240.119 112.185 240.346C112.023 240.573 111.82 240.765 111.588 240.91C111.356 241.055 111.099 241.151 110.831 241.192C110.563 241.233 110.29 241.219 110.028 241.15L76.4364 245.914C75.3332 245.623 67.7749 240.058 68.053 238.903Z" fill="#CCCCCC"/>
<path d="M157.815 195.07C157.604 195.807 157.242 196.486 156.753 197.061C156.265 197.636 155.662 198.091 154.987 198.395C154.312 198.7 153.582 198.845 152.847 198.822C152.113 198.799 151.392 198.607 150.736 198.261L137.749 210.666L136.025 201.119L148.63 190.834C149.258 189.718 150.256 188.883 151.434 188.487C152.612 188.09 153.888 188.159 155.02 188.682C156.152 189.204 157.062 190.142 157.577 191.32C158.092 192.497 158.177 193.832 157.815 195.07H157.815Z" fill="#9E616A"/>
<path d="M112.615 185.588C112.615 185.588 108.086 174.877 102.367 177.006C96.6479 179.135 99.6009 189.528 99.6009 189.528L121.088 223.418C121.088 223.418 152.081 202.608 148.312 202.461C144.543 202.314 143.416 195.14 143.416 195.14L127.036 203.706L126.482 200.657L125.593 201.586L123.301 199.698L112.615 185.588Z" fill="#CCCCCC"/>
<path d="M483.038 173.821C491.75 173.821 498.813 166.429 498.813 157.311C498.813 148.192 491.75 140.8 483.038 140.8C474.327 140.8 467.264 148.192 467.264 157.311C467.264 166.429 474.327 173.821 483.038 173.821Z" fill="#FFB6B6"/>
<path d="M533.663 181.606C531.842 184.306 529.186 186.264 526.143 187.147C524.926 187.526 523.669 187.75 522.4 187.813C522.243 186.311 521.868 184.843 521.287 183.46C521.346 184.932 521.15 186.403 520.71 187.803C518.804 187.689 516.941 187.167 515.237 186.268C513.563 185.386 512.108 184.109 510.988 182.536C509.868 180.964 509.114 179.14 508.785 177.209C508.116 172.693 510.073 168.258 510.78 163.749C511.49 159.24 510.157 153.529 505.94 152.344C502.728 151.441 503.088 151.831 500.418 153.906C503.196 158.204 492.938 173.954 488.74 172.581C486.367 171.804 484.847 169.525 484.357 169.525C481.058 175.474 487.27 185.497 481.01 187.578L481.525 187.039C485.305 182.173 477.405 171.874 481.185 167.009C482.239 165.647 483.361 164.034 483.05 162.313C482.755 160.676 480.273 159.81 479.547 161.155C480.854 158.021 478.924 153.838 475.728 153.033C472.89 152.317 472.942 153.199 470.094 153.583C469.907 152.295 469.559 151.038 469.059 149.845C469.111 151.13 468.968 152.416 468.634 153.654C467.628 153.634 466.656 153.266 465.87 152.609C463.547 150.649 464.018 146.534 466.09 144.29C468.167 142.045 471.252 141.237 474.194 140.714C475.049 134.48 491.483 133.83 493.661 140.059C494.589 135.407 500.152 132.993 504.477 134.436C508.801 135.879 511.802 140.107 513.381 144.561C514.961 149.013 515.402 153.804 516.376 158.442C517.349 163.08 518.994 167.803 522.38 170.964C525.767 174.122 531.285 175.168 534.854 172.234C535.372 173.785 535.535 175.441 535.328 177.069C535.121 178.697 534.551 180.251 533.663 181.606Z" fill="#2F2E41"/>
<path d="M681.653 219.283L679.445 230.881C679.278 231.767 679.105 232.67 678.915 233.564C677.07 233.164 675.156 233.276 673.364 233.889C674.786 236.015 676.059 238.245 677.176 240.562C675.784 245.05 673.742 249.198 670.324 252.199C668.041 254.158 665.314 255.468 662.406 256.004C659.498 256.539 656.508 256.281 653.723 255.254L653.821 254.795C650.146 247.33 652.142 237.918 656.71 231.023C659.04 227.621 661.801 224.567 664.916 221.943C668.002 219.252 671.337 216.837 674.642 214.455C675.385 213.92 676.262 213.63 677.163 213.62C678.064 213.61 678.947 213.882 679.7 214.401C680.452 214.919 681.04 215.66 681.388 216.53C681.736 217.4 681.828 218.358 681.653 219.283Z" fill="#E4E4E4"/>
<path d="M654.509 283.159C653.58 276.071 652.624 268.894 653.276 261.73C653.855 255.369 655.709 249.156 659.484 244.061C661.488 241.362 663.926 239.049 666.69 237.227C667.41 236.752 668.073 237.946 667.356 238.42C662.575 241.582 658.877 246.252 656.796 251.756C654.496 257.877 654.127 264.549 654.527 271.051C654.766 274.983 655.274 278.888 655.786 282.791C655.827 282.967 655.802 283.154 655.717 283.312C655.631 283.47 655.491 283.587 655.325 283.641C655.156 283.688 654.976 283.665 654.824 283.574C654.672 283.484 654.56 283.334 654.512 283.158L654.509 283.159Z" fill="#F2F2F2"/>
<path d="M707.1 399.757L0.900646 400C0.662266 399.999 0.43389 399.9 0.265573 399.723C0.097256 399.546 0.00273132 399.307 0.00273132 399.057C0.00273132 398.808 0.097256 398.569 0.265573 398.392C0.43389 398.215 0.662266 398.116 0.900646 398.115L707.1 397.872C707.338 397.872 707.566 397.972 707.735 398.149C707.903 398.325 707.998 398.565 707.998 398.814C707.998 399.064 707.903 399.303 707.735 399.48C707.566 399.656 707.338 399.756 707.1 399.757Z" fill="#CACACA"/>
<path d="M78.353 147.945C76.6202 148.815 74.6805 147.505 73.1845 146.208L73.7196 146.692C71.0756 149.384 69.8394 153.258 69.2354 157.071C68.6307 160.881 68.5633 164.777 67.802 168.559C67.0402 172.337 65.4598 176.134 62.5078 178.448C58.5531 181.547 53.0987 181.348 48.2455 180.398C48.1808 180.384 48.1206 180.374 48.0559 180.36C49.3617 176.414 49.8926 172.232 49.6165 168.066C48.3156 172.241 46.101 176.04 43.1491 179.161C39.9314 178.234 36.7906 177.037 33.7575 175.579C31.795 174.634 29.6819 173.341 29.1372 171.152C28.5912 168.979 29.8592 166.701 31.5547 165.329C33.2502 163.957 35.3312 163.241 37.2628 162.264C39.1912 161.292 41.0995 159.905 41.8716 157.811C43.6525 152.995 38.5793 147.468 40.5564 142.734C41.5314 140.406 43.9195 139.14 46.1641 138.163C49.5908 136.677 53.1095 135.435 56.6962 134.445C59.8448 133.576 63.1325 132.9 66.34 133.47C69.5475 134.04 72.6899 136.082 73.8443 139.27C75.7705 139.952 77.8155 140.72 79.0517 142.417C80.2873 144.11 80.1877 147.024 78.353 147.945Z" fill="#2F2E41"/>
<path d="M93.7713 142.364C88.8141 138.267 84.806 138.967 81.7141 141.512C81.1943 140.906 78.9822 142.572 78.2332 142.332L75.5243 147.655C74.1303 150.23 73.5583 152.858 73.7837 154.337C71.2195 161.864 77.3001 166.947 84.491 169.63C87.3604 170.709 90.4911 170.756 93.389 169.765L93.4774 168.483L94.022 169.534C94.022 169.534 100.596 183.702 102.149 184.338C101.207 181.779 98.7206 169.615 98.0267 167.079C97.0752 163.63 97.7252 158.149 98.2844 154.789C98.6329 152.717 98.6512 150.599 98.3384 148.521L98.3245 148.431L99.8626 151.68L103.314 149.409C101.995 145.388 101.968 140.578 93.7713 142.364Z" fill="#2F2E41"/>
</g>
<defs>
<clipPath id="clip0_4_2">
<rect width="708" height="400" fill="white"/>
</clipPath>
</defs>
</svg>
