<svg width="474" height="436" viewBox="0 0 474 436" fill="none" xmlns="http://www.w3.org/2000/svg">
<path d="M431.837 349.305L393.359 292.417C393.359 292.417 451.63 312.665 445.017 349.305H431.837Z" fill="#E5E5E5"/>
<path d="M32.9845 349.683L31.5238 349.654C32.0887 333.488 33.8216 317.384 36.709 301.466C43.0255 267.386 53.5286 245.003 67.9267 234.941L68.7655 236.131C35.1314 259.636 33.0016 348.784 32.9845 349.683Z" fill="#E5E5E5"/>
<path d="M51.2434 349.335L49.7827 349.306C49.8141 347.696 50.727 309.75 65.7356 299.261L66.5744 300.451C52.1713 310.516 51.2505 348.948 51.2434 349.335Z" fill="#E5E5E5"/>
<path d="M77.0754 236.263C81.109 236.263 84.379 233.008 84.379 228.993C84.379 224.978 81.109 221.724 77.0754 221.724C73.0418 221.724 69.7719 224.978 69.7719 228.993C69.7719 233.008 73.0418 236.263 77.0754 236.263Z" fill="#DBA1FF"/>
<path d="M73.4586 298.781C77.4922 298.781 80.7621 295.527 80.7621 291.512C80.7621 287.497 77.4922 284.242 73.4586 284.242C69.4249 284.242 66.155 287.497 66.155 291.512C66.155 295.527 69.4249 298.781 73.4586 298.781Z" fill="#DBA1FF"/>
<path d="M47.839 240.621C49.2116 249.347 45.6342 257.152 45.6342 257.152C45.6342 257.152 39.8313 250.809 38.4587 242.082C37.0861 233.356 40.6636 225.551 40.6636 225.551C40.6636 225.551 46.4664 231.894 47.839 240.621Z" fill="#E5E5E5"/>
<path d="M71.7123 261.814C63.3183 264.68 54.9734 262.534 54.9734 262.534C54.9734 262.534 60.2378 255.741 68.6317 252.875C77.0256 250.009 85.3706 252.156 85.3706 252.156C85.3706 252.156 80.1062 258.948 71.7123 261.814Z" fill="#E5E5E5"/>
<path d="M71.9819 317.18C68.1829 318.368 64.1371 318.542 60.2494 317.685C62.7179 314.556 66.0425 312.205 69.8227 310.915C73.6029 309.624 77.6774 309.449 81.5553 310.41C79.0147 313.462 75.7135 315.797 71.9819 317.18Z" fill="#E5E5E5"/>
<path d="M473.27 350.759H0.730354C0.536652 350.759 0.350894 350.682 0.213926 350.546C0.0769584 350.41 0 350.225 0 350.032C0 349.839 0.0769584 349.654 0.213926 349.518C0.350894 349.382 0.536652 349.305 0.730354 349.305H473.27C473.463 349.305 473.649 349.382 473.786 349.518C473.923 349.654 474 349.839 474 350.032C474 350.225 473.923 350.41 473.786 350.546C473.649 350.682 473.463 350.759 473.27 350.759Z" fill="#CBCBCB"/>
<path d="M299.293 384.272L293.318 399.751L230.49 384.177L239.309 361.331L299.293 384.272Z" fill="#FFB7B7"/>
<path d="M315.892 386.088L296.626 436L295.992 435.758C290.815 433.778 286.641 429.833 284.387 424.79C282.133 419.747 281.984 414.019 283.972 408.867L283.973 408.866L295.74 378.381L315.892 386.088Z" fill="#2F2E41"/>
<path d="M203.824 190.457L176.444 193.009L175.086 274.095C175.449 278.069 177.36 281.744 180.412 284.332C183.463 286.92 187.412 288.215 191.411 287.941L208.771 286.751L203.824 190.457Z" fill="#E5E5E5"/>
<path d="M300.349 186.467L281.615 186.227L280.505 282.575C284.645 282.712 288.769 281.999 292.619 280.48C296.47 278.961 299.965 276.668 302.886 273.745C305.807 270.822 308.092 267.331 309.598 263.49C311.103 259.649 311.798 255.541 311.638 251.421L300.349 186.467Z" fill="#E5E5E5"/>
<path d="M191.646 316.802C191.202 319.597 190.558 322.356 189.718 325.06C188.773 327.705 187.314 330.152 186.449 332.826C183.694 341.347 187.514 350.847 193.614 357.424C198.904 363.105 205.733 367.141 213.276 369.045C218.779 370.423 224.502 370.621 230.173 370.813C245.878 371.343 261.986 371.817 276.867 366.793C281.569 365.167 286.11 363.114 290.433 360.659C291.798 360.012 293.001 359.069 293.953 357.9C295.088 356.292 295.234 354.206 295.224 352.241C295.19 345.614 293.841 339.021 294.161 332.402C294.338 328.736 295.028 325.072 294.688 321.417C294.219 317.266 292.472 313.361 289.687 310.237C286.901 307.112 283.214 304.92 279.129 303.962C274.908 303.059 270.529 303.551 266.231 303.962C255.075 305.029 243.872 305.528 232.665 305.456C221.214 305.383 209.834 303.644 198.44 303.462C195.07 303.408 195.138 304.442 194.066 307.688C193.077 310.676 192.269 313.719 191.646 316.802Z" fill="#2F2E41"/>
<path d="M146.868 311.417C143.789 310.646 140.617 310.311 137.443 310.419C134.11 310.603 130.853 311.491 127.891 313.024C124.928 314.557 122.327 316.7 120.261 319.311C118.196 321.922 116.712 324.941 115.909 328.167C115.106 331.393 115.002 334.752 115.604 338.021C116.373 341.562 117.63 344.98 119.339 348.179C121.839 353.228 124.836 358.265 129.464 361.501C132.17 363.393 135.303 364.573 138.399 365.734L162.77 374.872C166.355 376.217 169.941 377.561 173.562 378.808C191.752 385.066 210.716 388.819 229.928 389.962C235.78 390.308 241.721 390.405 247.43 389.079C248.784 388.764 250.229 388.295 251.014 387.152C251.478 386.346 251.752 385.445 251.815 384.519L253.314 374.069C253.525 372.598 253.729 371.049 253.187 369.664C252.5 367.908 250.778 366.803 249.136 365.864C233.114 356.705 214.406 351.651 200.92 339.08C197.745 336.121 195.088 331.429 191.231 329.419C186.856 327.139 181.705 325.838 177.184 323.738C167.299 319.145 157.581 313.868 146.868 311.417Z" fill="#2F2E41"/>
<path opacity="0.1" d="M171.199 325.504C179.813 328.191 216.182 346.804 222.416 353.303C221.58 353.603 193.23 337.789 192.38 337.535C184.647 335.225 176.871 332.9 169.528 329.519C168.051 328.839 159.931 325.643 160.298 323.787C160.713 321.694 169.67 325.027 171.199 325.504Z" fill="black"/>
<path d="M223.186 163.203L199.993 180.731C199.993 180.731 175.52 181.494 176.347 197.065C177.174 212.637 186.969 286.363 186.969 286.363L189.094 311.73L229.404 323.163C251.185 329.34 274.196 329.831 296.222 324.588L291.432 299.139C291.432 299.139 310.829 183.558 299.143 178.47C287.458 173.381 280.154 174.835 280.154 174.835L265.507 162.113L223.186 163.203Z" fill="#E5E5E5"/>
<path d="M291.84 134.891C291.84 157.646 270.701 154.204 244.626 154.204C218.55 154.204 197.411 157.646 197.411 134.891C197.411 112.136 207.737 71.8022 244.626 71.8022C282.785 71.8022 291.84 112.136 291.84 134.891Z" fill="#2F2E41"/>
<path d="M269.169 142.603C281.576 130.253 281.576 110.23 269.169 97.8809C256.761 85.5313 236.645 85.5313 224.238 97.8809C211.831 110.23 211.831 130.253 224.238 142.603C236.645 154.952 256.761 154.952 269.169 142.603Z" fill="#FFB7B7"/>
<path d="M207.76 119.441H220.326L225.869 103.99L226.978 119.441H232.984L236.218 110.428L236.864 119.441H281.492C281.492 110.562 277.948 102.048 271.641 95.7696C265.334 89.4917 256.779 85.9648 247.859 85.9648H241.392C232.472 85.9648 223.917 89.4917 217.61 95.7696C211.303 102.048 207.76 110.562 207.76 119.441Z" fill="#2F2E41"/>
<path d="M276.502 166.838H212.962V243.169H276.502V166.838Z" fill="#DBA1FF"/>
<path d="M216.463 383.545L222.439 399.024L285.267 383.451L276.448 360.604L216.463 383.545Z" fill="#FFB7B7"/>
<path d="M220.017 377.654L231.784 408.139L231.785 408.14C233.773 413.292 233.624 419.02 231.37 424.063C229.116 429.106 224.941 433.051 219.765 435.03L219.131 435.273L199.865 385.361L220.017 377.654Z" fill="#2F2E41"/>
<path d="M342.05 305.491C347.098 304.232 352.33 303.876 357.502 304.441C361.633 304.893 365.889 306.038 368.906 308.884C372.577 312.347 373.756 317.704 373.854 322.738C374.016 332.765 370.675 342.536 364.402 350.382C362.871 352.367 361.049 354.112 358.998 355.56C356.786 356.938 354.428 358.069 351.967 358.933L297.39 380.36C283.031 385.997 268.622 391.65 253.646 395.366C252.832 395.758 251.895 395.811 251.041 395.515C250.187 395.218 249.487 394.596 249.094 393.786C249.082 393.761 249.07 393.736 249.059 393.711C244.277 386.912 240.265 379.608 237.097 371.931C236.947 371.749 236.843 371.533 236.795 371.302C236.746 371.072 236.754 370.833 236.818 370.606C236.882 370.379 237 370.17 237.162 369.998C237.324 369.826 237.525 369.695 237.748 369.617L276.352 347.54C279.117 345.959 281.913 344.354 284.209 342.152C285.877 340.542 287.243 338.649 288.243 336.562C289.043 334.898 289.118 330.972 290.14 329.743C291.14 328.539 294.564 328.443 296.145 327.969C298.375 327.289 300.558 326.468 302.682 325.509C311.318 321.664 319.007 316.077 327.285 311.575C331.928 308.933 336.89 306.888 342.05 305.491Z" fill="#2F2E41"/>
<path opacity="0.1" d="M320.166 321.979C313.533 326.937 304.946 331.494 298.373 336.583C296.129 338.32 258.732 359.247 258.203 362.026C264.336 363.055 303.4 335.854 308.989 333.139C314.578 330.425 319.532 326.598 324.442 322.798C325.693 321.83 330.996 318.919 327.404 317.837C325.381 317.228 321.659 320.987 320.166 321.979Z" fill="black"/>
<path d="M439.372 130.646C451.976 130.646 462.194 120.475 462.194 107.93C462.194 95.3841 451.976 85.2139 439.372 85.2139C426.767 85.2139 416.549 95.3841 416.549 107.93C416.549 120.475 426.767 130.646 439.372 130.646Z" fill="#F1F1F1"/>
<path d="M397.134 134.714C405.975 134.714 413.143 127.579 413.143 118.779C413.143 109.978 405.975 102.844 397.134 102.844C388.292 102.844 381.124 109.978 381.124 118.779C381.124 127.579 388.292 134.714 397.134 134.714Z" fill="#F1F1F1"/>
<path d="M103.866 124.319C110.956 124.319 116.703 118.599 116.703 111.542C116.703 104.486 110.956 98.7651 103.866 98.7651C96.7766 98.7651 91.0294 104.486 91.0294 111.542C91.0294 118.599 96.7766 124.319 103.866 124.319Z" fill="#F1F1F1"/>
<path d="M125 132.911C129.974 132.911 134.005 128.898 134.005 123.948C134.005 118.998 129.974 114.985 125 114.985C120.027 114.985 115.996 118.998 115.996 123.948C115.996 128.898 120.027 132.911 125 132.911Z" fill="#F1F1F1"/>
<path d="M249.528 19.5338C254.948 19.5338 259.341 15.161 259.341 9.76689C259.341 4.37278 254.948 0 249.528 0C244.109 0 239.716 4.37278 239.716 9.76689C239.716 15.161 244.109 19.5338 249.528 19.5338Z" fill="#F1F1F1"/>
<path opacity="0.17" d="M191.051 215.545L191.928 208.806C191.928 208.806 224.647 211.183 219.535 219.18C214.422 227.176 202.006 227.903 202.006 227.903L191.051 215.545Z" fill="#2F2E41"/>
<path d="M215.749 186.243C217.623 186.448 219.428 187.064 221.035 188.046C222.642 189.028 224.01 190.352 225.042 191.922C225.982 193.356 226.622 194.964 226.922 196.649C227.223 198.335 227.178 200.063 226.79 201.731C226.402 203.399 225.68 204.971 224.666 206.354C223.653 207.737 222.369 208.902 220.892 209.779C220.35 210.097 219.785 210.374 219.2 210.606L199.089 271.836C198.506 273.044 197.69 274.126 196.685 275.019C195.681 275.912 194.51 276.598 193.238 277.039C191.967 277.48 190.62 277.666 189.276 277.587C187.932 277.508 186.617 277.165 185.406 276.578C184.196 275.992 183.113 275.173 182.222 274.169C181.33 273.164 180.647 271.994 180.211 270.726C179.775 269.458 179.596 268.117 179.682 266.78C179.769 265.442 180.121 264.135 180.717 262.933L202.104 202.383C201.522 200.38 201.444 198.264 201.879 196.224C202.313 194.184 203.246 192.281 204.595 190.685C205.944 189.09 207.668 187.849 209.613 187.074C211.559 186.299 213.666 186.014 215.749 186.243Z" fill="#FFB7B7"/>
<path d="M191.351 209.38C191.351 209.38 202.875 228.977 219.535 219.18L203.389 280.679H189.786L175.714 278.063L179.654 252.654L191.351 209.38Z" fill="#E5E5E5"/>
<path d="M273.633 222.774L264.086 209.729C264.086 209.729 268.675 196.198 286.465 201.146C286.465 201.146 297.786 226.369 273.633 222.774Z" fill="#E5E5E5"/>
<path opacity="0.17" d="M273.633 222.774L264.086 209.729C264.086 209.729 268.675 196.198 286.465 201.146C286.465 201.146 297.786 226.369 273.633 222.774Z" fill="#2F2E41"/>
<path d="M276.16 177.197C278.914 178.471 281.117 180.687 282.368 183.441C283.62 186.196 283.836 189.306 282.978 192.206L304.365 252.756C304.961 253.958 305.313 255.265 305.4 256.602C305.487 257.94 305.307 259.281 304.871 260.549C304.435 261.817 303.752 262.987 302.86 263.992C301.969 264.996 300.887 265.815 299.676 266.402C298.465 266.988 297.15 267.331 295.806 267.41C294.462 267.489 293.115 267.303 291.844 266.862C290.572 266.421 289.4 265.735 288.396 264.842C287.392 263.949 286.575 262.867 285.993 261.659L265.881 200.429C265.297 200.196 264.732 199.92 264.19 199.601C262.713 198.725 261.429 197.56 260.415 196.177C259.402 194.794 258.679 193.221 258.292 191.554C257.904 189.886 257.859 188.157 258.16 186.472C258.46 184.786 259.099 183.178 260.04 181.745C261.072 180.174 262.44 178.85 264.047 177.868C265.654 176.886 267.459 176.271 269.333 176.065C271.67 175.802 274.035 176.193 276.16 177.197Z" fill="#FFB7B7"/>
<path d="M264.086 209.729C264.086 209.729 279.837 219.241 286.465 201.146L308.66 259.313L302.065 270.793L301.111 270.872C297.177 271.199 293.222 270.57 289.585 269.04C285.949 267.509 282.74 265.123 280.235 262.086C275.124 255.892 271.645 248.528 270.112 240.659L264.086 209.729Z" fill="#E5E5E5"/>
</svg>
