<svg width="35" height="35" viewBox="0 0 35 35" fill="none" xmlns="http://www.w3.org/2000/svg">
<path d="M6.30001 34.3H28.7V31.5H34.3V23.1C34.3 19.0162 31.5959 15.5533 27.8845 14.4053C29.6345 13.2846 30.8 11.3274 30.8 9.1C30.8 5.6266 27.9741 2.8 24.5 2.8C23.9015 2.8 23.3079 2.8896 22.7283 3.0611C21.4452 1.617 19.5797 0.699997 17.5 0.699997C15.4203 0.699997 13.5548 1.617 12.2717 3.0611C11.6921 2.8896 11.0985 2.8 10.5 2.8C7.02591 2.8 4.20001 5.6266 4.20001 9.1C4.20001 11.3274 5.36551 13.2846 7.11551 14.4053C3.40411 15.5533 0.700012 19.0162 0.700012 23.1V31.5H6.30001V34.3ZM27.3 32.9H7.70001V31.5V22.4C7.70001 22.1662 7.71471 21.9352 7.73501 21.7063C7.74201 21.6314 7.75111 21.5572 7.75951 21.4823C7.77841 21.3241 7.80291 21.168 7.83161 21.0133C7.84631 20.9349 7.85821 20.8558 7.87501 20.7781C7.91841 20.5772 7.96951 20.3798 8.02761 20.1845C8.05701 20.0879 8.09201 19.9941 8.12491 19.8989C8.16271 19.7883 8.20261 19.6791 8.24531 19.5706C8.28661 19.4663 8.33001 19.3627 8.37551 19.2605C8.42031 19.1604 8.46931 19.0624 8.51831 18.9644C8.58971 18.8216 8.66531 18.6816 8.74511 18.5437C8.81511 18.424 8.88511 18.3043 8.96071 18.1888C9.01951 18.0992 9.08251 18.0124 9.14481 17.9249C9.21061 17.8325 9.27851 17.7415 9.34851 17.6526C9.41291 17.5707 9.47731 17.4895 9.54521 17.4104C9.63341 17.3075 9.72511 17.2081 9.81821 17.1101C9.90431 17.0191 9.99251 16.9295 10.0828 16.8427C10.1941 16.7363 10.3068 16.632 10.4244 16.5319C10.5014 16.4668 10.5812 16.4045 10.661 16.3422C10.7527 16.2708 10.8451 16.2008 10.9403 16.1336C11.0285 16.0706 11.1167 16.0083 11.2084 15.9488C11.3008 15.8886 11.396 15.8333 11.4905 15.7773C11.669 15.6716 11.8524 15.5729 12.0407 15.4812C12.1352 15.435 12.2283 15.3867 12.3249 15.344L12.4376 15.2936C13.3504 14.9121 14.3507 14.7 15.4 14.7H19.6C20.6493 14.7 21.6496 14.9121 22.5617 15.2943L22.6744 15.3447C22.771 15.3867 22.8641 15.4357 22.9586 15.4819C23.1469 15.5736 23.3303 15.6723 23.5088 15.778C23.604 15.834 23.6992 15.8893 23.7909 15.9495C23.8819 16.009 23.9708 16.0713 24.059 16.1343C24.1535 16.2015 24.2466 16.2715 24.3383 16.3429C24.4181 16.4052 24.4979 16.4675 24.5749 16.5326C24.6925 16.632 24.8052 16.737 24.9165 16.8434C25.0075 16.9302 25.095 17.0198 25.1811 17.1108C25.2742 17.2088 25.3666 17.3082 25.4541 17.4111C25.5213 17.4902 25.5864 17.5714 25.6508 17.6533C25.7208 17.7422 25.7887 17.8332 25.8545 17.9256C25.9168 18.0131 25.9805 18.0992 26.0386 18.1895C26.1142 18.305 26.1849 18.4247 26.2542 18.5444C26.334 18.6823 26.4096 18.823 26.481 18.9651C26.53 19.0631 26.579 19.1611 26.6238 19.2612C26.67 19.3634 26.7127 19.467 26.754 19.5713C26.7967 19.6791 26.8359 19.789 26.8744 19.8996C26.9073 19.9948 26.9423 20.0893 26.9717 20.1852C27.0305 20.3798 27.0816 20.5779 27.1243 20.7788C27.1411 20.8565 27.1537 20.9356 27.1677 21.014C27.1957 21.1687 27.2209 21.3255 27.2398 21.483C27.2489 21.5572 27.258 21.6321 27.2643 21.707C27.2853 21.9352 27.3 22.1662 27.3 22.4V31.5V32.9ZM32.9 23.1V30.1H28.7V22.4C28.7 22.0675 28.6797 21.7399 28.6447 21.4165C28.6363 21.3402 28.6202 21.266 28.6104 21.1904C28.5768 20.9405 28.5376 20.692 28.4844 20.4491C28.4669 20.3693 28.4431 20.2923 28.4235 20.2132C28.3647 19.9759 28.2996 19.7414 28.2226 19.5118C28.1967 19.4341 28.1666 19.3585 28.1386 19.2822C28.056 19.0561 27.9657 18.8335 27.8663 18.6165C27.8313 18.5402 27.7942 18.4646 27.7564 18.3897C27.6521 18.1776 27.5401 17.9711 27.4197 17.7688C27.3756 17.6946 27.3315 17.6204 27.2846 17.5469C27.1586 17.3488 27.0249 17.157 26.8849 16.9694C26.8338 16.9008 26.7848 16.8315 26.7316 16.7643C26.5783 16.5704 26.4152 16.3849 26.2465 16.2043C26.1989 16.1532 26.1548 16.0993 26.1058 16.0496C25.8846 15.8228 25.6536 15.6058 25.41 15.4035C29.5589 15.5148 32.9 18.9245 32.9 23.1ZM23.6061 4.2847C23.9015 4.2287 24.1997 4.2 24.5 4.2C27.2013 4.2 29.4 6.398 29.4 9.1C29.4 11.802 27.2013 14 24.5 14C23.5389 14 22.6142 13.72 21.8218 13.1992C21.8323 13.1915 21.8407 13.1817 21.8505 13.1733C22.4532 12.6938 22.9726 12.117 23.3898 11.4667C23.4031 11.4457 23.415 11.4247 23.4283 11.4037C23.5494 11.2105 23.6607 11.0117 23.7629 10.8066C23.7797 10.773 23.7951 10.7394 23.8112 10.7058C23.9043 10.5119 23.9876 10.3131 24.0625 10.1094C24.0779 10.0674 24.094 10.0254 24.1087 9.9834C24.1766 9.7881 24.2347 9.5886 24.2851 9.3856C24.2977 9.3352 24.3124 9.2855 24.3236 9.2351C24.3684 9.037 24.402 8.8354 24.4293 8.631C24.437 8.5771 24.4482 8.5239 24.4538 8.4693C24.4832 8.2173 24.5 7.9604 24.5 7.7C24.5 7.4228 24.4797 7.1512 24.4482 6.8824C24.4384 6.797 24.4223 6.713 24.409 6.6276C24.3796 6.44 24.3446 6.2545 24.3012 6.0718C24.2802 5.9829 24.2578 5.8947 24.2333 5.8072C24.1766 5.6049 24.1101 5.4068 24.0359 5.2129C24.0149 5.159 23.9981 5.1037 23.9764 5.0505C23.87 4.7915 23.7489 4.5409 23.6131 4.298C23.6096 4.2931 23.6082 4.2889 23.6061 4.2847ZM21.8141 4.1335L21.8568 4.1888C21.8911 4.2315 21.9219 4.2763 21.9548 4.3197C22.3118 4.7894 22.5848 5.3011 22.7766 5.8408C22.7892 5.8758 22.8032 5.9101 22.8151 5.9458C22.8984 6.1971 22.9614 6.454 23.0083 6.7158C23.0181 6.7704 23.0258 6.8264 23.0335 6.8817C23.0727 7.1512 23.1 7.4235 23.1 7.7C23.1 7.9296 23.0825 8.1564 23.0545 8.3811C23.0482 8.4336 23.0384 8.4854 23.0307 8.5379C23.002 8.7234 22.9663 8.9068 22.9194 9.0867C22.9096 9.1245 22.9005 9.163 22.89 9.2008C22.7633 9.6516 22.5827 10.0842 22.3503 10.4874C22.3461 10.4944 22.3419 10.5014 22.3377 10.5084C22.225 10.7023 22.099 10.8892 21.9632 11.0684C21.9506 11.0845 21.9387 11.1013 21.9261 11.1181C21.6412 11.487 21.3094 11.8209 20.9363 12.1121C20.9146 12.1289 20.8915 12.145 20.8698 12.1618C20.6969 12.2927 20.5163 12.4145 20.3273 12.5258C20.2937 12.5454 20.2622 12.5671 20.2279 12.586L20.1481 12.6322C19.3585 13.0578 18.4576 13.3 17.5 13.3C16.5424 13.3 15.6415 13.0578 14.8526 12.6322L14.7728 12.586C14.7392 12.5671 14.707 12.5454 14.6734 12.5258C14.4844 12.4145 14.3038 12.2927 14.1309 12.1618C14.1085 12.145 14.0861 12.1289 14.0644 12.1121C13.692 11.8209 13.3602 11.487 13.0746 11.1181C13.062 11.102 13.0501 11.0852 13.0375 11.0684C12.9017 10.8892 12.7764 10.7023 12.663 10.5084C12.6588 10.5014 12.6546 10.4944 12.6504 10.4874C12.4173 10.0835 12.2367 9.6509 12.11 9.2001C12.0995 9.163 12.0904 9.1245 12.0806 9.0874C12.0337 8.9068 11.998 8.7234 11.9693 8.5379C11.9616 8.4854 11.9518 8.4343 11.9455 8.3811C11.9175 8.1564 11.9 7.9296 11.9 7.7C11.9 7.4235 11.9273 7.1512 11.9665 6.8824C11.9749 6.8271 11.9819 6.7718 11.9917 6.7165C12.0386 6.4554 12.1016 6.1978 12.1849 5.9465C12.1968 5.9108 12.2108 5.8765 12.2234 5.8415C12.4152 5.3018 12.6882 4.7894 13.0452 4.3204C13.0781 4.277 13.1089 4.2315 13.1432 4.1895L13.1859 4.1342C14.2142 2.8924 15.7661 2.1 17.5 2.1C19.2339 2.1 20.7858 2.8924 21.8141 4.1335ZM5.60001 9.1C5.60001 6.398 7.79871 4.2 10.5 4.2C10.8003 4.2 11.0985 4.2287 11.3939 4.2847C11.3918 4.2889 11.3897 4.2938 11.3876 4.298C11.2525 4.5402 11.1307 4.7908 11.0243 5.0498C11.0019 5.1037 10.9851 5.159 10.9641 5.2136C10.8899 5.4075 10.8234 5.6056 10.7667 5.8072C10.7422 5.8947 10.7198 5.9829 10.6988 6.0718C10.6554 6.2545 10.6204 6.44 10.591 6.6276C10.5777 6.7123 10.5623 6.7963 10.5518 6.8824C10.5203 7.1512 10.5 7.4228 10.5 7.7C10.5 7.9604 10.5168 8.2173 10.5448 8.47C10.5511 8.5246 10.5623 8.5771 10.5693 8.631C10.5966 8.8354 10.6309 9.0377 10.675 9.2358C10.6862 9.2862 10.7009 9.3352 10.7135 9.3849C10.7639 9.5879 10.822 9.7881 10.8899 9.9841C10.9046 10.0268 10.9207 10.0681 10.9361 10.1108C11.011 10.3138 11.095 10.5126 11.1874 10.7065C11.2035 10.7401 11.2196 10.7744 11.2364 10.808C11.3386 11.0131 11.4499 11.2119 11.571 11.4051C11.5843 11.4261 11.5962 11.4471 11.6095 11.4681C12.0267 12.1184 12.5468 12.6945 13.1488 13.1747C13.1586 13.1831 13.1677 13.1922 13.1775 13.2006C12.3858 13.72 11.4611 14 10.5 14C7.79871 14 5.60001 11.802 5.60001 9.1ZM2.10001 30.1V23.1C2.10001 18.9245 5.44111 15.5148 9.59071 15.4028C9.34711 15.6051 9.11611 15.8228 8.89491 16.0489C8.84591 16.0986 8.80181 16.1525 8.75421 16.2036C8.58551 16.3842 8.42241 16.5697 8.26841 16.7643C8.21591 16.8308 8.16691 16.9001 8.11581 16.9687C7.97511 17.1563 7.84141 17.3481 7.71541 17.5469C7.66921 17.6204 7.62511 17.6939 7.58031 17.7688C7.45991 17.9711 7.34791 18.1776 7.24361 18.3897C7.20651 18.4653 7.16941 18.5402 7.13371 18.6165C7.03361 18.8335 6.94401 19.0561 6.86141 19.2822C6.83341 19.3592 6.80331 19.4341 6.77741 19.5118C6.70041 19.7421 6.63531 19.9766 6.57581 20.2146C6.55621 20.293 6.53311 20.37 6.51561 20.4491C6.46241 20.6927 6.42321 20.9412 6.38961 21.1918C6.37911 21.2674 6.36371 21.3409 6.35531 21.4172C6.32031 21.7399 6.30001 22.0675 6.30001 22.4V30.1H2.10001Z" fill="#E7E7E7"/>
</svg>
