<svg width="795" height="478" viewBox="0 0 795 478" fill="none" xmlns="http://www.w3.org/2000/svg">
<g clip-path="url(#clip0_11_503)">
<path d="M310.58 426.979C306.396 428.73 301.832 429.37 297.329 428.837C292.825 428.305 288.534 426.617 284.869 423.938C275.523 416.94 272.02 404.73 269.09 393.406L260.423 359.912L275.064 368.836C285.593 375.254 296.363 381.883 303.956 391.618C311.55 401.352 315.403 415.014 310.396 426.304" fill="#E6E6E6"/>
<path d="M307.457 469.362C308.885 458.926 310.353 448.356 309.352 437.808C308.462 428.441 305.614 419.291 299.815 411.789C296.738 407.815 292.992 404.41 288.748 401.727C287.642 401.026 286.623 402.786 287.725 403.483C295.068 408.14 300.748 415.017 303.946 423.122C307.477 432.135 308.044 441.96 307.436 451.534C307.068 457.324 306.288 463.076 305.502 468.821C305.44 469.081 305.478 469.355 305.61 469.587C305.741 469.819 305.956 469.993 306.21 470.072C306.469 470.143 306.745 470.107 306.979 469.974C307.212 469.841 307.384 469.621 307.457 469.362Z" fill="#F2F2F2"/>
<path d="M293.704 450.895C291.87 453.693 289.348 455.97 286.382 457.506C283.416 459.042 280.106 459.786 276.77 459.665C268.197 459.257 261.051 453.253 254.617 447.554L235.588 430.696L248.182 430.091C257.239 429.656 266.53 429.25 275.156 432.053C283.782 434.855 291.738 441.6 293.315 450.559" fill="#E6E6E6"/>
<path d="M311.492 475.361C304.62 463.159 296.649 449.599 282.405 445.264C278.445 444.063 274.292 443.633 270.171 443.997C268.872 444.109 269.196 446.118 270.493 446.006C277.401 445.431 284.296 447.261 290.017 451.189C295.522 454.949 299.808 460.177 303.436 465.72C305.659 469.115 307.649 472.655 309.64 476.19C310.276 477.319 312.136 476.504 311.492 475.361V475.361Z" fill="#F2F2F2"/>
<path d="M495.692 230.928L345.863 355.532C343.977 357.096 341.551 357.846 339.115 357.617C336.68 357.388 334.434 356.199 332.871 354.311L269.711 277.845C268.152 275.953 267.404 273.518 267.632 271.074C267.86 268.63 269.045 266.377 270.927 264.808L420.756 140.205C422.642 138.641 425.068 137.891 427.504 138.12C429.939 138.348 432.185 139.537 433.748 141.425L496.908 217.892C498.467 219.784 499.215 222.219 498.987 224.662C498.759 227.106 497.574 229.36 495.692 230.928Z" fill="#CCCCCC"/>
<path d="M489.688 227.176L343.303 348.915C342.332 349.721 341.082 350.107 339.827 349.989C338.572 349.871 337.415 349.259 336.61 348.286L276.305 275.276C275.501 274.301 275.116 273.047 275.234 271.788C275.351 270.529 275.962 269.368 276.931 268.56L423.316 146.821C424.287 146.016 425.538 145.629 426.792 145.747C428.047 145.865 429.204 146.477 430.009 147.45L490.315 220.461C491.118 221.435 491.503 222.689 491.385 223.948C491.268 225.207 490.658 226.368 489.688 227.176Z" fill="white"/>
<path d="M496.436 252.66L466.328 249.832L487.877 232.814L499.486 246.868C499.938 247.405 500.219 248.066 500.291 248.765C500.363 249.464 500.223 250.168 499.889 250.786C499.67 251.206 499.371 251.578 499.009 251.881C498.652 252.175 498.242 252.395 497.8 252.529C497.359 252.663 496.895 252.707 496.436 252.66Z" fill="#CCCCCC"/>
<path d="M435.975 198.547L361.921 260.133C361.469 260.509 360.947 260.792 360.385 260.966C359.824 261.14 359.234 261.201 358.649 261.146C358.064 261.091 357.496 260.921 356.976 260.646C356.457 260.37 355.997 259.995 355.622 259.541C355.247 259.087 354.965 258.564 354.792 258.001C354.618 257.437 354.557 256.845 354.612 256.258C354.667 255.671 354.836 255.101 355.111 254.58C355.385 254.059 355.759 253.597 356.211 253.221L430.265 191.635C430.717 191.259 431.239 190.976 431.801 190.802C432.362 190.628 432.952 190.567 433.537 190.622C434.122 190.677 434.69 190.847 435.21 191.122C435.729 191.398 436.189 191.773 436.564 192.227C436.939 192.681 437.221 193.204 437.394 193.767C437.568 194.331 437.629 194.923 437.574 195.51C437.519 196.096 437.35 196.667 437.075 197.188C436.801 197.709 436.427 198.171 435.975 198.547Z" fill="#CCCCCC"/>
<path d="M399.732 203.91L349.788 245.444C348.875 246.204 347.698 246.568 346.517 246.457C345.335 246.347 344.246 245.769 343.489 244.853C342.732 243.936 342.369 242.755 342.48 241.57C342.59 240.384 343.165 239.292 344.079 238.532L394.022 196.998C394.936 196.238 396.113 195.873 397.294 195.984C398.475 196.095 399.564 196.673 400.321 197.589C401.078 198.506 401.442 199.687 401.331 200.872C401.22 202.057 400.645 203.15 399.732 203.91Z" fill="#CCCCCC"/>
<path d="M322.345 288.854C330.066 288.854 336.325 282.573 336.325 274.826C336.325 267.079 330.066 260.798 322.345 260.798C314.624 260.798 308.365 267.079 308.365 274.826C308.365 282.573 314.624 288.854 322.345 288.854Z" fill="#DBA1FF"/>
<path d="M433.549 246.708C436.02 246.708 438.023 244.698 438.023 242.219C438.023 239.74 436.02 237.73 433.549 237.73C431.079 237.73 429.076 239.74 429.076 242.219C429.076 244.698 431.079 246.708 433.549 246.708Z" fill="#E6E6E6"/>
<path d="M445.605 236.682C448.075 236.682 450.078 234.672 450.078 232.193C450.078 229.714 448.075 227.704 445.605 227.704C443.134 227.704 441.131 229.714 441.131 232.193C441.131 234.672 443.134 236.682 445.605 236.682Z" fill="#E6E6E6"/>
<path d="M457.66 226.657C460.13 226.657 462.133 224.647 462.133 222.168C462.133 219.689 460.13 217.679 457.66 217.679C455.189 217.679 453.186 219.689 453.186 222.168C453.186 224.647 455.189 226.657 457.66 226.657Z" fill="#E6E6E6"/>
<path d="M386.357 467.544L396.627 467.543L401.513 427.794L386.355 427.795L386.357 467.544Z" fill="#FFB8B8"/>
<path d="M383.737 464.18L403.963 464.179H403.964C405.657 464.179 407.333 464.513 408.896 465.163C410.46 465.813 411.881 466.766 413.078 467.967C414.275 469.168 415.225 470.593 415.872 472.163C416.52 473.732 416.853 475.414 416.853 477.112V477.532L383.738 477.534L383.737 464.18Z" fill="#2F2E41"/>
<path d="M349.497 467.544L359.767 467.543L364.653 427.794L349.495 427.795L349.497 467.544Z" fill="#FFB8B8"/>
<path d="M346.877 464.18L367.103 464.179H367.104C368.797 464.179 370.473 464.513 372.037 465.163C373.6 465.813 375.021 466.766 376.218 467.967C377.415 469.168 378.365 470.593 379.012 472.163C379.66 473.732 379.994 475.414 379.994 477.112V477.532L346.878 477.534L346.877 464.18Z" fill="#2F2E41"/>
<path d="M359.803 455.382H359.801L351.068 455.379C350.091 455.383 349.151 455.004 348.448 454.323C347.744 453.642 347.334 452.713 347.302 451.733L347.027 444.066C344.819 382.753 342.536 319.353 356.675 290.857L356.786 290.633L403.598 288.933L412.996 375.438C413.398 379.128 413.251 382.857 412.561 386.504L400.137 452.194C399.969 453.085 399.488 453.885 398.781 454.45C398.074 455.014 397.189 455.305 396.286 455.269L386.476 454.95C385.962 454.93 385.458 454.804 384.994 454.581C384.531 454.358 384.118 454.042 383.78 453.653C383.443 453.264 383.188 452.809 383.032 452.318C382.876 451.826 382.821 451.308 382.872 450.795L390.578 390.038C390.841 387.416 390.604 384.767 389.879 382.234L380.295 348.615C380.216 348.337 380.044 348.095 379.808 347.929C379.572 347.763 379.286 347.684 378.999 347.704C378.711 347.725 378.439 347.843 378.229 348.041C378.018 348.238 377.882 348.502 377.842 348.789L363.537 452.12C363.408 453.022 362.961 453.849 362.275 454.448C361.59 455.047 360.712 455.378 359.803 455.382Z" fill="#2F2E41"/>
<path d="M365.401 202.447C376.765 202.447 385.977 193.204 385.977 181.802C385.977 170.4 376.765 161.156 365.401 161.156C354.038 161.156 344.826 170.4 344.826 181.802C344.826 193.204 354.038 202.447 365.401 202.447Z" fill="#FFB8B8"/>
<path d="M401.404 295.319H358.829C358.287 295.319 357.753 295.202 357.261 294.976C356.768 294.75 356.331 294.421 355.977 294.01C355.623 293.6 355.361 293.117 355.209 292.596C355.058 292.075 355.02 291.527 355.098 290.99L357.201 276.535L344.85 242.446C343.575 238.927 343.101 235.166 343.463 231.439C343.826 227.712 345.015 224.114 346.943 220.908C348.872 217.703 351.492 214.971 354.61 212.914C357.728 210.856 361.265 209.526 364.963 209.019C370.231 208.282 375.596 209.256 380.272 211.8C384.948 214.343 388.69 218.322 390.95 223.154L393.663 228.946L405.111 290.847C405.212 291.393 405.192 291.954 405.052 292.491C404.912 293.029 404.656 293.528 404.303 293.955C403.949 294.382 403.506 294.726 403.005 294.961C402.504 295.197 401.957 295.319 401.404 295.319H401.404Z" fill="#DBA1FF"/>
<path d="M311.528 331.578C312.809 331.28 314.01 330.703 315.045 329.888C316.08 329.074 316.925 328.041 317.52 326.863C318.114 325.686 318.444 324.392 318.487 323.072C318.529 321.753 318.282 320.44 317.764 319.227L350.94 244.018L331.962 239.221L305.319 314.657C303.345 315.666 301.808 317.366 301 319.435C300.191 321.504 300.168 323.799 300.933 325.885C301.698 327.971 303.199 329.702 305.152 330.752C307.105 331.801 309.373 332.095 311.528 331.578H311.528Z" fill="#FFB8B8"/>
<path d="M346.449 257.468L327.991 248.799C327.466 248.552 327 248.195 326.625 247.751C326.249 247.307 325.974 246.788 325.817 246.228C325.66 245.668 325.625 245.08 325.715 244.505C325.805 243.93 326.017 243.382 326.337 242.897L337.555 225.898C338.829 223.21 341.112 221.14 343.905 220.139C346.698 219.138 349.773 219.289 352.455 220.558C355.137 221.828 357.209 224.112 358.215 226.911C359.222 229.711 359.082 232.796 357.826 235.492L352.025 254.962C351.859 255.519 351.575 256.034 351.193 256.472C350.81 256.909 350.338 257.258 349.809 257.496C349.28 257.734 348.706 257.855 348.126 257.85C347.546 257.845 346.974 257.715 346.449 257.468H346.449Z" fill="#DBA1FF"/>
<path d="M449.921 138.044C450.321 139.301 450.442 140.632 450.275 141.941C450.108 143.25 449.657 144.507 448.953 145.623C448.25 146.738 447.311 147.685 446.203 148.398C445.095 149.11 443.845 149.569 442.541 149.744L395.152 216.852L381.328 202.952L432.257 141.358C432.109 139.14 432.777 136.945 434.134 135.189C435.492 133.433 437.444 132.237 439.622 131.828C441.799 131.42 444.05 131.827 445.948 132.972C447.846 134.118 449.26 135.922 449.921 138.044Z" fill="#FFB8B8"/>
<path d="M406.111 208.975C406.178 209.553 406.121 210.139 405.942 210.692C405.764 211.246 405.469 211.754 405.076 212.183L391.38 227.153C389.717 229.618 387.147 231.321 384.235 231.888C381.322 232.454 378.304 231.839 375.843 230.177C373.382 228.515 371.678 225.941 371.105 223.02C370.532 220.099 371.137 217.069 372.787 214.595L381.593 196.222C381.845 195.698 382.206 195.234 382.652 194.862C383.098 194.49 383.619 194.22 384.178 194.068C384.738 193.916 385.324 193.888 385.896 193.984C386.468 194.08 387.012 194.299 387.492 194.625L404.366 206.093C404.846 206.419 405.251 206.846 405.552 207.343C405.853 207.84 406.044 208.397 406.111 208.975Z" fill="#DBA1FF"/>
<path d="M392.436 173.16C392.423 171.292 392.164 169.433 391.666 167.632C388.352 155.341 376.114 147.964 363.833 149.815C361.445 149.128 358.972 148.781 356.487 148.783C350.167 148.783 344.054 151.051 339.254 155.177C334.454 159.303 331.282 165.016 330.312 171.283L320.392 235.363H374.006L382.663 179.443C382.984 177.365 383.06 175.256 382.888 173.16H392.436Z" fill="#2F2E41"/>
<path d="M459.073 478H282.313C282.091 478 281.878 477.911 281.721 477.754C281.564 477.596 281.475 477.382 281.475 477.159C281.475 476.936 281.564 476.723 281.721 476.565C281.878 476.407 282.091 476.319 282.313 476.319H459.073C459.295 476.319 459.508 476.407 459.665 476.565C459.822 476.723 459.91 476.936 459.91 477.159C459.91 477.382 459.822 477.596 459.665 477.754C459.508 477.911 459.295 478 459.073 478Z" fill="#CCCCCC"/>
<path d="M637.148 65.2859C638.374 65.1676 639.611 65.3203 640.771 65.7335C641.932 66.1466 642.988 66.8101 643.866 67.6772C644.743 68.5443 645.42 69.5939 645.85 70.752C646.279 71.9102 646.451 73.1487 646.351 74.3804L673.751 86.4806L660.681 94.946L636.666 82.1576C634.615 81.8533 632.746 80.8046 631.414 79.2102C630.082 77.6158 629.379 75.5866 629.438 73.5069C629.498 71.4272 630.316 69.4417 631.736 67.9265C633.157 66.4114 635.083 65.4718 637.148 65.286V65.2859Z" fill="#A0616A"/>
<path d="M747.67 50.1918C759.034 50.1918 768.246 40.9485 768.246 29.5462C768.246 18.144 759.034 8.90063 747.67 8.90063C736.307 8.90063 727.095 18.144 727.095 29.5462C727.095 40.9485 736.307 50.1918 747.67 50.1918Z" fill="#A0616A"/>
<path d="M710.432 323.931L700.161 323.93L695.276 284.18L710.433 284.181L710.432 323.931Z" fill="#A0616A"/>
<path d="M713.051 333.92L679.935 333.919V333.498C679.935 331.8 680.269 330.118 680.916 328.549C681.564 326.98 682.514 325.554 683.71 324.353C684.907 323.152 686.328 322.199 687.892 321.549C689.456 320.899 691.132 320.565 692.825 320.565H692.826L713.052 320.566L713.051 333.92Z" fill="#2F2E41"/>
<path d="M753.156 323.931L742.885 323.93L738 284.18L753.157 284.181L753.156 323.931Z" fill="#A0616A"/>
<path d="M755.775 333.92L722.659 333.919V333.498C722.659 331.8 722.993 330.118 723.64 328.549C724.288 326.98 725.237 325.554 726.434 324.353C727.631 323.152 729.052 322.199 730.616 321.549C732.18 320.899 733.856 320.565 735.549 320.565H735.55L755.775 320.566L755.775 333.92Z" fill="#2F2E41"/>
<path d="M752.669 315.464C752.515 315.464 752.362 315.454 752.209 315.435L737.175 313.579C736.295 313.471 735.48 313.055 734.876 312.403C734.271 311.752 733.915 310.907 733.871 310.018L729.49 211.028C729.475 210.747 729.367 210.48 729.183 210.267C728.999 210.055 728.75 209.911 728.475 209.857C728.199 209.804 727.914 209.844 727.665 209.972C727.415 210.1 727.215 210.308 727.097 210.563L715.842 248.208L713.525 308.676C713.505 309.198 713.378 309.709 713.151 310.179C712.924 310.649 712.603 311.066 712.208 311.405C711.813 311.744 711.352 311.998 710.854 312.149C710.357 312.301 709.833 312.348 709.317 312.286L696.298 310.749C695.367 310.642 694.51 310.19 693.894 309.481C693.279 308.773 692.949 307.859 692.97 306.919L694.075 250L702.895 160.652L703.29 160.667L756.922 162.741L756.439 311.694C756.436 312.695 756.037 313.654 755.33 314.36C754.623 315.067 753.667 315.464 752.669 315.464H752.669Z" fill="#2F2E41"/>
<path d="M754.89 170.906C754.857 170.906 754.824 170.906 754.792 170.905L700.776 169.485C700.246 169.471 699.726 169.345 699.248 169.116C698.77 168.887 698.346 168.559 698.003 168.154C697.66 167.749 697.406 167.277 697.257 166.767C697.108 166.257 697.068 165.721 697.139 165.194L707.519 88.5403C708.167 83.3645 709.896 78.384 712.592 73.924C715.289 69.464 718.892 65.6248 723.168 62.657C726.928 60.0592 731.2 58.2991 735.695 57.4949C740.19 56.6907 744.804 56.861 749.228 57.9944C768.082 62.7884 779.392 83.1028 774.441 103.278L758.551 168.028C758.346 168.847 757.875 169.575 757.212 170.096C756.549 170.617 755.732 170.902 754.89 170.906Z" fill="#3F3D56"/>
<path d="M684.027 110.036C680.467 110.04 676.984 109.002 674.004 107.048L642.504 86.3109C642.043 86.0075 641.653 85.6062 641.364 85.1354C641.074 84.6646 640.891 84.1357 640.827 83.5861C640.763 83.0365 640.82 82.4795 640.994 81.9545C641.168 81.4295 641.455 80.9492 641.834 80.5475L646.58 75.5204C647.097 74.9693 647.768 74.5874 648.505 74.4245C649.242 74.2615 650.011 74.325 650.711 74.6068L685.897 88.666L718.492 65.3095C720.016 64.2174 721.749 63.4547 723.582 63.0695C725.415 62.6844 727.308 62.6852 729.141 63.0719C730.974 63.4586 732.707 64.2229 734.23 65.3162C735.753 66.4096 737.033 67.8083 737.99 69.4238C738.947 71.0394 739.559 72.8366 739.788 74.7017C740.016 76.5669 739.857 78.4594 739.319 80.2595C738.781 82.0596 737.877 83.7281 736.664 85.1594C735.45 86.5908 733.954 87.7538 732.269 88.5749L691.985 108.209C689.504 109.414 686.783 110.039 684.027 110.036Z" fill="#3F3D56"/>
<path d="M754.8 49.2899C758.31 50.1216 762.545 50.7598 765.053 48.1595C765.498 47.6686 765.895 47.1366 766.239 46.5707L769.519 41.5462C772.032 37.6972 774.588 33.7478 775.652 29.2721C776.263 26.7003 776.359 24.0323 775.933 21.4231C775.508 18.8139 774.57 16.3155 773.175 14.073C771.779 11.8305 769.953 9.88866 767.803 8.36022C765.653 6.83178 763.222 5.74723 760.651 5.16958C755.754 4.06941 750.962 2.17646 745.955 2.52175C740.949 2.86704 735.078 2.75368 730.876 0C731.138 1.22764 732.554 6.65188 732.554 6.65188C732.554 6.65188 726.236 12.4676 724.969 13.9177C726.628 13.18 728.433 12.8336 730.245 12.9052C732.058 12.9767 733.83 13.4644 735.426 14.3307C737.022 15.1969 738.398 16.4187 739.45 17.9021C740.501 19.3856 741.2 21.0911 741.492 22.8878C741.85 25.095 741.64 27.5429 742.946 29.3545C744.189 31.0776 746.419 31.6813 748.293 32.6761C750.994 34.2202 753.056 36.6819 754.108 39.6172C755.16 42.5526 755.131 45.7685 754.028 48.6848L754.8 49.2899Z" fill="#2F2E41"/>
<path d="M730.096 178.3H559.544C557.4 178.298 555.345 177.442 553.829 175.921C552.313 174.4 551.46 172.337 551.457 170.186V83.1439C551.46 80.9927 552.313 78.9302 553.829 77.409C555.345 75.8879 557.4 75.0322 559.544 75.0298H730.096C732.24 75.0322 734.295 75.8879 735.811 77.409C737.327 78.9302 738.18 80.9927 738.182 83.1439V170.186C738.18 172.337 737.327 174.4 735.811 175.921C734.295 177.442 732.24 178.298 730.096 178.3Z" fill="#CCCCCC"/>
<path d="M728.135 172.399H561.504C560.4 172.398 559.341 171.957 558.56 171.173C557.779 170.39 557.34 169.327 557.339 168.219V85.1109C557.34 84.0027 557.779 82.9402 558.56 82.1566C559.341 81.3729 560.4 80.9321 561.504 80.9309H728.135C729.24 80.9321 730.299 81.3729 731.08 82.1566C731.861 82.9402 732.3 84.0027 732.301 85.1109V168.219C732.3 169.327 731.861 170.39 731.08 171.173C730.299 171.957 729.24 172.398 728.135 172.399Z" fill="white"/>
<path d="M718.485 193.382L699.745 174.578L723.771 175.187V191.185C723.777 191.801 723.598 192.404 723.257 192.917C722.916 193.429 722.429 193.826 721.86 194.055C721.478 194.216 721.069 194.299 720.655 194.3C720.251 194.299 719.851 194.217 719.478 194.059C719.106 193.902 718.768 193.671 718.485 193.382Z" fill="#CCCCCC"/>
<path d="M707.847 122.938H623.551C622.512 122.938 621.514 122.524 620.779 121.786C620.044 121.048 619.631 120.047 619.631 119.004C619.631 117.961 620.044 116.96 620.779 116.222C621.514 115.484 622.512 115.07 623.551 115.07H707.847C708.887 115.07 709.884 115.484 710.619 116.222C711.355 116.96 711.768 117.961 711.768 119.004C711.768 120.047 711.355 121.048 710.619 121.786C709.884 122.524 708.887 122.938 707.847 122.938Z" fill="#CCCCCC"/>
<path d="M680.402 106.218H623.551C623.036 106.219 622.526 106.118 622.049 105.92C621.573 105.723 621.14 105.433 620.775 105.068C620.411 104.702 620.121 104.269 619.924 103.791C619.726 103.313 619.625 102.801 619.625 102.284C619.625 101.767 619.726 101.255 619.924 100.777C620.121 100.299 620.411 99.8655 620.775 99.5001C621.14 99.1347 621.573 98.8451 622.049 98.6477C622.526 98.4503 623.036 98.3491 623.551 98.3499H680.402C681.442 98.3499 682.439 98.7644 683.174 99.5021C683.91 100.24 684.323 101.241 684.323 102.284C684.323 103.327 683.91 104.328 683.174 105.066C682.439 105.804 681.442 106.218 680.402 106.218Z" fill="#CCCCCC"/>
<path d="M588.657 122.938C595.423 122.938 600.909 117.434 600.909 110.644C600.909 103.854 595.423 98.3499 588.657 98.3499C581.89 98.3499 576.404 103.854 576.404 110.644C576.404 117.434 581.89 122.938 588.657 122.938Z" fill="#DBA1FF"/>
<path d="M681.87 154.98C684.035 154.98 685.79 153.219 685.79 151.046C685.79 148.873 684.035 147.112 681.87 147.112C679.704 147.112 677.949 148.873 677.949 151.046C677.949 153.219 679.704 154.98 681.87 154.98Z" fill="#E6E6E6"/>
<path d="M695.592 154.98C697.757 154.98 699.513 153.219 699.513 151.046C699.513 148.873 697.757 147.112 695.592 147.112C693.427 147.112 691.671 148.873 691.671 151.046C691.671 153.219 693.427 154.98 695.592 154.98Z" fill="#E6E6E6"/>
<path d="M709.315 154.98C711.48 154.98 713.235 153.219 713.235 151.046C713.235 148.873 711.48 147.112 709.315 147.112C707.149 147.112 705.394 148.873 705.394 151.046C705.394 153.219 707.149 154.98 709.315 154.98Z" fill="#E6E6E6"/>
<path d="M727.455 167.949C727.59 166.721 727.992 165.537 728.633 164.482C729.273 163.426 730.137 162.525 731.162 161.84C732.188 161.156 733.35 160.705 734.568 160.52C735.785 160.336 737.029 160.421 738.21 160.77L755.621 136.335L761.204 150.905L743.815 171.875C743.098 173.827 741.693 175.448 739.865 176.43C738.037 177.412 735.913 177.687 733.897 177.203C731.88 176.719 730.111 175.51 728.923 173.804C727.736 172.099 727.213 170.015 727.455 167.949H727.455Z" fill="#A0616A"/>
<path d="M747.399 166.63C747.125 166.653 746.849 166.646 746.577 166.61C746.03 166.536 745.506 166.343 745.042 166.044C744.578 165.745 744.185 165.347 743.892 164.878L740.212 159.021C739.808 158.381 739.605 157.634 739.63 156.877C739.655 156.12 739.907 155.388 740.353 154.777L762.638 124.051L748.154 86.5813C746.86 83.2845 746.909 79.6095 748.29 76.3485C749.671 73.0875 752.274 70.5016 755.537 69.148C757.381 68.372 759.373 68.0157 761.371 68.1047C763.369 68.1936 765.322 68.7257 767.09 69.6625C768.858 70.5994 770.397 71.9178 771.597 73.5229C772.797 75.1281 773.627 76.98 774.028 78.9456L783.015 122.97C783.64 126.075 783.456 129.289 782.48 132.301C781.504 135.313 779.769 138.021 777.444 140.163L749.623 165.654C749.01 166.218 748.227 166.561 747.399 166.63Z" fill="#3F3D56"/>
<path d="M794.162 335.941H617.403C617.18 335.941 616.967 335.853 616.81 335.695C616.653 335.538 616.565 335.324 616.565 335.101C616.565 334.878 616.653 334.664 616.81 334.506C616.967 334.349 617.18 334.26 617.403 334.26H794.162C794.384 334.26 794.598 334.349 794.755 334.506C794.912 334.664 795 334.878 795 335.101C795 335.324 794.912 335.538 794.755 335.695C794.598 335.853 794.384 335.941 794.162 335.941Z" fill="#CCCCCC"/>
<path d="M214.975 126.74H44.4229C42.279 126.738 40.2235 125.882 38.7075 124.361C37.1915 122.84 36.3388 120.777 36.3364 118.626V31.5836C36.3388 29.4324 37.1915 27.3699 38.7075 25.8487C40.2235 24.3276 42.279 23.4719 44.4229 23.4695H214.975C217.119 23.4719 219.174 24.3276 220.69 25.8487C222.206 27.3699 223.059 29.4324 223.061 31.5836V118.626C223.059 120.777 222.206 122.84 220.69 124.361C219.174 125.882 217.119 126.738 214.975 126.74Z" fill="#CCCCCC"/>
<path d="M213.014 120.839H46.3833C45.2788 120.838 44.22 120.397 43.439 119.613C42.658 118.829 42.2187 117.767 42.2175 116.659V33.5506C42.2187 32.4424 42.658 31.3799 43.439 30.5963C44.22 29.8126 45.2788 29.3718 46.3833 29.3706H213.014C214.119 29.3718 215.178 29.8126 215.959 30.5963C216.74 31.3799 217.179 32.4424 217.18 33.5506V116.659C217.179 117.767 216.74 118.829 215.959 119.613C215.178 120.397 214.119 120.838 213.014 120.839Z" fill="white"/>
<path d="M203.364 141.822L184.624 123.018L208.65 123.627V139.625C208.656 140.241 208.477 140.844 208.136 141.357C207.795 141.869 207.308 142.266 206.739 142.495C206.357 142.656 205.948 142.739 205.534 142.74C205.13 142.738 204.73 142.657 204.357 142.499C203.985 142.341 203.647 142.111 203.364 141.822Z" fill="#CCCCCC"/>
<path d="M192.726 71.3778H108.43C107.39 71.3778 106.393 70.9633 105.658 70.2255C104.923 69.4877 104.51 68.487 104.51 67.4436C104.51 66.4002 104.923 65.3996 105.658 64.6618C106.393 63.924 107.39 63.5095 108.43 63.5095H192.726C193.766 63.5095 194.763 63.924 195.498 64.6618C196.234 65.3996 196.647 66.4002 196.647 67.4436C196.647 68.487 196.234 69.4877 195.498 70.2255C194.763 70.9633 193.766 71.3778 192.726 71.3778Z" fill="#CCCCCC"/>
<path d="M165.281 54.6578H108.43C107.39 54.6578 106.393 54.2433 105.658 53.5055C104.923 52.7677 104.51 51.7671 104.51 50.7237C104.51 49.6803 104.923 48.6796 105.658 47.9418C106.393 47.204 107.39 46.7896 108.43 46.7896H165.281C166.321 46.7896 167.318 47.204 168.053 47.9418C168.788 48.6796 169.202 49.6803 169.202 50.7237C169.202 51.7671 168.788 52.7677 168.053 53.5055C167.318 54.2433 166.321 54.6578 165.281 54.6578Z" fill="#CCCCCC"/>
<path d="M73.5355 71.3778C80.3023 71.3778 85.7878 65.8735 85.7878 59.0837C85.7878 52.2938 80.3023 46.7896 73.5355 46.7896C66.7688 46.7896 61.2833 52.2938 61.2833 59.0837C61.2833 65.8735 66.7688 71.3778 73.5355 71.3778Z" fill="#DBA1FF"/>
<path d="M166.748 103.42C168.914 103.42 170.669 101.659 170.669 99.4859C170.669 97.3131 168.914 95.5518 166.748 95.5518C164.583 95.5518 162.828 97.3131 162.828 99.4859C162.828 101.659 164.583 103.42 166.748 103.42Z" fill="#E6E6E6"/>
<path d="M180.471 103.42C182.636 103.42 184.392 101.659 184.392 99.4859C184.392 97.3131 182.636 95.5518 180.471 95.5518C178.306 95.5518 176.55 97.3131 176.55 99.4859C176.55 101.659 178.306 103.42 180.471 103.42Z" fill="#E6E6E6"/>
<path d="M194.194 103.42C196.359 103.42 198.114 101.659 198.114 99.4859C198.114 97.3131 196.359 95.5518 194.194 95.5518C192.028 95.5518 190.273 97.3131 190.273 99.4859C190.273 101.659 192.028 103.42 194.194 103.42Z" fill="#E6E6E6"/>
<path d="M207.902 15.1066C206.743 15.5251 205.69 16.1935 204.816 17.0647C203.943 17.9359 203.27 18.9886 202.846 20.1487C202.422 21.3089 202.257 22.5482 202.362 23.7795C202.467 25.0107 202.839 26.2039 203.453 27.275L183.834 49.9625L199.255 52.0125L215.522 30.1538C217.247 28.9992 218.49 27.2499 219.015 25.2373C219.54 23.2247 219.312 21.0887 218.373 19.2339C217.433 17.3792 215.848 15.9346 213.919 15.1739C211.989 14.4132 209.848 14.3893 207.902 15.1066Z" fill="#FFB8B8"/>
<path d="M76.9014 24.1893C77.3199 25.3515 77.4794 26.5917 77.3685 27.8224C77.2577 29.0531 76.8793 30.2445 76.2599 31.3126C75.6406 32.3807 74.7954 33.2995 73.7839 34.0044C72.7723 34.7092 71.6191 35.183 70.4054 35.3923L65.523 65.0282L54.107 54.4247L60.4935 27.9075C60.2783 25.8382 60.827 23.7616 62.0357 22.0712C63.2444 20.3808 65.0291 19.194 67.0516 18.7356C69.0741 18.2773 71.1939 18.5794 73.0092 19.5845C74.8246 20.5896 76.2095 22.2281 76.9014 24.1893V24.1893Z" fill="#FFB8B8"/>
<path d="M107.563 323.931L117.833 323.93L122.719 284.18L107.561 284.181L107.563 323.931Z" fill="#FFB8B8"/>
<path d="M104.943 320.566L125.169 320.565H125.17C126.862 320.565 128.539 320.899 130.102 321.549C131.666 322.199 133.087 323.152 134.284 324.353C135.481 325.554 136.43 326.98 137.078 328.549C137.726 330.118 138.059 331.8 138.059 333.498V333.919L104.944 333.92L104.943 320.566Z" fill="#2F2E41"/>
<path d="M54.7863 323.931L65.0568 323.93L69.9424 284.18L54.7846 284.181L54.7863 323.931Z" fill="#FFB8B8"/>
<path d="M52.1664 320.566L72.3923 320.565H72.3931C74.0858 320.565 75.7619 320.899 77.3258 321.549C78.8896 322.199 80.3106 323.152 81.5075 324.353C82.7044 325.554 83.6539 326.98 84.3016 328.549C84.9494 330.118 85.2828 331.8 85.2827 333.498V333.919L52.1671 333.92L52.1664 320.566Z" fill="#2F2E41"/>
<path d="M105.419 52.5434C116.782 52.5434 125.994 43.3 125.994 31.8978C125.994 20.4955 116.782 11.2522 105.419 11.2522C94.0555 11.2522 84.8436 20.4955 84.8436 31.8978C84.8436 43.3 94.0555 52.5434 105.419 52.5434Z" fill="#FFB8B8"/>
<path d="M102.953 310.725L101.251 201.949C101.247 201.641 101.131 201.346 100.925 201.118C100.718 200.891 100.436 200.747 100.132 200.713C99.8272 200.68 99.5208 200.759 99.2704 200.936C99.0201 201.114 98.8429 201.377 98.7723 201.676L70.8836 308.074C70.6738 308.925 70.179 309.679 69.482 310.208C68.785 310.737 67.928 311.01 67.0544 310.981L51.7324 310.324C51.2116 310.301 50.701 310.171 50.233 309.94C49.7649 309.71 49.3497 309.384 49.0133 308.985C48.677 308.585 48.427 308.119 48.279 307.618C48.1311 307.116 48.0884 306.589 48.1537 306.07L71.8184 169.342L71.8668 168.957L137.781 172.086L138.211 172.105L124.076 310.953C124.002 311.903 123.574 312.791 122.878 313.44C122.181 314.089 121.267 314.451 120.317 314.455H106.722C105.733 314.451 104.784 314.058 104.079 313.361C103.375 312.664 102.97 311.718 102.953 310.725Z" fill="#2F2E41"/>
<path d="M155.013 181.3L59.3633 173.424C58.786 173.377 58.2273 173.196 57.7307 172.897C57.2341 172.598 56.8129 172.188 56.4999 171.699C56.1868 171.21 55.9903 170.655 55.9256 170.077C55.8609 169.5 55.9297 168.915 56.1267 168.368L71.1896 126.581L72.0564 76.9843C72.0878 75.1839 72.4752 73.4076 73.1961 71.7586C73.917 70.1096 74.957 68.6206 76.2559 67.378C77.5547 66.1355 79.0865 65.164 80.7624 64.5201C82.4383 63.8762 84.225 63.5726 86.0187 63.6269L92.3796 57.8413H115.685L117.714 60.5108L133.93 63.0112C136.818 63.4687 139.483 64.846 141.532 66.9398C143.58 69.0336 144.904 71.7329 145.306 74.639L159.057 177.026C159.129 177.56 159.086 178.103 158.931 178.62C158.776 179.136 158.514 179.613 158.16 180.019C157.807 180.425 157.371 180.75 156.883 180.973C156.394 181.197 155.863 181.313 155.326 181.313C155.222 181.313 155.117 181.309 155.013 181.3Z" fill="#2F2E41"/>
<path d="M136.377 67.819L177.16 55.8292L195.617 31.4456C196.126 30.774 196.843 30.2921 197.655 30.0765C198.468 29.8608 199.328 29.9238 200.101 30.2554L211.625 35.1979C212.116 35.4086 212.558 35.7217 212.919 36.1164C213.281 36.5112 213.554 36.9785 213.722 37.4875C213.89 37.9965 213.948 38.5355 213.893 39.0687C213.837 39.6019 213.669 40.1172 213.4 40.5804L199.607 64.3318C197.361 68.2171 193.942 71.2853 189.844 73.0931L141.875 94.3704L136.377 67.819Z" fill="#2F2E41"/>
<path d="M58.1321 85.7546C55.6948 83.9928 53.7512 81.6305 52.4888 78.8955C51.2263 76.1605 50.6875 73.1453 50.9245 70.1406L52.7143 46.3457C52.7881 45.3953 53.2159 44.5076 53.9126 43.8594C54.6092 43.2113 55.5236 42.8501 56.4736 42.8479H56.5069L70.021 42.9686C70.5746 42.9736 71.1203 43.101 71.6193 43.3416C72.1184 43.5821 72.5585 43.93 72.9084 44.3605C73.2584 44.791 73.5095 45.2936 73.644 45.8324C73.7786 46.3713 73.7932 46.9333 73.6869 47.4785L71.1794 60.3155L89.0733 67.902L74.0051 97.3167L58.1321 85.7546Z" fill="#2F2E41"/>
<path d="M117.388 7.14157C117.388 7.14157 95.8715 -4.48387 84.1434 9.23664C72.4152 22.9572 88.6117 44.413 88.6117 44.413L111.689 47.3335C111.689 47.3335 112.527 31.5924 118.022 31.898C123.516 32.2036 140.581 12.3406 117.388 7.14157Z" fill="#2F2E41"/>
<path d="M177.597 335.101H0.837724C0.615546 335.101 0.402467 335.012 0.245363 334.855C0.0882593 334.697 0 334.483 0 334.26C0 334.037 0.0882593 333.824 0.245363 333.666C0.402467 333.508 0.615546 333.42 0.837724 333.42H177.597C177.82 333.42 178.033 333.508 178.19 333.666C178.347 333.824 178.435 334.037 178.435 334.26C178.435 334.483 178.347 334.697 178.19 334.855C178.033 335.012 177.82 335.101 177.597 335.101Z" fill="#CCCCCC"/>
</g>
<defs>
<clipPath id="clip0_11_503">
<rect width="795" height="478" fill="white"/>
</clipPath>
</defs>
</svg>
