<svg width="609" height="409" viewBox="0 0 609 409" fill="none" xmlns="http://www.w3.org/2000/svg">
<g clip-path="url(#clip0_36_895)">
<path d="M497.414 256.503H105.183C102.505 256.5 99.9382 255.48 98.0449 253.666C96.1516 251.853 95.0866 249.394 95.0836 246.83V15.1798C95.0858 13.301 95.866 11.4998 97.253 10.1713C98.64 8.84274 100.521 8.09542 102.482 8.09326H499.987C501.982 8.09544 503.895 8.85566 505.306 10.2072C506.717 11.5587 507.511 13.391 507.513 15.3023V246.83C507.51 249.394 506.445 251.853 504.552 253.666C502.659 255.48 500.092 256.5 497.414 256.503Z" fill="#F2F2F2"/>
<path d="M483.106 242.804H117.556C112.198 242.804 107.838 238.894 107.838 234.088V32.3642C107.838 28.7998 111.069 25.8999 115.04 25.8999H485.504C489.54 25.8999 492.824 28.8476 492.824 32.4706V234.088C492.824 238.894 488.465 242.804 483.106 242.804Z" fill="white"/>
<path d="M507.373 14.6265H94.9419V9.70195C94.9457 7.12894 96.0151 4.66246 97.9152 2.84362C99.8154 1.02478 102.391 0.00212574 105.078 0H497.237C499.923 0.00211335 502.499 1.02477 504.399 2.84361C506.3 4.66245 507.369 7.12893 507.373 9.70195V14.6265Z" fill="#CCCCCC"/>
<path d="M113.362 9.83901C114.81 9.83901 115.984 8.71477 115.984 7.32795C115.984 5.94113 114.81 4.81689 113.362 4.81689C111.914 4.81689 110.74 5.94113 110.74 7.32795C110.74 8.71477 111.914 9.83901 113.362 9.83901Z" fill="white"/>
<path d="M123.313 9.83901C124.761 9.83901 125.935 8.71477 125.935 7.32795C125.935 5.94113 124.761 4.81689 123.313 4.81689C121.865 4.81689 120.692 5.94113 120.692 7.32795C120.692 8.71477 121.865 9.83901 123.313 9.83901Z" fill="white"/>
<path d="M133.265 9.83901C134.713 9.83901 135.886 8.71477 135.886 7.32795C135.886 5.94113 134.713 4.81689 133.265 4.81689C131.817 4.81689 130.643 5.94113 130.643 7.32795C130.643 8.71477 131.817 9.83901 133.265 9.83901Z" fill="white"/>
<path d="M442.87 208.972H159.585C156.745 208.969 154.023 207.887 152.015 205.964C150.007 204.04 148.877 201.433 148.874 198.713V67.894C148.876 65.8598 149.721 63.9095 151.223 62.4711C152.725 61.0327 154.761 60.2235 156.885 60.2212H445.443C447.6 60.2236 449.669 61.0456 451.195 62.507C452.721 63.9684 453.579 65.9498 453.581 68.0165V198.713C453.578 201.433 452.448 204.04 450.44 205.964C448.432 207.887 445.71 208.969 442.87 208.972ZM156.885 61.3936C155.085 61.3956 153.36 62.0811 152.088 63.2997C150.816 64.5184 150.1 66.1706 150.098 67.894V198.713C150.101 201.122 151.101 203.432 152.88 205.135C154.658 206.839 157.07 207.797 159.585 207.799H442.87C445.385 207.797 447.797 206.839 449.575 205.135C451.354 203.432 452.354 201.122 452.357 198.713V68.0165C452.355 66.2606 451.626 64.5772 450.33 63.3356C449.033 62.0941 447.276 61.3956 445.443 61.3936H156.885Z" fill="#CCCCCC"/>
<path d="M169.378 198.713H433.077C435.674 198.713 438.165 197.725 440.002 195.966C441.838 194.207 442.87 191.821 442.87 189.333V79.9739C442.87 77.4862 441.838 75.1005 440.002 73.3415C438.165 71.5824 435.674 70.5942 433.077 70.5942H169.378C166.781 70.5942 164.29 71.5824 162.453 73.3415C160.617 75.1005 159.585 77.4862 159.585 79.9739V189.333C159.585 191.821 160.617 194.207 162.453 195.966C164.29 197.725 166.781 198.713 169.378 198.713Z" fill="#F2F2F2"/>
<path d="M199.32 102.411C202.362 102.411 204.828 100.049 204.828 97.1349C204.828 94.2211 202.362 91.8589 199.32 91.8589C196.277 91.8589 193.811 94.2211 193.811 97.1349C193.811 100.049 196.277 102.411 199.32 102.411Z" fill="#CCCCCC"/>
<path d="M199.32 122.343C202.362 122.343 204.828 119.981 204.828 117.067C204.828 114.153 202.362 111.791 199.32 111.791C196.277 111.791 193.811 114.153 193.811 117.067C193.811 119.981 196.277 122.343 199.32 122.343Z" fill="#CCCCCC"/>
<path d="M199.32 142.275C202.362 142.275 204.828 139.913 204.828 136.999C204.828 134.085 202.362 131.723 199.32 131.723C196.277 131.723 193.811 134.085 193.811 136.999C193.811 139.913 196.277 142.275 199.32 142.275Z" fill="#CCCCCC"/>
<path d="M199.32 162.206C202.362 162.206 204.828 159.844 204.828 156.93C204.828 154.016 202.362 151.654 199.32 151.654C196.277 151.654 193.811 154.016 193.811 156.93C193.811 159.844 196.277 162.206 199.32 162.206Z" fill="#CCCCCC"/>
<path d="M408.032 97.7213H226.862C226.7 97.7213 226.544 97.6595 226.43 97.5496C226.315 97.4397 226.25 97.2905 226.25 97.1351C226.25 96.9796 226.315 96.8305 226.43 96.7205C226.544 96.6106 226.7 96.5488 226.862 96.5488H408.032C408.195 96.5488 408.35 96.6106 408.465 96.7205C408.58 96.8305 408.644 96.9796 408.644 97.1351C408.644 97.2905 408.58 97.4397 408.465 97.5496C408.35 97.6595 408.195 97.7213 408.032 97.7213Z" fill="#CCCCCC"/>
<path d="M408.032 117.653H226.862C226.7 117.653 226.544 117.591 226.43 117.481C226.315 117.371 226.25 117.222 226.25 117.067C226.25 116.911 226.315 116.762 226.43 116.652C226.544 116.542 226.7 116.48 226.862 116.48H408.032C408.195 116.48 408.35 116.542 408.465 116.652C408.58 116.762 408.644 116.911 408.644 117.067C408.644 117.222 408.58 117.371 408.465 117.481C408.35 117.591 408.195 117.653 408.032 117.653Z" fill="#CCCCCC"/>
<path d="M408.032 137.585H226.862C226.7 137.585 226.544 137.523 226.43 137.413C226.315 137.303 226.25 137.154 226.25 136.999C226.25 136.843 226.315 136.694 226.43 136.584C226.544 136.474 226.7 136.413 226.862 136.413H408.032C408.195 136.413 408.35 136.474 408.465 136.584C408.58 136.694 408.644 136.843 408.644 136.999C408.644 137.154 408.58 137.303 408.465 137.413C408.35 137.523 408.195 137.585 408.032 137.585Z" fill="#CCCCCC"/>
<path d="M408.032 157.517H226.862C226.7 157.517 226.544 157.455 226.43 157.345C226.315 157.235 226.25 157.086 226.25 156.93C226.25 156.775 226.315 156.626 226.43 156.516C226.544 156.406 226.7 156.344 226.862 156.344H408.032C408.195 156.344 408.35 156.406 408.465 156.516C408.58 156.626 408.644 156.775 408.644 156.93C408.644 157.086 408.58 157.235 408.465 157.345C408.35 157.455 408.195 157.517 408.032 157.517Z" fill="#CCCCCC"/>
<path d="M261.138 177.448H243.388C242.577 177.447 241.799 177.138 241.225 176.589C240.651 176.039 240.329 175.294 240.328 174.517V158.689C240.329 157.912 240.651 157.167 241.225 156.617C241.799 156.068 242.577 155.759 243.388 155.758H261.138C261.949 155.759 262.727 156.068 263.301 156.617C263.874 157.167 264.197 157.912 264.198 158.689V174.517C264.197 175.294 263.874 176.039 263.301 176.589C262.727 177.138 261.949 177.447 261.138 177.448Z" fill="#DBA1FF"/>
<path d="M300.922 177.448H283.172C282.361 177.447 281.583 177.138 281.009 176.589C280.435 176.039 280.113 175.294 280.112 174.517V138.757C280.113 137.98 280.435 137.235 281.009 136.686C281.583 136.136 282.361 135.827 283.172 135.826H300.922C301.733 135.827 302.511 136.136 303.085 136.686C303.658 137.235 303.981 137.98 303.982 138.757V174.517C303.981 175.294 303.658 176.039 303.085 176.589C302.511 177.138 301.733 177.447 300.922 177.448Z" fill="#DBA1FF"/>
<path d="M341.318 177.448H323.568C322.756 177.448 321.979 177.138 321.405 176.589C320.831 176.039 320.508 175.294 320.508 174.517V118.826C320.508 118.049 320.831 117.304 321.405 116.754C321.979 116.205 322.756 115.895 323.568 115.895H341.318C342.129 115.895 342.907 116.205 343.48 116.754C344.054 117.304 344.377 118.049 344.378 118.826V174.517C344.377 175.294 344.054 176.039 343.48 176.589C342.907 177.138 342.129 177.448 341.318 177.448Z" fill="#DBA1FF"/>
<path d="M382.938 177.448H365.188C364.377 177.447 363.599 177.138 363.025 176.589C362.451 176.039 362.129 175.294 362.128 174.517V99.48C362.129 98.7029 362.451 97.9578 363.025 97.4083C363.599 96.8588 364.377 96.5497 365.188 96.5488H382.938C383.749 96.5497 384.527 96.8588 385.101 97.4083C385.674 97.9578 385.997 98.7029 385.998 99.48V174.517C385.997 175.294 385.674 176.039 385.101 176.589C384.527 177.138 383.749 177.447 382.938 177.448Z" fill="#DBA1FF"/>
<path d="M408.032 177.448H226.862C226.7 177.448 226.544 177.387 226.43 177.277C226.315 177.167 226.25 177.018 226.25 176.862C226.25 176.707 226.315 176.558 226.43 176.448C226.544 176.338 226.7 176.276 226.862 176.276H408.032C408.195 176.276 408.35 176.338 408.465 176.448C408.58 176.558 408.644 176.707 408.644 176.862C408.644 177.018 408.58 177.167 408.465 177.277C408.35 177.387 408.195 177.448 408.032 177.448Z" fill="#3F3D56"/>
<path d="M487.629 286.808C488.125 286.089 488.78 285.482 489.547 285.032C490.314 284.581 491.175 284.297 492.069 284.2C492.963 284.103 493.868 284.194 494.721 284.468C495.574 284.742 496.354 285.192 497.006 285.786L516.442 276.178L515.234 287.003L496.962 294.466C495.848 295.449 494.396 296.007 492.881 296.033C491.366 296.059 489.894 295.552 488.744 294.608C487.594 293.663 486.845 292.348 486.639 290.91C486.434 289.473 486.786 288.013 487.629 286.808Z" fill="#FFB8B8"/>
<path d="M504.353 290.845C503.911 290.513 503.586 290.061 503.42 289.548L501.874 284.765C501.708 284.247 501.712 283.692 501.886 283.176C502.06 282.66 502.394 282.208 502.845 281.88L518.598 270.484L535.66 240.168C536.374 239.287 537.263 238.549 538.275 237.996C539.288 237.444 540.404 237.088 541.56 236.948C542.716 236.809 543.89 236.889 545.014 237.184C546.137 237.479 547.189 237.983 548.11 238.668C549.03 239.352 549.801 240.204 550.377 241.173C550.954 242.143 551.326 243.212 551.471 244.319C551.617 245.427 551.533 246.551 551.225 247.627C550.917 248.703 550.39 249.711 549.676 250.593L539.969 270.214C537.024 276.169 531.921 280.898 525.609 283.519L507.147 291.189C506.792 291.336 506.409 291.41 506.022 291.406C505.635 291.402 505.253 291.32 504.902 291.166C504.706 291.08 504.522 290.972 504.353 290.845Z" fill="#3F3D56"/>
<path d="M550.105 227.516C558.407 227.516 565.138 221.07 565.138 213.118C565.138 205.166 558.407 198.72 550.105 198.72C541.802 198.72 535.072 205.166 535.072 213.118C535.072 221.07 541.802 227.516 550.105 227.516Z" fill="#FFB8B8"/>
<path d="M544.007 401.998L536.503 401.997L532.934 374.276L544.01 374.276L544.007 401.998Z" fill="#FFB8B8"/>
<path d="M531.143 399.944H545.614V408.671H522.031C522.031 407.525 522.267 406.39 522.725 405.331C523.183 404.272 523.854 403.31 524.7 402.5C525.546 401.69 526.551 401.047 527.656 400.608C528.762 400.17 529.946 399.944 531.143 399.944Z" fill="#2F2E41"/>
<path d="M568.489 401.999L560.986 401.998L557.417 374.276L568.492 374.278L568.489 401.999Z" fill="#FFB8B8"/>
<path d="M555.625 399.945H570.097V408.672H546.514C546.514 407.526 546.75 406.391 547.207 405.332C547.665 404.273 548.336 403.311 549.183 402.501C550.029 401.691 551.033 401.048 552.139 400.609C553.244 400.171 554.429 399.945 555.625 399.945Z" fill="#2F2E41"/>
<path d="M569.037 394.965L560.244 394.964C559.639 394.964 559.05 394.772 558.57 394.419C558.089 394.067 557.743 393.572 557.585 393.013L544.928 348.048C544.908 347.978 544.862 347.918 544.798 347.878C544.734 347.839 544.658 347.824 544.583 347.835C544.508 347.847 544.44 347.885 544.393 347.942C544.346 347.998 544.322 348.07 544.327 348.142L546.883 390.786C546.906 391.163 546.844 391.54 546.701 391.892C546.558 392.244 546.338 392.563 546.056 392.826C545.774 393.09 545.435 393.292 545.064 393.42C544.693 393.547 544.298 393.597 543.905 393.566L534.021 392.776C533.388 392.724 532.793 392.465 532.336 392.041C531.88 391.618 531.589 391.057 531.514 390.452L522.511 300.909L525.994 302.911L558.635 297.604L571.768 391.978C571.82 392.351 571.788 392.73 571.674 393.089C571.561 393.449 571.368 393.782 571.11 394.064C570.851 394.347 570.532 394.574 570.175 394.729C569.818 394.884 569.43 394.965 569.037 394.965H569.037Z" fill="#2F2E41"/>
<path d="M533.427 310.36C529.826 310.333 526.298 309.382 523.211 307.606C522.735 307.336 522.356 306.935 522.122 306.455C521.889 305.975 521.813 305.438 521.903 304.916C523.051 298.182 529.054 263.641 534.517 244.81C536.741 237.141 541.66 233.01 549.137 232.533C560.073 231.846 569.794 240.041 570.806 250.823C572.592 269.845 565.338 296.872 562.137 307.608C562.013 308.023 561.784 308.402 561.471 308.713C561.159 309.023 560.771 309.255 560.343 309.389C559.915 309.522 559.459 309.553 559.015 309.478C558.572 309.404 558.154 309.226 557.799 308.96L551.273 304.099C550.872 303.805 550.375 303.655 549.87 303.675C549.365 303.695 548.884 303.884 548.509 304.209C543.009 308.908 537.784 310.36 533.427 310.36Z" fill="#3F3D56"/>
<path opacity="0.2" d="M555.008 260.131L560.516 282.409L552.558 301.167L558.068 282.995L555.008 260.131Z" fill="black"/>
<path d="M558.683 224.958C560.02 224.982 561.349 224.752 562.592 224.281C563.14 224.079 563.708 223.913 564.254 223.711C569.078 221.926 572.256 217.005 572.37 212.053C572.484 207.101 569.807 202.294 565.831 199.127C561.855 195.959 556.706 194.332 551.549 193.956C545.995 193.551 539.74 194.9 536.636 199.33C535.81 200.509 535.232 201.94 535.721 203.364C535.868 203.794 536.13 204.179 536.481 204.482C537.867 205.663 539.249 204.775 540.662 204.696C542.604 204.589 544.348 206.094 544.975 207.858C545.602 209.622 545.326 211.564 544.82 213.363C544.434 214.446 544.191 215.571 544.096 216.711C544.055 217.283 544.167 217.855 544.422 218.373C544.677 218.892 545.065 219.34 545.551 219.674C546.765 220.377 548.359 219.97 549.573 219.269C550.788 218.567 551.837 217.592 553.149 217.076C554.46 216.56 556.223 216.674 556.986 217.819C557.229 218.235 557.393 218.69 557.471 219.161C558.156 222.147 557.998 221.971 558.683 224.958Z" fill="#2F2E41"/>
<path d="M535.382 381.887L441.25 350.489C439.635 349.948 438.309 348.816 437.565 347.34C436.82 345.865 436.717 344.166 437.278 342.618L461.739 275.344C462.153 274.21 463.019 273.28 464.147 272.758C465.276 272.235 466.575 272.163 467.759 272.556L565.074 305.016C566.277 305.419 567.265 306.263 567.82 307.363C568.375 308.463 568.452 309.728 568.034 310.882L543.599 378.083C543.035 379.63 541.853 380.899 540.312 381.613C538.772 382.326 536.999 382.425 535.382 381.887Z" fill="#E6E6E6"/>
<path d="M449.282 346.623L531.595 374.079C533.162 374.602 534.882 374.507 536.377 373.815C537.871 373.123 539.017 371.891 539.563 370.389L559.315 316.066C559.861 314.564 559.762 312.917 559.04 311.486C558.317 310.054 557.031 308.956 555.464 308.434L473.151 280.977C471.584 280.455 469.864 280.55 468.369 281.242C466.875 281.933 465.729 283.165 465.183 284.667L445.431 338.991C445.16 339.734 445.046 340.521 445.093 341.307C445.14 342.093 445.349 342.862 445.706 343.571C446.064 344.279 446.564 344.914 447.177 345.437C447.791 345.961 448.506 346.364 449.282 346.623Z" fill="white"/>
<path d="M469.952 308.455L465.876 307.095C465.655 307.021 465.473 306.866 465.371 306.665C465.27 306.463 465.255 306.23 465.332 306.019L466.752 302.114C466.829 301.903 466.991 301.729 467.202 301.631C467.412 301.534 467.655 301.52 467.876 301.594L471.953 302.953C472.174 303.027 472.355 303.182 472.457 303.384C472.559 303.586 472.573 303.818 472.496 304.03L471.076 307.935C470.999 308.146 470.837 308.32 470.627 308.418C470.416 308.515 470.173 308.529 469.952 308.455Z" fill="#DBA1FF"/>
<path d="M466.274 318.571L462.197 317.212C461.976 317.138 461.795 316.983 461.693 316.781C461.591 316.579 461.577 316.347 461.654 316.135L463.074 312.23C463.151 312.019 463.313 311.845 463.523 311.747C463.734 311.65 463.977 311.636 464.198 311.71L468.274 313.07C468.495 313.144 468.677 313.299 468.779 313.5C468.88 313.702 468.895 313.935 468.818 314.146L467.398 318.051C467.321 318.262 467.159 318.436 466.948 318.534C466.738 318.631 466.495 318.645 466.274 318.571Z" fill="#3F3D56"/>
<path d="M462.596 328.687L458.519 327.327C458.298 327.253 458.117 327.098 458.015 326.897C457.913 326.695 457.899 326.462 457.976 326.251L459.395 322.346C459.473 322.134 459.634 321.961 459.845 321.863C460.056 321.766 460.298 321.752 460.52 321.826L464.596 323.185C464.817 323.259 464.998 323.414 465.1 323.616C465.202 323.818 465.216 324.05 465.14 324.262L463.72 328.167C463.643 328.378 463.481 328.552 463.27 328.649C463.059 328.747 462.817 328.761 462.596 328.687Z" fill="#CCCCCC"/>
<path d="M497.344 315.403L477.703 308.852C477.593 308.815 477.492 308.759 477.405 308.685C477.318 308.611 477.248 308.521 477.197 308.421C477.146 308.321 477.117 308.213 477.11 308.101C477.103 307.99 477.119 307.879 477.158 307.774C477.196 307.669 477.255 307.572 477.333 307.489C477.41 307.406 477.504 307.339 477.608 307.29C477.713 307.242 477.826 307.214 477.942 307.208C478.058 307.202 478.174 307.217 478.284 307.254L497.925 313.806C498.035 313.842 498.136 313.899 498.223 313.973C498.31 314.047 498.381 314.136 498.431 314.236C498.482 314.336 498.512 314.445 498.518 314.556C498.525 314.667 498.509 314.778 498.471 314.883C498.433 314.988 498.373 315.085 498.296 315.168C498.219 315.251 498.125 315.319 498.02 315.367C497.916 315.415 497.802 315.443 497.686 315.45C497.57 315.456 497.454 315.44 497.344 315.403Z" fill="#CCCCCC"/>
<path d="M493.666 325.519L474.025 318.968C473.804 318.894 473.622 318.739 473.52 318.537C473.418 318.335 473.404 318.103 473.481 317.891C473.559 317.679 473.72 317.505 473.931 317.408C474.142 317.31 474.385 317.297 474.606 317.37L494.247 323.922C494.357 323.958 494.458 324.015 494.545 324.089C494.631 324.163 494.702 324.252 494.753 324.352C494.804 324.452 494.833 324.561 494.84 324.672C494.847 324.783 494.83 324.894 494.792 324.999C494.754 325.104 494.695 325.201 494.617 325.284C494.54 325.367 494.446 325.435 494.342 325.483C494.237 325.531 494.124 325.559 494.008 325.565C493.892 325.572 493.776 325.556 493.666 325.519Z" fill="#CCCCCC"/>
<path d="M489.988 335.635L470.347 329.084C470.126 329.01 469.944 328.855 469.842 328.653C469.74 328.451 469.726 328.219 469.803 328.007C469.88 327.795 470.042 327.621 470.253 327.524C470.464 327.426 470.706 327.413 470.927 327.486L490.569 334.038C490.79 334.112 490.971 334.267 491.073 334.469C491.175 334.671 491.189 334.903 491.112 335.115C491.035 335.327 490.873 335.5 490.663 335.598C490.452 335.696 490.209 335.709 489.988 335.635Z" fill="#CCCCCC"/>
<path d="M542.257 341.116C542.4 340.787 542.535 340.453 542.659 340.113C544.273 335.673 543.98 330.8 541.844 326.568C539.707 322.335 535.903 319.088 531.268 317.542L524.812 335.297L542.257 341.116Z" fill="#DBA1FF"/>
<path d="M522.934 336.377L529.39 318.622C525.978 317.484 522.293 317.327 518.79 318.171C515.286 319.014 512.117 320.822 509.673 323.37C507.229 325.918 505.617 329.096 505.036 332.511C504.455 335.927 504.93 339.43 506.403 342.59C507.876 345.749 510.282 348.427 513.325 350.292C516.367 352.158 519.914 353.13 523.526 353.088C527.139 353.046 530.659 351.992 533.654 350.057C536.649 348.122 538.987 345.389 540.38 342.196L522.934 336.377Z" fill="#3F3D56"/>
<path d="M546.047 310.907C545.974 310.048 546.098 309.185 546.411 308.377C546.724 307.569 547.219 306.837 547.86 306.231C548.5 305.626 549.272 305.163 550.119 304.874C550.967 304.586 551.871 304.479 552.767 304.561L561.87 285.513L567.893 294.744L558.325 311.417C558.081 312.85 557.298 314.146 556.123 315.062C554.948 315.978 553.463 316.449 551.949 316.386C550.436 316.323 548.999 315.731 547.911 314.721C546.823 313.711 546.16 312.354 546.047 310.907Z" fill="#FFB8B8"/>
<path d="M561.807 304.199C561.246 304.2 560.699 304.036 560.238 303.73L555.939 300.88C555.475 300.571 555.12 300.132 554.925 299.623C554.729 299.115 554.701 298.561 554.845 298.036L559.897 279.758L553.79 245.819C553.783 244.702 554.005 243.595 554.445 242.561C554.886 241.526 555.534 240.585 556.354 239.791C557.174 238.997 558.15 238.366 559.225 237.933C560.3 237.501 561.453 237.275 562.619 237.27C563.785 237.264 564.941 237.479 566.02 237.902C567.1 238.324 568.081 238.947 568.91 239.733C569.738 240.52 570.396 241.455 570.846 242.485C571.297 243.515 571.531 244.62 571.535 245.737L576.54 266.913C578.059 273.34 577.09 280.077 573.812 285.871L564.227 302.818C564.043 303.144 563.789 303.429 563.482 303.654C563.175 303.88 562.822 304.041 562.445 304.127C562.236 304.175 562.022 304.2 561.807 304.199Z" fill="#3F3D56"/>
<path d="M608.388 409H492.096C491.934 409 491.778 408.938 491.664 408.828C491.549 408.718 491.484 408.569 491.484 408.414C491.484 408.258 491.549 408.109 491.664 407.999C491.778 407.889 491.934 407.828 492.096 407.828H608.388C608.55 407.828 608.706 407.889 608.821 407.999C608.936 408.109 609 408.258 609 408.414C609 408.569 608.936 408.718 608.821 408.828C608.706 408.938 608.55 409 608.388 409Z" fill="#CCCCCC"/>
<path d="M300.241 401.706L307.745 401.705L311.314 373.984H300.239L300.241 401.706Z" fill="#A0616A"/>
<path d="M298.327 399.36L313.104 399.359H313.105C314.342 399.359 315.566 399.593 316.709 400.046C317.851 400.499 318.889 401.164 319.764 402.001C320.638 402.839 321.332 403.833 321.805 404.927C322.279 406.022 322.522 407.195 322.522 408.379V408.672L298.327 408.673L298.327 399.36Z" fill="#2F2E41"/>
<path d="M270.25 401.706L277.754 401.705L281.323 373.984H270.249L270.25 401.706Z" fill="#A0616A"/>
<path d="M268.336 399.36L283.113 399.359H283.114C284.351 399.359 285.575 399.593 286.718 400.046C287.86 400.499 288.899 401.164 289.773 402.001C290.648 402.839 291.341 403.833 291.815 404.927C292.288 406.022 292.531 407.195 292.531 408.379V408.672L268.336 408.673L268.336 399.36Z" fill="#2F2E41"/>
<path d="M301.738 209.786C310.041 209.786 316.771 203.34 316.771 195.388C316.771 187.436 310.041 180.99 301.738 180.99C293.436 180.99 286.706 187.436 286.706 195.388C286.706 203.34 293.436 209.786 301.738 209.786Z" fill="#A0616A"/>
<path d="M311.848 395.723H297.923C297.558 395.723 297.197 395.653 296.861 395.519C296.525 395.384 296.22 395.187 295.963 394.939C295.707 394.69 295.505 394.396 295.369 394.072C295.232 393.748 295.164 393.402 295.169 393.053L295.978 329.722C295.981 329.497 295.894 329.279 295.734 329.114C295.575 328.949 295.356 328.848 295.121 328.833C294.887 328.818 294.655 328.89 294.474 329.033C294.293 329.177 294.177 329.381 294.148 329.604L286.044 393.404C285.962 394.043 285.639 394.632 285.136 395.059C284.632 395.486 283.983 395.722 283.31 395.723H269.252C268.872 395.723 268.496 395.648 268.148 395.502C267.8 395.356 267.487 395.143 267.23 394.876C266.972 394.609 266.774 394.294 266.65 393.95C266.525 393.607 266.476 393.242 266.506 392.879L275.789 279.107L276.042 279.081L320.495 274.482L314.599 393.21C314.566 393.888 314.262 394.527 313.749 394.995C313.237 395.463 312.556 395.724 311.848 395.723Z" fill="#2F2E41"/>
<path d="M276.33 286.092C275.616 286.09 274.931 285.823 274.418 285.346C273.906 284.869 273.608 284.22 273.586 283.537C273.343 276.343 272.927 251.451 277.761 233.177C279.081 228.184 282.042 223.731 286.208 220.476C290.373 217.22 295.522 215.334 300.893 215.098C306.179 214.821 311.422 216.146 315.878 218.885C320.334 221.623 323.776 225.636 325.717 230.354C333.842 250.111 341.519 274.465 331.948 278.285C319.404 283.29 286.336 285.522 276.499 286.086C276.443 286.09 276.386 286.092 276.33 286.092Z" fill="#3F3D56"/>
<path d="M333.785 180.835C334.021 181.068 334.276 181.282 334.548 181.476L332.97 210.51L326.406 213.729L330.183 223.851L342.381 219.235C343.366 218.862 344.199 218.193 344.754 217.328C345.308 216.463 345.555 215.45 345.457 214.439L342.261 181.505C343.307 180.758 344.09 179.724 344.507 178.539C344.924 177.355 344.955 176.078 344.595 174.876C344.235 173.675 343.502 172.607 342.494 171.815C341.485 171.023 340.248 170.543 338.948 170.44C337.647 170.338 336.345 170.616 335.214 171.24C334.084 171.863 333.178 172.801 332.617 173.93C332.057 175.058 331.869 176.323 332.077 177.557C332.286 178.791 332.881 179.934 333.785 180.835Z" fill="#A0616A"/>
<path d="M333.094 211.59L337.712 224.159C337.843 224.516 337.893 224.897 337.856 225.274C337.82 225.652 337.7 226.017 337.503 226.346C337.306 226.675 337.038 226.959 336.716 227.18C336.394 227.401 336.026 227.552 335.637 227.624L322.022 230.149C320.108 230.783 318.01 230.664 316.187 229.818C314.365 228.972 312.967 227.468 312.3 225.637C311.634 223.805 311.753 221.795 312.631 220.047C313.509 218.3 315.076 216.957 316.986 216.313L329.211 210.133C329.561 209.956 329.947 209.853 330.342 209.832C330.737 209.811 331.133 209.872 331.501 210.01C331.87 210.148 332.203 210.361 332.478 210.634C332.753 210.907 332.963 211.233 333.094 211.59V211.59Z" fill="#3F3D56"/>
<path d="M268.67 180.835C268.434 181.068 268.179 181.282 267.908 181.476L269.486 210.51L276.049 213.729L272.273 223.851L260.074 219.235C259.089 218.862 258.256 218.193 257.702 217.328C257.147 216.463 256.9 215.45 256.998 214.439L260.194 181.505C259.148 180.758 258.365 179.724 257.948 178.539C257.531 177.355 257.5 176.078 257.86 174.876C258.22 173.675 258.953 172.607 259.962 171.815C260.971 171.023 262.207 170.543 263.508 170.44C264.808 170.338 266.11 170.616 267.241 171.24C268.372 171.863 269.277 172.801 269.838 173.93C270.398 175.058 270.587 176.323 270.378 177.557C270.17 178.791 269.574 179.934 268.67 180.835H268.67Z" fill="#A0616A"/>
<path d="M270.954 210.01C271.323 209.872 271.718 209.811 272.113 209.832C272.508 209.853 272.894 209.956 273.244 210.133L285.469 216.314C287.38 216.957 288.946 218.3 289.824 220.048C290.703 221.795 290.822 223.805 290.155 225.637C289.488 227.469 288.091 228.972 286.268 229.818C284.446 230.664 282.347 230.783 280.433 230.15L266.818 227.624C266.429 227.552 266.061 227.401 265.739 227.18C265.418 226.96 265.149 226.675 264.952 226.346C264.755 226.018 264.635 225.652 264.599 225.274C264.563 224.897 264.612 224.516 264.744 224.159L269.361 211.591C269.492 211.233 269.702 210.907 269.977 210.634C270.252 210.361 270.586 210.148 270.954 210.01Z" fill="#3F3D56"/>
<path d="M307.577 197.842C307.498 196.005 307.979 194.186 308.962 192.607C309.945 191.028 311.386 189.758 313.11 188.95C317.68 186.691 320.551 181.872 319.293 177.471C317.683 171.838 309.678 168.185 303.192 170.123C301.437 170.719 299.744 171.473 298.136 172.373L293.899 174.549C292.089 175.417 290.344 176.403 288.676 177.502C286.177 179.265 284.219 181.639 283.006 184.375C281.792 187.111 281.368 190.108 281.778 193.055C282.612 198.781 286.528 204.033 291.887 207.629C293.937 209.096 296.305 210.104 298.815 210.578C301.384 210.984 304.244 210.523 306.123 208.993C309.058 206.601 308.755 202.596 307.806 199.252C307.68 198.79 307.604 198.318 307.577 197.842Z" fill="#2F2E41"/>
<path d="M358.667 409H242.376C242.214 409 242.058 408.938 241.943 408.828C241.828 408.718 241.764 408.569 241.764 408.414C241.764 408.258 241.828 408.109 241.943 407.999C242.058 407.889 242.214 407.828 242.376 407.828H358.667C358.83 407.828 358.985 407.889 359.1 407.999C359.215 408.109 359.279 408.258 359.279 408.414C359.279 408.569 359.215 408.718 359.1 408.828C358.985 408.938 358.83 409 358.667 409Z" fill="#CCCCCC"/>
<path d="M168.873 302.056L72.9163 339.76C71.2683 340.406 69.4203 340.399 67.7778 339.741C66.1352 339.083 64.8322 337.828 64.1545 336.251L34.7806 267.672C34.2869 266.516 34.2922 265.219 34.7954 264.067C35.2986 262.914 36.2587 262 37.4648 261.524L136.666 222.545C137.894 222.064 139.271 222.069 140.495 222.56C141.72 223.05 142.691 223.985 143.196 225.161L172.537 293.664C173.211 295.242 173.204 297.012 172.517 298.586C171.83 300.159 170.52 301.407 168.873 302.056Z" fill="#E6E6E6"/>
<path d="M76.3921 331.443L160.3 298.473C161.898 297.845 163.17 296.635 163.836 295.109C164.502 293.583 164.508 291.865 163.853 290.335L140.134 234.958C139.809 234.2 139.332 233.511 138.729 232.93C138.127 232.349 137.41 231.887 136.621 231.571C135.832 231.255 134.986 231.091 134.131 231.088C133.276 231.086 132.429 231.244 131.637 231.555L47.7297 264.525C46.9385 264.836 46.219 265.293 45.6123 265.87C45.0055 266.447 44.5234 267.133 44.1935 267.889C43.8636 268.645 43.6923 269.455 43.6894 270.274C43.6865 271.093 43.852 271.905 44.1766 272.663L67.8959 328.04C68.2204 328.797 68.6977 329.486 69.3003 330.068C69.9029 330.649 70.6192 331.11 71.4081 331.426C72.1971 331.743 73.0433 331.907 73.8984 331.909C74.7536 331.912 75.6009 331.754 76.3921 331.443Z" fill="white"/>
<path d="M139.67 250.06L138.436 250.545L138.521 250.742L139.754 250.257L139.67 250.06Z" fill="#E6E6E6"/>
<path d="M136.029 251.721L133.537 252.7L133.452 252.503L135.944 251.524L136.029 251.721ZM131.044 253.679L128.552 254.659L128.468 254.462L130.96 253.482L131.044 253.679ZM126.06 255.638L123.568 256.617L123.484 256.42L125.976 255.441L126.06 255.638ZM121.076 257.596L118.584 258.576L118.499 258.379L120.991 257.399L121.076 257.596ZM116.091 259.555L113.599 260.534L113.515 260.337L116.007 259.358L116.091 259.555ZM111.107 261.513L108.615 262.493L108.531 262.296L111.023 261.316L111.107 261.513ZM106.123 263.472L103.631 264.451L103.546 264.254L106.038 263.275L106.123 263.472ZM101.138 265.43L98.6463 266.41L98.5619 266.213L101.054 265.233L101.138 265.43ZM96.1541 267.389L93.662 268.368L93.5776 268.171L96.0698 267.192L96.1541 267.389ZM91.1698 269.347L88.6776 270.327L88.5933 270.13L91.0854 269.15L91.1698 269.347ZM86.1854 271.306L83.6933 272.285L83.609 272.088L86.1011 271.109L86.1854 271.306ZM81.2011 273.264L78.709 274.244L78.6246 274.047L81.1168 273.067L81.2011 273.264ZM76.2168 275.223L73.7247 276.202L73.6403 276.005L76.1325 275.026L76.2168 275.223ZM71.2325 277.181L68.7403 278.161L68.656 277.964L71.1481 276.984L71.2325 277.181ZM66.2482 279.14L63.756 280.119L63.6717 279.922L66.1638 278.943L66.2482 279.14ZM61.2639 281.098L58.7717 282.078L58.6873 281.881L61.1795 280.901L61.2639 281.098Z" fill="#E6E6E6"/>
<path d="M56.1952 282.86L54.9615 283.345L55.0459 283.542L56.2795 283.057L56.1952 282.86Z" fill="#E6E6E6"/>
<path d="M107.011 284.29L105.777 284.774L105.861 284.971L107.095 284.487L107.011 284.29Z" fill="#E6E6E6"/>
<path d="M103.406 285.936L100.951 286.9L100.867 286.703L103.322 285.739L103.406 285.936ZM98.4958 287.865L96.0407 288.83L95.9564 288.633L98.4115 287.668L98.4958 287.865ZM93.5856 289.794L91.1304 290.759L91.0461 290.562L93.5012 289.598L93.5856 289.794ZM88.6753 291.724L86.2201 292.689L86.1358 292.492L88.5909 291.527L88.6753 291.724ZM83.765 293.653L81.3098 294.618L81.2255 294.421L83.6807 293.456L83.765 293.653ZM78.8547 295.583L76.3995 296.547L76.3152 296.351L78.7703 295.386L78.8547 295.583ZM73.9444 297.512L71.4893 298.477L71.4049 298.28L73.86 297.315L73.9444 297.512ZM69.0341 299.442L66.579 300.406L66.4946 300.209L68.9498 299.245L69.0341 299.442Z" fill="#E6E6E6"/>
<path d="M64.0395 301.174L62.8059 301.659L62.8903 301.856L64.1239 301.371L64.0395 301.174Z" fill="#E6E6E6"/>
<path d="M86.6664 302.406L85.4327 302.891L85.5171 303.088L86.7507 302.603L86.6664 302.406Z" fill="#E6E6E6"/>
<path d="M82.9911 304.081L80.4651 305.073L80.3808 304.876L82.9068 303.884L82.9911 304.081ZM77.9391 306.066L75.4132 307.058L75.3288 306.861L77.8548 305.869L77.9391 306.066ZM72.8872 308.051L70.3612 309.043L70.2769 308.846L72.8028 307.854L72.8872 308.051Z" fill="#E6E6E6"/>
<path d="M67.7509 309.839L66.5173 310.324L66.6016 310.521L67.8352 310.036L67.7509 309.839Z" fill="#E6E6E6"/>
<path d="M92.9999 317.193L91.7662 317.678L91.8506 317.875L93.0842 317.39L92.9999 317.193Z" fill="#E6E6E6"/>
<path d="M89.3246 318.867L86.7986 319.86L86.7143 319.663L89.2402 318.67L89.3246 318.867ZM84.2726 320.852L81.7466 321.845L81.6623 321.648L84.1883 320.656L84.2726 320.852ZM79.2207 322.837L76.6947 323.83L76.6104 323.633L79.1363 322.641L79.2207 322.837Z" fill="#E6E6E6"/>
<path d="M74.0843 324.626L72.8507 325.11L72.9351 325.307L74.1687 324.823L74.0843 324.626Z" fill="#E6E6E6"/>
<path d="M79.9549 322.726L151.061 294.786C152.782 294.107 154.152 292.803 154.87 291.158C155.588 289.514 155.595 287.664 154.891 286.014L140.524 252.473L140.385 252.532L122.936 292.493L109.994 287.311C109.755 287.215 109.496 287.172 109.238 287.188C108.979 287.203 108.728 287.276 108.503 287.4C108.166 287.594 107.906 287.89 107.762 288.24L98.6166 309.181L89.1542 305.393C88.95 305.311 88.731 305.268 88.5097 305.267C88.2883 305.267 88.069 305.308 87.8642 305.388C87.6595 305.469 87.4733 305.587 87.3162 305.736C87.1592 305.886 87.0345 306.063 86.9492 306.259C86.8886 306.401 81.0542 320.112 79.9549 322.726Z" fill="#DBA1FF"/>
<path d="M79.736 323.041L79.531 322.959L86.848 306.201C87.0417 305.759 87.4107 305.408 87.874 305.226C88.3373 305.044 88.8572 305.045 89.3194 305.23L98.5949 308.945L107.688 288.119C107.881 287.677 108.25 287.326 108.714 287.144C109.177 286.962 109.697 286.964 110.159 287.148L122.914 292.257L140.453 252.087L140.658 252.169L123.033 292.536L110.073 287.345C109.872 287.264 109.655 287.222 109.436 287.221C109.217 287.22 109 287.261 108.798 287.341C108.595 287.42 108.411 287.537 108.256 287.685C108.101 287.833 107.977 288.008 107.893 288.202L98.7141 309.224L89.2337 305.426C88.8258 305.264 88.3672 305.262 87.9584 305.423C87.5496 305.584 87.2239 305.893 87.053 306.283L79.736 323.041Z" fill="#3F3D56"/>
<path d="M86.7086 303.995C87.5677 303.995 88.2642 303.328 88.2642 302.505C88.2642 301.682 87.5677 301.015 86.7086 301.015C85.8494 301.015 85.1529 301.682 85.1529 302.505C85.1529 303.328 85.8494 303.995 86.7086 303.995Z" fill="#3F3D56"/>
<path d="M107.053 285.878C107.912 285.878 108.608 285.211 108.608 284.388C108.608 283.565 107.912 282.898 107.053 282.898C106.194 282.898 105.497 283.565 105.497 284.388C105.497 285.211 106.194 285.878 107.053 285.878Z" fill="#3F3D56"/>
<path d="M138.731 251.596C139.59 251.596 140.287 250.929 140.287 250.106C140.287 249.283 139.59 248.616 138.731 248.616C137.872 248.616 137.175 249.283 137.175 250.106C137.175 250.929 137.872 251.596 138.731 251.596Z" fill="#3F3D56"/>
<path d="M51.6585 300.814C52.4672 300.429 53.1779 299.878 53.7403 299.201C54.3028 298.524 54.7035 297.737 54.9142 296.896C55.1248 296.055 55.1403 295.179 54.9596 294.332C54.7788 293.484 54.4062 292.685 53.868 291.99L58.4882 248.724H48.5035L44.8317 290.971C43.673 291.914 42.9157 293.232 42.7035 294.674C42.4914 296.117 42.8389 297.583 43.6804 298.797C44.5219 300.01 45.7989 300.885 47.2693 301.257C48.7397 301.629 50.3014 301.471 51.6585 300.814Z" fill="#FFB8B8"/>
<path d="M60.8263 224.846C68.6281 224.846 74.9527 218.789 74.9527 211.316C74.9527 203.844 68.6281 197.786 60.8263 197.786C53.0246 197.786 46.7 203.844 46.7 211.316C46.7 218.789 53.0246 224.846 60.8263 224.846Z" fill="#FFB8B8"/>
<path d="M63.4858 273.921C62.9203 273.921 62.3705 273.743 61.9207 273.414C61.471 273.086 61.146 272.626 60.9959 272.103C59.8641 268.165 56.9195 261.506 52.2441 252.311C51.1892 250.232 50.605 247.963 50.5299 245.653C50.4548 243.343 50.8905 241.044 51.8084 238.906C52.7263 236.769 54.1057 234.841 55.856 233.25C57.6064 231.659 59.6881 230.441 61.9647 229.675C64.1222 228.945 66.4105 228.637 68.6943 228.77C70.9781 228.902 73.211 229.472 75.261 230.445C77.3109 231.418 79.1361 232.776 80.6288 234.436C82.1214 236.097 83.2511 238.028 83.9511 240.114C87.575 250.996 87.4 262.653 87.1565 267.159C87.1263 267.702 86.9112 268.22 86.5441 268.634C86.177 269.049 85.6781 269.337 85.124 269.453L64.0408 273.863C63.8585 273.902 63.6724 273.921 63.4858 273.921Z" fill="#FF6584"/>
<path d="M83.9025 402.401H90.9534L94.3081 376.351L83.9012 376.352L83.9025 402.401Z" fill="#FFB8B8"/>
<path d="M104.553 408.672L82.3916 408.673L82.3912 400.472L95.9901 400.471C97.1145 400.471 98.2279 400.683 99.2667 401.095C100.306 401.508 101.249 402.112 102.045 402.873C102.84 403.635 103.47 404.539 103.901 405.534C104.331 406.529 104.553 407.595 104.553 408.672Z" fill="#2F2E41"/>
<path d="M13.3931 393.649L19.5725 396.903L35.6158 375.624L26.4967 370.821L13.3931 393.649Z" fill="#FFB8B8"/>
<path d="M28.3347 408.673L8.91489 398.447L13.0399 391.261L24.9566 397.536C26.9465 398.583 28.4204 400.345 29.0539 402.434C29.6874 404.523 29.4287 406.767 28.3347 408.673Z" fill="#2F2E41"/>
<path d="M83.5729 387.943C82.9446 387.942 82.3379 387.723 81.8661 387.325C81.3943 386.928 81.0895 386.38 81.0087 385.783L72.1903 320.697C72.1513 320.409 72.0184 320.141 71.8104 319.929C71.6025 319.718 71.3301 319.575 71.0324 319.521C70.7346 319.467 70.4266 319.504 70.1523 319.628C69.878 319.752 69.6515 319.955 69.5052 320.209L32.7536 384.073C32.4503 384.594 31.9618 384.994 31.3768 385.2C30.7917 385.406 30.1491 385.403 29.5657 385.194L21.5549 382.27C21.2327 382.153 20.9383 381.975 20.6889 381.747C20.4395 381.519 20.2402 381.245 20.1028 380.942C19.9653 380.639 19.8924 380.313 19.8883 379.983C19.8842 379.653 19.9491 379.325 20.0791 379.019L45.5379 319.118C45.6023 318.966 45.646 318.807 45.6679 318.644C49.1162 293.081 57.8897 280.082 60.4964 276.706C60.6868 276.458 60.8121 276.17 60.8617 275.866C60.9114 275.562 60.8839 275.25 60.7816 274.959L60.4232 273.929C60.2801 273.52 60.2508 273.083 60.3381 272.66C60.4255 272.237 60.6265 271.843 60.9213 271.518C70.3143 261.27 86.686 266.862 86.8503 266.92L86.9323 266.949L86.9837 267.016C105.341 291.129 98.5538 369.449 97.0068 384.904C96.9491 385.485 96.6787 386.028 96.2436 386.436C95.8085 386.844 95.2366 387.092 94.6291 387.135L83.7739 387.936C83.7064 387.941 83.6395 387.943 83.5729 387.943Z" fill="#2F2E41"/>
<path d="M115.744 227.033C115.674 227.33 115.628 227.632 115.607 227.936L90.8996 241.588L84.8942 238.277L78.492 246.305L88.5287 253.156C89.3395 253.71 90.3159 253.996 91.3113 253.973C92.3067 253.95 93.2674 253.618 94.0491 253.027L119.526 233.776C120.676 234.184 121.928 234.247 123.116 233.956C124.304 233.666 125.372 233.036 126.176 232.15C126.981 231.264 127.486 230.165 127.622 228.998C127.759 227.831 127.521 226.651 126.941 225.617C126.361 224.583 125.466 223.742 124.374 223.206C123.283 222.671 122.047 222.467 120.832 222.621C119.617 222.774 118.479 223.279 117.57 224.067C116.661 224.855 116.024 225.89 115.744 227.033Z" fill="#FFB8B8"/>
<path d="M90.0736 242.235L82.0883 252.147C81.8611 252.429 81.5731 252.661 81.2439 252.827C80.9147 252.993 80.5521 253.089 80.1807 253.108C79.8094 253.128 79.438 253.07 79.0919 252.94C78.7457 252.81 78.433 252.609 78.175 252.353L69.1351 243.362C67.6351 242.24 66.6607 240.595 66.4255 238.786C66.1903 236.977 66.7135 235.153 67.8803 233.713C69.0472 232.274 70.7625 231.336 72.6502 231.105C74.5379 230.875 76.4439 231.371 77.9503 232.485L89.2883 238.557C89.6129 238.731 89.8945 238.97 90.114 239.258C90.3334 239.545 90.4856 239.875 90.5601 240.224C90.6347 240.573 90.6298 240.933 90.5458 241.28C90.4619 241.627 90.3008 241.953 90.0736 242.235Z" fill="#FF6584"/>
<path d="M59.1237 259.456L46.2599 257.232C45.8939 257.168 45.5464 257.03 45.2411 256.827C44.9359 256.623 44.68 256.359 44.4909 256.052C44.3019 255.745 44.1841 255.403 44.1455 255.049C44.107 254.695 44.1486 254.337 44.2676 253.999L48.4378 242.173C48.7865 240.381 49.8628 238.795 51.4307 237.762C52.9987 236.729 54.9303 236.334 56.8021 236.663C58.6738 236.992 60.3329 238.019 61.4155 239.518C62.4982 241.017 62.916 242.866 62.5773 244.659L62.1705 257.095C62.1587 257.451 62.067 257.801 61.9015 258.12C61.736 258.439 61.5007 258.72 61.2115 258.944C60.9224 259.168 60.5862 259.33 60.2259 259.418C59.8656 259.507 59.4897 259.52 59.1237 259.456H59.1237Z" fill="#FF6584"/>
<path d="M63.0622 208.204C66.6929 210.584 71.4602 213.03 75.1685 210.496C76.3285 209.65 77.1712 208.467 77.5704 207.124C77.9696 205.78 77.904 204.35 77.3832 203.045C75.6076 198.182 70.729 196.041 66.0639 194.399C59.9992 192.266 53.3957 190.569 47.1349 192.096C40.8741 193.624 35.341 199.43 36.4712 205.523C37.3801 210.423 42.2055 214.5 41.5205 219.433C40.831 224.397 35.0018 227.01 29.8555 227.898C24.7092 228.785 18.9503 229.07 15.2519 232.611C10.5338 237.127 11.712 245.2 16.1515 249.969C20.591 254.737 27.2904 256.899 33.7822 258.368C42.3833 260.315 51.6862 261.338 59.8551 258.107C68.0241 254.876 74.381 246.178 72.0146 238.022C71.015 234.577 68.6604 231.665 66.3847 228.831C64.109 225.996 61.8047 223.032 60.9366 219.555C60.2132 216.657 60.7486 213.292 62.7551 211.118C63.1201 210.738 63.3498 210.256 63.4112 209.743C63.4726 209.23 63.3626 208.711 63.097 208.261L63.0622 208.204Z" fill="#2F2E41"/>
<path d="M116.904 409H0.61206C0.449732 409 0.294051 408.938 0.179268 408.828C0.0644843 408.718 0 408.569 0 408.414C0 408.258 0.0644843 408.109 0.179268 407.999C0.294051 407.889 0.449732 407.828 0.61206 407.828H116.904C117.066 407.828 117.222 407.889 117.336 407.999C117.451 408.109 117.516 408.258 117.516 408.414C117.516 408.569 117.451 408.718 117.336 408.828C117.222 408.938 117.066 409 116.904 409Z" fill="#CCCCCC"/>
</g>
<defs>
<clipPath id="clip0_36_895">
<rect width="609" height="409" fill="white"/>
</clipPath>
</defs>
</svg>
